<svg width="523" height="297" viewBox="0 0 523 297" fill="none" xmlns="http://www.w3.org/2000/svg">
<rect x="492.178" y="121.462" width="26.1498" height="54.2166" rx="1.5" fill="#0076CC" stroke="#341D1A"/>
<rect x="503.16" y="78.0393" width="7.47867" height="67.7372" rx="3.73933" fill="#9CDEFA" stroke="#341D1A"/>
<rect x="468.679" y="89.756" width="25.454" height="117.647" rx="1.5" fill="#0076CC" stroke="#341D1A"/>
<g filter="url(#filter0_ii_639_3520)">
<path d="M47.372 74.9319C47.372 51.2855 65.1993 32.1163 87.1904 32.1163L434.18 32.1163C456.171 32.1163 473.998 51.2855 473.998 74.9319V126.158L475.214 147.948L473.998 169.738V215.809C473.998 239.455 456.171 258.625 434.18 258.625H87.1904C65.1993 258.625 47.372 239.455 47.372 215.809V169.738L47.3457 147.948L47.372 126.158L47.372 74.9319Z" fill="#A5DFF7"/>
</g>
<path d="M45.3457 147.945L45.3457 147.95L45.372 169.738V169.739V215.809C45.372 240.421 63.9605 260.625 87.1904 260.625H434.18C457.41 260.625 475.998 240.421 475.998 215.809V169.793L477.211 148.059L477.217 147.948L477.211 147.836L475.998 126.102V74.9319C475.998 50.3201 457.41 30.1163 434.18 30.1163L87.1904 30.1163C63.9605 30.1163 45.372 50.3201 45.372 74.9319L45.372 126.156V126.158L45.3457 147.945Z" stroke="#341D1A" stroke-width="4"/>
<g filter="url(#filter1_ii_639_3520)">
<g clip-path="url(#clip0_639_3520)">
<rect x="75.7139" y="79.4147" width="79.9068" height="142.056" rx="11" fill="#F7F7F7"/>
<rect x="22.0283" y="193.922" width="173.632" height="32.9286" fill="#E2E2E2"/>
<rect x="21.585" y="74.1898" width="173.632" height="32.9286" fill="#E2E2E2"/>
<path d="M90.5342 137.583V138.583H91.5342H95.309H96.0576L96.2685 137.865C96.7865 136.1 97.8396 133.657 99.2742 131.997C99.9881 131.171 100.739 130.605 101.5 130.36C102.222 130.128 103.037 130.156 103.997 130.681C105.468 131.484 106.503 132.087 107.318 132.562L107.379 132.597C108.157 133.05 108.763 133.403 109.358 133.698C110.615 134.32 111.793 134.666 114.488 135.314C116.729 135.852 118.794 135.971 120.48 135.892C118.516 137.651 116.233 139.925 114.052 142.514C110.719 146.472 107.559 151.248 106.209 156.117C103.61 165.491 102.234 173.055 101.868 175.696L101.714 176.806L102.834 176.833L129.258 177.482L130.498 177.512L130.264 176.294C129.736 173.54 129.149 168.869 129.123 163.867C129.096 158.845 129.635 153.601 131.284 149.637C133.089 145.297 135.758 140.723 138.228 136.491C138.666 135.74 139.098 135 139.518 134.275C140.899 131.884 142.153 129.636 143.027 127.691C143.878 125.797 144.466 123.989 144.296 122.554C144.027 120.292 142.591 119.007 141.03 118.36C139.515 117.733 137.826 117.667 136.723 117.788L135.832 117.885V118.782C135.832 119.002 135.739 119.402 135.441 119.734C135.171 120.035 134.648 120.375 133.596 120.375C133.357 120.375 133.001 120.305 132.497 120.128C132.003 119.954 131.429 119.699 130.771 119.381C130.216 119.112 129.621 118.808 128.979 118.48C128.861 118.42 128.741 118.358 128.619 118.296C127.844 117.9 127.01 117.479 126.136 117.067C122.669 115.432 118.387 113.853 114.025 114.553C110.638 115.096 106.8 116.662 103.421 118.358C100.896 119.625 98.5845 120.987 96.8482 122.101V118.782V117.782H95.8482H91.5342H90.5342V118.782V121.375V137.583Z" fill="#9C1D28" stroke="#341D1A" stroke-width="2"/>
</g>
<rect x="74.2139" y="77.9147" width="82.9068" height="145.056" rx="12.5" stroke="#341D1A" stroke-width="3"/>
</g>
<g filter="url(#filter2_ii_639_3520)">
<g clip-path="url(#clip1_639_3520)">
<rect x="173.373" y="79.4147" width="78.427" height="142.056" rx="11" fill="#F7F7F7"/>
<rect x="120.682" y="193.922" width="170.417" height="32.9286" fill="#E2E2E2"/>
<rect x="121.014" y="74.1898" width="170.417" height="32.9286" fill="#E2E2E2"/>
<path d="M187.846 137.583V138.583H188.846H192.621H193.369L193.58 137.865C194.098 136.1 195.151 133.657 196.586 131.997C197.3 131.171 198.051 130.605 198.811 130.36C199.533 130.128 200.349 130.156 201.308 130.681C202.779 131.484 203.815 132.087 204.63 132.562L204.69 132.597C205.469 133.05 206.075 133.403 206.669 133.698C207.927 134.32 209.104 134.666 211.8 135.314C214.041 135.852 216.105 135.971 217.791 135.892C215.828 137.651 213.544 139.925 211.363 142.514C208.03 146.472 204.87 151.248 203.521 156.117C200.922 165.491 199.546 173.055 199.18 175.696L199.026 176.806L200.146 176.833L226.569 177.482L227.81 177.512L227.576 176.294C227.047 173.54 226.461 168.869 226.434 163.867C226.408 158.845 226.947 153.601 228.596 149.637C230.4 145.297 233.069 140.723 235.54 136.491C235.978 135.74 236.409 135 236.829 134.275C238.211 131.884 239.464 129.636 240.338 127.691C241.189 125.797 241.778 123.989 241.607 122.554C241.339 120.292 239.902 119.007 238.341 118.36C236.827 117.733 235.138 117.667 234.035 117.788L233.143 117.885V118.782C233.143 119.002 233.051 119.402 232.752 119.734C232.482 120.035 231.959 120.375 230.908 120.375C230.669 120.375 230.313 120.305 229.808 120.128C229.314 119.954 228.741 119.699 228.083 119.381C227.527 119.112 226.932 118.808 226.291 118.48C226.172 118.42 226.052 118.358 225.931 118.296C225.155 117.9 224.322 117.479 223.448 117.067C219.981 115.432 215.698 113.853 211.336 114.553C207.949 115.096 204.111 116.662 200.733 118.358C198.207 119.625 195.896 120.987 194.16 122.101V118.782V117.782H193.16H188.846H187.846V118.782V121.375V137.583Z" fill="#9C1D28" stroke="#341D1A" stroke-width="2"/>
</g>
<rect x="171.873" y="77.9147" width="81.427" height="145.056" rx="12.5" stroke="#341D1A" stroke-width="3"/>
</g>
<g filter="url(#filter3_ii_639_3520)">
<g clip-path="url(#clip2_639_3520)">
<rect x="269.558" y="79.4147" width="79.9068" height="142.056" rx="11" fill="#F7F7F7"/>
<rect x="215.872" y="193.922" width="173.632" height="32.9286" fill="#E2E2E2"/>
<rect x="215.872" y="74.1898" width="173.632" height="32.9286" fill="#E2E2E2"/>
<path d="M284.378 137.583V138.583H285.378H289.153H289.901L290.112 137.865C290.63 136.1 291.683 133.657 293.118 131.997C293.832 131.171 294.583 130.605 295.343 130.36C296.066 130.128 296.881 130.156 297.841 130.681C299.311 131.484 300.347 132.087 301.162 132.562L301.223 132.597C302.001 133.05 302.607 133.403 303.202 133.698C304.459 134.32 305.637 134.666 308.332 135.314C310.573 135.852 312.638 135.971 314.323 135.892C312.36 137.651 310.076 139.925 307.895 142.514C304.563 146.472 301.403 151.248 300.053 156.117C297.454 165.491 296.078 173.055 295.712 175.696L295.558 176.806L296.678 176.833L323.101 177.482L324.342 177.512L324.108 176.294C323.579 173.54 322.993 168.869 322.966 163.867C322.94 158.845 323.479 153.601 325.128 149.637C326.933 145.297 329.602 140.723 332.072 136.491C332.51 135.74 332.942 135 333.361 134.275C334.743 131.884 335.996 129.636 336.871 127.691C337.721 125.797 338.31 123.989 338.14 122.554C337.871 120.292 336.434 119.007 334.874 118.36C333.359 117.733 331.67 117.667 330.567 117.788L329.675 117.885V118.782C329.675 119.002 329.583 119.402 329.284 119.734C329.015 120.035 328.492 120.375 327.44 120.375C327.201 120.375 326.845 120.305 326.341 120.128C325.847 119.954 325.273 119.699 324.615 119.381C324.06 119.112 323.465 118.808 322.823 118.48C322.704 118.42 322.585 118.358 322.463 118.296C321.687 117.9 320.854 117.479 319.98 117.067C316.513 115.432 312.231 113.853 307.868 114.553C304.482 115.096 300.643 116.662 297.265 118.358C294.74 119.625 292.428 120.987 290.692 122.101V118.782V117.782H289.692H285.378H284.378V118.782V121.375V137.583Z" fill="#9C1D28" stroke="#341D1A" stroke-width="2"/>
</g>
<rect x="268.058" y="77.9147" width="82.9068" height="145.056" rx="12.5" stroke="#341D1A" stroke-width="3"/>
</g>
<g filter="url(#filter4_ii_639_3520)">
<g clip-path="url(#clip3_639_3520)">
<rect x="367.226" y="79.4147" width="79.9068" height="142.056" rx="11" fill="#F7F7F7"/>
<rect x="313.54" y="193.922" width="173.632" height="32.9286" fill="#E2E2E2"/>
<rect x="313.54" y="74.1898" width="173.632" height="32.9286" fill="#E2E2E2"/>
<path d="M382.046 137.583V138.583H383.046H386.821H387.569L387.78 137.865C388.298 136.1 389.351 133.657 390.786 131.997C391.5 131.171 392.251 130.605 393.011 130.36C393.733 130.128 394.549 130.156 395.509 130.681C396.979 131.484 398.015 132.087 398.83 132.562L398.891 132.597C399.669 133.05 400.275 133.403 400.87 133.698C402.127 134.32 403.305 134.666 406 135.314C408.241 135.852 410.306 135.971 411.991 135.892C410.028 137.651 407.744 139.925 405.563 142.514C402.23 146.472 399.071 151.248 397.721 156.117C395.122 165.491 393.746 173.055 393.38 175.696L393.226 176.806L394.346 176.833L420.769 177.482L422.01 177.512L421.776 176.294C421.247 173.54 420.661 168.869 420.634 163.867C420.608 158.845 421.147 153.601 422.796 149.637C424.601 145.297 427.27 140.723 429.74 136.491C430.178 135.74 430.61 135 431.029 134.275C432.411 131.884 433.664 129.636 434.539 127.691C435.389 125.797 435.978 123.989 435.808 122.554C435.539 120.292 434.102 119.007 432.542 118.36C431.027 117.733 429.338 117.667 428.235 117.788L427.343 117.885V118.782C427.343 119.002 427.251 119.402 426.952 119.734C426.683 120.035 426.16 120.375 425.108 120.375C424.869 120.375 424.513 120.305 424.009 120.128C423.515 119.954 422.941 119.699 422.283 119.381C421.728 119.112 421.132 118.808 420.491 118.48C420.372 118.42 420.253 118.358 420.131 118.296C419.355 117.9 418.522 117.479 417.648 117.067C414.181 115.432 409.899 113.853 405.536 114.553C402.15 115.096 398.311 116.662 394.933 118.358C392.408 119.625 390.096 120.987 388.36 122.101V118.782V117.782H387.36H383.046H382.046V118.782V121.375V137.583Z" fill="#9C1D28" stroke="#341D1A" stroke-width="2"/>
</g>
<rect x="365.726" y="77.9147" width="82.9068" height="145.056" rx="12.5" stroke="#341D1A" stroke-width="3"/>
</g>
<path fill-rule="evenodd" clip-rule="evenodd" d="M250.055 44.2214C248.885 44.2575 248.03 45.3524 248.404 46.4622C248.449 46.5961 248.496 46.7293 248.543 46.8619C249.295 48.9476 250.359 50.831 251.677 52.4044C252.995 53.9779 254.539 55.2106 256.223 56.0323C257.906 56.8539 259.695 57.2483 261.488 57.1931C263.281 57.1378 265.043 56.6339 266.673 55.7101C268.302 54.7864 269.768 53.4608 270.986 51.8092C272.205 50.1576 273.151 48.2122 273.772 46.0842C273.812 45.9489 273.85 45.8131 273.887 45.6767C274.192 44.546 273.272 43.5057 272.101 43.5418V43.5418C271.23 43.5687 270.504 44.198 270.262 45.0356C270.257 45.054 270.252 45.0723 270.246 45.0906C269.733 46.849 268.965 48.4071 268.018 49.6905C267.072 50.9732 265.982 51.9373 264.844 52.5823C263.712 53.2239 262.537 53.5489 261.377 53.5847C260.217 53.6204 259.025 53.3684 257.855 52.7977C256.68 52.224 255.532 51.3289 254.509 50.1069C253.485 48.8842 252.622 47.3765 252.002 45.653C251.995 45.6351 251.989 45.6171 251.982 45.5991C251.69 44.7779 250.926 44.1945 250.055 44.2214V44.2214Z" fill="#341D1A"/>
<path d="M133.424 33.9546L139.542 46.8716H148.154L141.809 33.9546H133.424Z" fill="#341D1A"/>
<path d="M152.718 24.9399C152.718 33.34 145.733 40.1909 137.066 40.1909C128.399 40.1909 121.415 33.34 121.415 24.9399C121.415 16.5399 128.399 9.68896 137.066 9.68896C145.733 9.68896 152.718 16.5399 152.718 24.9399Z" fill="#A5DFF7" stroke="#341D1A" stroke-width="2"/>
<path d="M121.709 7.40432L113.063 1" stroke="#341D1A" stroke-linecap="round"/>
<path d="M116.09 19.9675L105.443 18.4155" stroke="#341D1A" stroke-linecap="round"/>
<path d="M117.977 33.5632L107.624 36.4943" stroke="#341D1A" stroke-linecap="round"/>
<ellipse cx="138.626" cy="28.6421" rx="5.20972" ry="5.2105" fill="#341D1A"/>
<path d="M384.661 34.9581L378.542 47.8742H369.931L376.276 34.9581H384.661Z" fill="#341D1A"/>
<path d="M365.366 25.9412C365.366 34.3406 372.35 41.1911 381.017 41.1911C389.685 41.1911 396.669 34.3406 396.669 25.9412C396.669 17.5418 389.685 10.6913 381.017 10.6913C372.35 10.6913 365.366 17.5418 365.366 25.9412Z" fill="#A5DFF7" stroke="#341D1A" stroke-width="2"/>
<path d="M396.39 8.40853L405.036 2.00464" stroke="#341D1A" stroke-linecap="round"/>
<path d="M402 20.9711L412.647 19.4193" stroke="#341D1A" stroke-linecap="round"/>
<path d="M400.108 34.5642L410.461 37.495" stroke="#341D1A" stroke-linecap="round"/>
<ellipse cx="378.019" cy="28.5684" rx="5.20937" ry="5.21015" fill="#341D1A"/>
<ellipse cx="147.993" cy="54.798" rx="22.2349" ry="2.95951" fill="#F7405E"/>
<ellipse cx="369.116" cy="54.798" rx="22.2349" ry="2.95951" fill="#F7405E"/>
<ellipse cx="261.283" cy="286.272" rx="185.328" ry="10.7282" fill="#B18800" fill-opacity="0.3"/>
<path d="M161.328 289.163V264.007H145.126V276.798C140.791 274.382 131.013 270.999 126.579 276.798C122.144 282.597 127.147 287.457 130.203 289.163H161.328Z" fill="#341D1A"/>
<path d="M343.428 289.163V264.007H359.63V276.798C363.965 274.382 373.744 270.999 378.178 276.798C382.613 282.597 377.61 287.457 374.554 289.163H343.428Z" fill="#341D1A"/>
<rect x="491.148" y="52.8384" width="30.5561" height="30.5546" rx="15.2773" fill="#EE4AA6" stroke="#341D1A" stroke-width="2"/>
<rect x="494.821" y="54.1692" width="21.9617" height="22.777" rx="10.9809" fill="#FF73B8"/>
<rect x="497.653" y="56.3828" width="9.34073" height="9.3213" rx="4.66065" fill="#FFE5F2"/>
<path d="M43.6979 219.452C39.5862 225.84 33.2437 240.592 40.768 248.498C50.1733 258.38 64.7818 247.247 72.54 246.842C78.7466 246.519 82.8638 248.28 84.1466 249.201" stroke="#341D1A" stroke-width="2" stroke-linecap="round" stroke-linejoin="round"/>
<path d="M476.911 216.077C480.574 222.725 486.001 237.838 478.407 245.107C468.914 254.194 455.374 242.043 447.933 241.053C441.98 240.261 437.941 241.695 436.666 242.511" stroke="#341D1A" stroke-width="2" stroke-linecap="round" stroke-linejoin="round"/>
<defs>
<filter id="filter0_ii_639_3520" x="43.3457" y="28.1163" width="435.875" height="234.508" filterUnits="userSpaceOnUse" color-interpolation-filters="sRGB">
<feFlood flood-opacity="0" result="BackgroundImageFix"/>
<feBlend mode="normal" in="SourceGraphic" in2="BackgroundImageFix" result="shape"/>
<feColorMatrix in="SourceAlpha" type="matrix" values="0 0 0 0 0 0 0 0 0 0 0 0 0 0 0 0 0 0 127 0" result="hardAlpha"/>
<feOffset dy="9"/>
<feComposite in2="hardAlpha" operator="arithmetic" k2="-1" k3="1"/>
<feColorMatrix type="matrix" values="0 0 0 0 0.117647 0 0 0 0 0.658824 0 0 0 0 0.866667 0 0 0 1 0"/>
<feBlend mode="normal" in2="shape" result="effect1_innerShadow_639_3520"/>
<feColorMatrix in="SourceAlpha" type="matrix" values="0 0 0 0 0 0 0 0 0 0 0 0 0 0 0 0 0 0 127 0" result="hardAlpha"/>
<feOffset dy="-9"/>
<feComposite in2="hardAlpha" operator="arithmetic" k2="-1" k3="1"/>
<feColorMatrix type="matrix" values="0 0 0 0 0.117647 0 0 0 0 0.658824 0 0 0 0 0.866667 0 0 0 1 0"/>
<feBlend mode="normal" in2="effect1_innerShadow_639_3520" result="effect2_innerShadow_639_3520"/>
</filter>
<filter id="filter1_ii_639_3520" x="72.7139" y="76.4147" width="85.9072" height="148.057" filterUnits="userSpaceOnUse" color-interpolation-filters="sRGB">
<feFlood flood-opacity="0" result="BackgroundImageFix"/>
<feBlend mode="normal" in="SourceGraphic" in2="BackgroundImageFix" result="shape"/>
<feColorMatrix in="SourceAlpha" type="matrix" values="0 0 0 0 0 0 0 0 0 0 0 0 0 0 0 0 0 0 127 0" result="hardAlpha"/>
<feOffset dy="-6"/>
<feComposite in2="hardAlpha" operator="arithmetic" k2="-1" k3="1"/>
<feColorMatrix type="matrix" values="0 0 0 0 0.225 0 0 0 0 0.21873 0 0 0 0 0.213188 0 0 0 1 0"/>
<feBlend mode="normal" in2="shape" result="effect1_innerShadow_639_3520"/>
<feColorMatrix in="SourceAlpha" type="matrix" values="0 0 0 0 0 0 0 0 0 0 0 0 0 0 0 0 0 0 127 0" result="hardAlpha"/>
<feOffset dy="6"/>
<feComposite in2="hardAlpha" operator="arithmetic" k2="-1" k3="1"/>
<feColorMatrix type="matrix" values="0 0 0 0 0.870833 0 0 0 0 0.736792 0 0 0 0 0.618292 0 0 0 1 0"/>
<feBlend mode="normal" in2="effect1_innerShadow_639_3520" result="effect2_innerShadow_639_3520"/>
</filter>
<filter id="filter2_ii_639_3520" x="170.373" y="76.4147" width="84.4268" height="148.057" filterUnits="userSpaceOnUse" color-interpolation-filters="sRGB">
<feFlood flood-opacity="0" result="BackgroundImageFix"/>
<feBlend mode="normal" in="SourceGraphic" in2="BackgroundImageFix" result="shape"/>
<feColorMatrix in="SourceAlpha" type="matrix" values="0 0 0 0 0 0 0 0 0 0 0 0 0 0 0 0 0 0 127 0" result="hardAlpha"/>
<feOffset dy="-6"/>
<feComposite in2="hardAlpha" operator="arithmetic" k2="-1" k3="1"/>
<feColorMatrix type="matrix" values="0 0 0 0 0.225 0 0 0 0 0.21873 0 0 0 0 0.213188 0 0 0 1 0"/>
<feBlend mode="normal" in2="shape" result="effect1_innerShadow_639_3520"/>
<feColorMatrix in="SourceAlpha" type="matrix" values="0 0 0 0 0 0 0 0 0 0 0 0 0 0 0 0 0 0 127 0" result="hardAlpha"/>
<feOffset dy="6"/>
<feComposite in2="hardAlpha" operator="arithmetic" k2="-1" k3="1"/>
<feColorMatrix type="matrix" values="0 0 0 0 0.870833 0 0 0 0 0.736792 0 0 0 0 0.618292 0 0 0 1 0"/>
<feBlend mode="normal" in2="effect1_innerShadow_639_3520" result="effect2_innerShadow_639_3520"/>
</filter>
<filter id="filter3_ii_639_3520" x="266.558" y="76.4147" width="85.9072" height="148.057" filterUnits="userSpaceOnUse" color-interpolation-filters="sRGB">
<feFlood flood-opacity="0" result="BackgroundImageFix"/>
<feBlend mode="normal" in="SourceGraphic" in2="BackgroundImageFix" result="shape"/>
<feColorMatrix in="SourceAlpha" type="matrix" values="0 0 0 0 0 0 0 0 0 0 0 0 0 0 0 0 0 0 127 0" result="hardAlpha"/>
<feOffset dy="-6"/>
<feComposite in2="hardAlpha" operator="arithmetic" k2="-1" k3="1"/>
<feColorMatrix type="matrix" values="0 0 0 0 0.225 0 0 0 0 0.21873 0 0 0 0 0.213188 0 0 0 1 0"/>
<feBlend mode="normal" in2="shape" result="effect1_innerShadow_639_3520"/>
<feColorMatrix in="SourceAlpha" type="matrix" values="0 0 0 0 0 0 0 0 0 0 0 0 0 0 0 0 0 0 127 0" result="hardAlpha"/>
<feOffset dy="6"/>
<feComposite in2="hardAlpha" operator="arithmetic" k2="-1" k3="1"/>
<feColorMatrix type="matrix" values="0 0 0 0 0.870833 0 0 0 0 0.736792 0 0 0 0 0.618292 0 0 0 1 0"/>
<feBlend mode="normal" in2="effect1_innerShadow_639_3520" result="effect2_innerShadow_639_3520"/>
</filter>
<filter id="filter4_ii_639_3520" x="364.226" y="76.4147" width="85.9072" height="148.057" filterUnits="userSpaceOnUse" color-interpolation-filters="sRGB">
<feFlood flood-opacity="0" result="BackgroundImageFix"/>
<feBlend mode="normal" in="SourceGraphic" in2="BackgroundImageFix" result="shape"/>
<feColorMatrix in="SourceAlpha" type="matrix" values="0 0 0 0 0 0 0 0 0 0 0 0 0 0 0 0 0 0 127 0" result="hardAlpha"/>
<feOffset dy="-6"/>
<feComposite in2="hardAlpha" operator="arithmetic" k2="-1" k3="1"/>
<feColorMatrix type="matrix" values="0 0 0 0 0.225 0 0 0 0 0.21873 0 0 0 0 0.213188 0 0 0 1 0"/>
<feBlend mode="normal" in2="shape" result="effect1_innerShadow_639_3520"/>
<feColorMatrix in="SourceAlpha" type="matrix" values="0 0 0 0 0 0 0 0 0 0 0 0 0 0 0 0 0 0 127 0" result="hardAlpha"/>
<feOffset dy="6"/>
<feComposite in2="hardAlpha" operator="arithmetic" k2="-1" k3="1"/>
<feColorMatrix type="matrix" values="0 0 0 0 0.870833 0 0 0 0 0.736792 0 0 0 0 0.618292 0 0 0 1 0"/>
<feBlend mode="normal" in2="effect1_innerShadow_639_3520" result="effect2_innerShadow_639_3520"/>
</filter>
<clipPath id="clip0_639_3520">
<rect x="75.7139" y="79.4147" width="79.9068" height="142.056" rx="11" fill="white"/>
</clipPath>
<clipPath id="clip1_639_3520">
<rect x="173.373" y="79.4147" width="78.427" height="142.056" rx="11" fill="white"/>
</clipPath>
<clipPath id="clip2_639_3520">
<rect x="269.558" y="79.4147" width="79.9068" height="142.056" rx="11" fill="white"/>
</clipPath>
<clipPath id="clip3_639_3520">
<rect x="367.226" y="79.4147" width="79.9068" height="142.056" rx="11" fill="white"/>
</clipPath>
</defs>
</svg>
