<svg xmlns="http://www.w3.org/2000/svg" fill="none" viewBox="0 0 54 384"><g clip-path="url(#a)"><path fill="#9C1D28" stroke="#341D1A" stroke-width="2" d="M8.5 34.8V42c0 1.4 1.1 2.5 2.5 2.5 1 0 2-.7 2.4-1.5a7 7 0 0 1 1.9-2.4c.7-.6 1.6-.8 2.5-.4l2.3 1 1.4.7c.8.3 1.6.5 3.4.8l.2.2.4.9a3 3 0 0 1 .1 1 22.3 22.3 0 0 0-6.5 8.5c-1.1 3.3-2 6.3-2.4 8.3-.5 1.8 1 3.5 2.8 3.5l12.9.3c2 0 3.4-1.8 3.1-3.7-.2-1.7-.4-3.8-.2-5.8.1-2.1.5-4 1.3-5.7a66 66 0 0 1 4.7-7l.9-1.2a40.1 40.1 0 0 0 3-5.1c.2-.5.4-1 .3-1.6-.3-1.9-2.1-2.6-3.4-2.8-.9-.2-1.7.2-2.2.5l-.3.2a16.5 16.5 0 0 1-1 .5H38c-.3 0-.9 0-1.8-.4l-1.2-.5-2-.8c-2.3-.9-5.2-1.7-8.2-1.3a39.8 39.8 0 0 0-11.3 3.7c0-1-.9-2-2-2H11c-1.3 0-2.4 1-2.4 2.4Zm17.1 10Z"/><path fill="#341D1A" stroke="#341D1A" d="M41.7 221h-30c-.7 0-1.4.3-1.9 1l-5.4 6.5c-.7.9-.7 2.2 0 3.1L24.8 257c1 1.2 2.8 1.3 3.8 0l20.9-24.8c.8-1 .8-2.3 0-3.2l-5.8-7c-.5-.6-1.2-.9-2-.9Z"/><path fill="#E1E1E1" fill-rule="evenodd" d="M27 258c.8-.4 2.3-2.5 2.9-3.2l3-3.4 7.2-8.6 1.4-1.7 3-3.5 5.7-6.8-15.6-.1L27 258Zm-1.8-.4-6.8-27.2H4c1.3 2.2 12.8 16.4 15.7 20.4.7 1 4.6 6.3 5.4 6.8Z" clip-rule="evenodd"/><path fill="#FFFCF4" d="M34.2 230.4H18.8l7.3 27.3 8-27.3Z"/><path fill="#FFFCF4" fill-rule="evenodd" d="m18.9 230 7.6-8.4H11.3c.2.6 7 7.8 7.6 8.3Zm16.1 0c.4-.2 1.5-1.4 2-1.9l5.6-6.3H27.7A82 82 0 0 0 35 230Zm1 .4h14.2l-6.6-8.2c-1 .6-3 3-3.8 4-.7.7-3.4 3.4-3.8 4.2Zm-31.9-.6h14.3c-.4-.5-6.8-7.6-7.7-8.2l-6.6 8.2Zm15.5-.1h13.7l-3.2-3.9-3.3-3.6c-.8.2-2.9 2.7-3.7 3.5l-3.5 4Z" clip-rule="evenodd"/><path fill="#843C43" fill-rule="evenodd" d="M30.5 232.9c-1.1 3-6.2 2.8-7.5.2l7.5-.2Zm-8.5-.3c.1 4 9.2 4.8 9.4-.3-2-.7-7.7-.5-9.4.3Z" clip-rule="evenodd"/><path fill="#7E252E" fill-rule="evenodd" d="M31.9 228c1.2.9 3.7.2 5.4.5 1.5.3 3.4 1.6 4.5 1-.1-1.3 0-1-1.4-1.5-1.6-.6-8-2.2-8.5 0Zm-20.8 1c1.2.8 4.6-.9 6.7-.9l1.8.1c2 0 1 0 1.5-.5-.3-.7.8-1-3-1-1.9 0-4 .4-5.7 1.1-1.4.6-1 .3-1.3 1.3Z" clip-rule="evenodd"/><path fill="#FC867D" fill-rule="evenodd" d="M23 233.1c1.3 2.6 6.4 2.8 7.5-.2l-7.5.2Z" clip-rule="evenodd"/><g clip-path="url(#b)"><path fill="#A0EBB5" d="M46.8 131.8a7.9 7.9 0 0 1-8.1-1.3l-.3-.3-.8-1.2c-.2-.4-.3-.7-.2-1 .3-1.1 1.7-2.8 5.5-4 4-1.3 7.1.7 8.6 2.3.3.4.5.9.3 1.4-.5 1.1-1.9 2.9-5 4.1Z"/><path fill="#F2B645" stroke="#341D1A" d="m32 128.5.5.3-.2.4.2-.4.3.1h.3l.3-.5.5-.6 1-.5c.7-.3 1.9-.2 2.7.7.7.7.8 1.5.7 2.3m-6.3-1.8 5 3.6m-5-3.6c-1.4-.6-3-1-4.4-1a19.6 19.6 0 0 0-17.5 9.2c-3.8 5.6-4.9 12.9-1.6 18.8l.8 1.2a11.6 11.6 0 0 1 .7 1v.1c-.2 0-.3.2-.4.3l-.6.8c-.2.3-.3.7-.2 1-.1 1.4.9 2.8 2.4 2.9M32 128.5l-20.7 33.8m27-32-.5-.1h.5Zm0 0c0 .4-.1.7-.3 1l-.5.5a3 3 0 0 0-.4.4m0 0a1 1 0 0 1 0-.1m0 .1.2.2.5.9.8 1.1 1.2 2.7c.6 1.8.8 4 .7 5.7m-3.4-10.6v.2l-.5-.3h.5m0 0 3.4 10.7m0 0H40m.5 0-3-9.2.7 1 1.1 2.7c.6 1.7.8 3.9.7 5.5m.5 0H40m.5 0c-.5 8.9-6.8 17-15.2 19.2a15 15 0 0 1-11-1H14m26-18.2a20.8 20.8 0 0 1-15 18.7c-5.1 1.3-8.3 0-10-.6-.6-.3-1-.5-1.2-.4m.2.5-.2-.5m.2.5-.2-.5m.2.5c-.2 0-.3.2-.4.5l-.8.9c-.4.3-1 .4-1.7.4m2.7-2.3-.7.7c-.3.6-.7 1.1-2 1m0 0v.6m0-.5v.5"/><path fill="#FFD954" fill-rule="evenodd" d="M9.5 160c.6.2 2-.5 2.6-.9 1.8-1.2 0-1.6 5.5-2l2.8-.4a20 20 0 0 0 8.2-2.9c1-.8 1.8-1.3 2.7-2.2a19.6 19.6 0 0 0 5.4-11.9c.4-4.5-1.6-7-1.2-8.4.3-1.1 1-.9 1.9-3-.7-.7-1.6-.8-2.2-.6-1.2.4-1 1-1.8 1.7-.6 0-.8-.2-1.4-.4a14 14 0 0 0-4.3-1.1c-14.3-1-25 16-18.6 27.3.6 1 1.6 2.1 1.5 2.6 0 .5-1.5 1.4-1.1 2.1Z" clip-rule="evenodd"/><path fill="#F2B645" fill-rule="evenodd" d="M9.5 160c-.2 1 .6 2.2 2 2.2 1.9.2 1.7-1.2 2.5-1.7.9-.4 4.1 2.8 11.3 1a21 21 0 0 0 15-18.7 16.3 16.3 0 0 0-2-8.2c-.5-.8-1.6-2.2-1.6-2.5.6-.9 1.1-.8 1.3-2 0-.6 0-1.2-.6-1.8-1 2.1-1.6 1.9-2 3-.3 1.4 1.7 3.9 1.3 8.4 0 1-.1 1.9-.4 3-.8 3.2-2.5 6.4-5 8.9-.9.9-1.7 1.4-2.6 2.2-.7.5-1.4.8-2 1.1a21 21 0 0 1-6.3 1.8l-2.8.3c-5.5.5-3.7.9-5.5 2.1-.5.4-2 1-2.6.8Z" clip-rule="evenodd"/><path fill="#F4F4F4" fill-rule="evenodd" d="M19.4 132.6c-.5.5-.7.5-1.1 1.3v.6c0 1.2 1.1 1 1.6 1.2.7-.4.8-.3 1.2-.7.3-.4.5-1 .4-1.4 0-1.2-1.5-1.4-2.1-1Z" clip-rule="evenodd"/><path fill="#F2EA77" fill-rule="evenodd" d="M19.2 132.5h.2c.6-.3 2-.1 2.1 1.1 0 .4 0 1-.4 1.4-.4.4-.5.3-1.2.7-1 .4-1.4-.2-1.8-1v.6l.7.4c.5.4.6.4 1 .3 2-.4 2.4-2.7 1.5-3.3-.5-.4-1.3-.8-2.1-.2Z" clip-rule="evenodd"/><path fill="#F5F3B7" fill-rule="evenodd" d="M18 134.7c.5.8.8 1.4 1.9 1-.5-.2-1.7 0-1.6-1.2v-.6c.4-.8.6-.8 1-1.3l-.1-.1-.5.4-.5.6c-.2.5-.3.8-.1 1.2Z" clip-rule="evenodd"/><path fill="#7E252E" fill-rule="evenodd" d="M14.7 151.8c.7.3.1.4.9 0 .6-.2 2.1-1.9 3.2-2.1l-1.2 2c-1.8 2.4-1.4 1.4-1 2.3l.2-.1.3-.1 1-1.2c.9-1.1 3-4 2.8-5.3-.8-.3-.6-.2-1.5.4l-3.4 2.5c-.8.6-1.2.9-1.3 1.6Zm12.1-9.8c.4 0 6.3-2.8 6.1-4.1-1.3-.5-2.1 1.3-4 1.6l.7-1.7c.6-1 .6-1 .3-1.7-.5 0 0-.4-.8.4l-.4.7-1.6 3.2c-.5 1-.7.8-.3 1.6Z" clip-rule="evenodd"/><path fill="#F5625C" fill-rule="evenodd" d="m27.7 150.8-1-.7c1.2-1.5 1.5-2 3-2.3l-2.6-2.6c-.2 1.3-1.5 2.1-2.5 2.6 0-.7-.5.2.2-1l2.3-1.7c-1.2.3-1.4 1.3-2.8 1.7-.7.7-.5.4-.7 1 .9-.2 0-.5 1 .5l1.1 1.2c.8.8 1 1.2 2 1.3Z" clip-rule="evenodd"/><path fill="#7E252E" fill-rule="evenodd" d="m27 145 .1.2 2.7 2.6c1.3 2.4-.1 4.4-2.1 3-1 0-1.2-.5-2-1.3l-1-1.2c-1.2-1-.2-.7-1.1-.4 1 2.3 4.7 5 6.6 3.4 2.3-2-1.8-7.8-3.6-6.7l-2.3 2.2c1.4-.4 1.6-1.4 2.8-1.7Z" clip-rule="evenodd"/><path fill="#FC867D" fill-rule="evenodd" d="M27.7 150.8c2 1.4 3.4-.6 2-3-1.5.3-1.8.8-3 2.3l1 .7Z" clip-rule="evenodd"/><path fill="#7E252E" fill-rule="evenodd" d="M12.2 148.2c1.2-.5 1.8-1.7 3.4-2.4 1.1-.5 2.7-.2 3.3-1.1-1.6-1.8-8.3 2.1-6.7 3.5Zm11.2-7.5c.9-.6.5-2 1-3.4 1-3 2.2-2.4 1.1-3.6-1.4.7-3.8 5.9-2.1 7Z" clip-rule="evenodd"/><path fill="#F4D7D8" fill-rule="evenodd" d="M27.1 145.2v-.1l-2.3 1.8c-.7 1.1-.2.2-.2.9 1-.5 2.3-1.3 2.5-2.6Z" clip-rule="evenodd"/><path fill="#6EAF80" fill-rule="evenodd" d="M38.7 130.5a7.9 7.9 0 0 0 8.1 1.3c3.1-1.2 4.5-3 5-4.1v-1c-1.7.7-4.2 1.4-7.5 1.9a11 11 0 0 1-5.7-.6 4 4 0 0 0-1.1-.3l-.1.2c-.1.4 0 .7.2 1l.8 1.3.3.3Z" clip-rule="evenodd"/><path fill="#341D1A" fill-rule="evenodd" d="M42.7 123.5c4.3-1.4 7.6.8 9.2 2.5.4.5.6 1.2.3 1.8-.5 1.4-2 3.2-5.2 4.5-4 1.6-7.3-.2-8.6-1.4l-.4-.4.4-.3-.4.3-.8-1.3c-.3-.3-.5-.9-.3-1.4l.5.1-.5-.1c.4-1.3 2-3.1 5.8-4.3Zm8.4 3.2a7.7 7.7 0 0 0-8-2.3c-3.7 1.2-5 2.8-5.2 3.7-.1.1 0 .3.1.6l.8 1.2.2.3-.3.3.3-.3c1.2 1 4.2 2.6 7.6 1.2 3-1.2 4.3-3 4.7-4 .1-.2 0-.5-.2-.7Z" clip-rule="evenodd"/></g><g clip-path="url(#c)"><path fill="#A0EBB5" d="M28.8 316.3a7 7 0 0 1-3.9 3.6h-.7l-.4-.1c-.2-.5-.2-1.6 1-3.7a7 7 0 0 1 4.2-3.5c.3 0 .5 0 .5.2.2.5.2 1.7-.7 3.5Z"/><path fill="#6EAF80" fill-rule="evenodd" d="M25.2 319.8c1-.4 2.6-1.5 3.6-3.5a7 7 0 0 0 .8-2.8c0-.4-.2-.6-.5-.7a19 19 0 0 1-2.3 3.8 11 11 0 0 1-2 2.2 8 8 0 0 0-1 .9l1 .2.4-.1Z" clip-rule="evenodd"/><path fill="#341D1A" fill-rule="evenodd" d="M36.4 336.6c.3-1.8-.3-2.3-.3-3.2.7-.5 2.7-.5 3.5-.4a9.7 9.7 0 1 1-5 .9c.8 1-.2 4 1.8 2.7Zm-15.6 3.8c0 .5 0 0-.2.4-.8 1.6-2.1 2.5-1 3 1 .5 2.3-2.4 2.8-2.9a9 9 0 0 1 3 1.9 10 10 0 0 1 1.9 11.3 9.8 9.8 0 0 1-14.9 3.2 9.7 9.7 0 0 1 5-17.1c.7-.1 2.7-.2 3.4.2Zm13.3-8c-2.2 1.6-3.4 1.7-5.1 4.7-.8 1.4-1.5 3.4-1.5 5v.8c-.8-.7-.7-1-2.1-2l-2.3-1.4c0-.4.6-1.5.8-2l.6-2.2c1.9-7.6-.3-13.2-.3-13.7a21 21 0 0 1 8 7c.5.7 1.8 3.1 2 3.8Zm-10-12.5c-.3-.5 0-1.8 0-2.3.2-.6.5-1.4 1-2 .8-1.2 3-2.6 4.4-2.5a6 6 0 0 1-5.4 6.8Zm-10.6 2.7c.6-1.2 3-2.6 4.3-2.7 1.3-.1 3.3.3 4.3 1-.5 1.3-3 2.7-4.4 2.9-1.2 0-3.6-.5-4.2-1.2Zm16.2 27.8.1-.8h.1l.3.4.3.3.5.5a11.2 11.2 0 1 0 15.2-16.4 11 11 0 0 0-10.6-2.5l-1.9-3.6c-.7-1.3-1.4-2.2-2.3-3.2-2.3-2.5-4-3.1-5.3-4.2 3.5-1.8 4.7-3.4 5-7.2 0-.7.2-2.4-1-2.2-2 .1-4.5 1.2-5.9 2.8-.9 1-1.4 2.4-1.6 3.8 0 .2 0 1.1-.2 1.3L21 319l-1.3-.4c-4.6-.9-8.2 3.7-8 4.5 0 .7 2 1.4 2.4 1.6 3.8 1.5 5.9.5 8.7-2.1.6.9.8 3.5 1 4.4a24.5 24.5 0 0 1-2.2 12c-.6 0-1.6-.3-3.2-.3A11.2 11.2 0 0 0 9.9 357a11.2 11.2 0 0 0 19.8-6.5Z" clip-rule="evenodd"/><path fill="#A0EBB5" d="M19.4 323a7 7 0 0 1-5.3.4l-.6-.4-.2-.4c.1-.5.9-1.3 3.1-2.2a7 7 0 0 1 5.5 0c.2 0 .3.2.3.4-.2.5-1 1.4-2.8 2.3Z"/><path fill="#6EAF80" fill-rule="evenodd" d="M14.5 323.5c.9.3 2.9.5 5-.4 1.2-.6 2-1.2 2.3-1.7.2-.3.2-.6 0-.8-.9.4-2.3 1-4.2 1.5-1 .3-2 .4-2.8.4a8 8 0 0 0-1.4.1c.1.3.3.5.6.7l.5.2Z" clip-rule="evenodd"/><path fill="#F7405E" fill-rule="evenodd" d="M36.4 336.6c-2 1.3-1-1.7-1.8-2.7a9.7 9.7 0 1 0 5-.9c-.8 0-2.8 0-3.5.4 0 .9.6 1.4.3 3.2Zm-15.6 3.8c-.7-.4-2.7-.3-3.5-.2a9.7 9.7 0 0 0-5 17.1 9.8 9.8 0 0 0 15-3.2 9.8 9.8 0 0 0-2-11.3c-.7-.7-2-1.7-2.9-1.9-.5.5-1.8 3.4-2.8 2.9-1.1-.5.2-1.4 1-3 .3-.4.2 0 .2-.4Z" clip-rule="evenodd"/><path fill="#341D1A" fill-rule="evenodd" d="M19.7 356a5 5 0 0 1-1.2-1.6l-.6-1.1c-.2-.8-.3-.3 0-.9l3-1.5c.7.3 2 2.5 1.7 3.1.5 1 .3 1.8-.1 2.7-1.3.7-1.8.3-2.8-.6Zm-2.6-3.4a7.6 7.6 0 0 0 3 4.6c3.4 2.2 4.9-3 1.6-6.6-.7-.8-1.3-.1-2.3.5-.8.4-1.7.9-2.3 1.5Z" clip-rule="evenodd"/><path fill="#F5625C" fill-rule="evenodd" d="M19.7 356c-.3-.9-.1-1 1-1.5.7-.4 1.2-.4 1.9-.5.4-.6-1-2.8-1.7-3.1.2.5.2 0 0 .5-.6.5-2.4 2-3 1-.3.6-.2 0 0 .9l.6 1.1a5 5 0 0 0 1.2 1.7Z" clip-rule="evenodd"/><path fill="#FC867D" fill-rule="evenodd" d="M19.7 356c1 1 1.5 1.4 2.8.7.4-.9.6-1.6 0-2.7-.6 0-1.1.1-1.8.5-1.1.5-1.3.6-1 1.6Z" clip-rule="evenodd"/><path fill="#341D1A" fill-rule="evenodd" d="M13.7 353.7c.1-1.8-2.5-2.3-2.8-.3-.4 2.2 2.7 2 2.8.3Zm9.9-7.7c-.2 3.9 5.4 1 1.5-1l-1.5 1Z" clip-rule="evenodd"/><path fill="#F4D7D8" fill-rule="evenodd" d="m20.9 350.9-3 1.5c.6 1 2.4-.5 3-1 .2-.5.2 0 0-.5Z" clip-rule="evenodd"/><path fill="#341D1A" fill-rule="evenodd" d="M41 343.6c.7.4.7-.2 1.8-.1-2.5 3.4 2 4.6 2.7 2.1.9-3-4.3-3.7-4.6-2Zm-8.4-1.7c.4.7 1.3.5 2.6 1.4-1 .6-2.4-.3-2.9.8.2.1-.3.3 1.1.1 1.4 0 2.5.1 3-.7-.3-.8-1.9-1.4-2.8-1.7-1-.5-.6-.2-1 0Zm6.1 5.5c-.8-.5-.6-.9-1.6-1.2 0 1 1.4 1.8 1.6 1.8.8-.3 1.3-.6 1.5-1.3-1-.1-.4.3-1.5.7Z" clip-rule="evenodd"/></g></g><defs><clipPath id="a"><path fill="#fff" d="M0 0h54v384H0z"/></clipPath><clipPath id="b"><rect width="54" height="96" y="96" fill="#fff" rx="11"/></clipPath><clipPath id="c"><rect width="54" height="96" y="288" fill="#fff" rx="11"/></clipPath></defs></svg>