<svg xmlns="http://www.w3.org/2000/svg" width="140" height="90" fill="none">
  <path fill="url(#a)" fill-rule="evenodd" d="M128.6 39.1a13.9 13.9 0 0 0-10-23c-3.7 0-7 1.5-9.4 3.8v-1a7 7 0 0 0-11.5-5.8c-.2-.9-.8-1.7-1.6-2.2l-4.8-3.3a4.3 4.3 0 0 0-5.7.8l-2.8 3.4a4.3 4.3 0 0 0-3.9-2.4h-7.2a4.4 4.4 0 0 0-4.3 4.7l.7 10A13.5 13.5 0 0 0 45 27.7l.6-9.2 7.6-3.4a4.4 4.4 0 0 0 2.6-4.5L55 3.8c-.3-2.2-2.3-4-4.7-3.8L24.4 2.6H16c-3 0-4.8 2.8-4.2 5.4l3.8 16.4a4.3 4.3 0 0 0 6 3l3.6-1.6L29 42.4c0 .5 0 1-.2 1.4-.1.6-.6.7-1 .4-.7-1-1.8-2-3.3-2.1-3-.4-7.5-.3-11.8 1.2A17.3 17.3 0 0 0 2 53.6c-5 13.3.3 27.3 12.4 30.4 8.3 2 14.6-.8 17.6-3 .4-.5.8-.9 1-1.4a7 7 0 0 0 1.8 1.2 12 12 0 0 0 6.5 1.2c1.5-.1 3-.5 4.1-1a4 4 0 0 0 1.8.6H52a5 5 0 0 0 2.5-1h.2c3.8 2.1 7 2.8 10 2.6 2.8-.1 5-1 6.6-1.7l.7-.3c1-.4 1.7-.9 2.5-1.5l-.2 1a4.4 4.4 0 0 0 4.2 4.9L90 86c2.6 0 4.5-2 4.4-4.4.5.2 1 .3 1.6.3h3.6c2.2 0 3.8-1 4.7-2 .3.2.5.5.8.6a7.6 7.6 0 0 0 6.9 1.2l3.1-1.3c1.4-.8 2-2.2 2.2-3.5l.2-5a13 13 0 0 0 8.8 3.4c7.5 0 13.6-6.3 13.6-13.8 0-6-3.7-11-9-13a13.7 13.7 0 0 1-4.2-3.8c-.6-1.3.6-3.7 1.8-5.6Z" clip-rule="evenodd"/>
  <g filter="url(#b)">
    <path fill="#FFA826" fill-rule="evenodd" d="M86 43.6a4.4 4.4 0 0 0-3.8 5 4.4 4.4 0 0 0 5.3 3.5 4.4 4.4 0 0 0 3.7-5 4.4 4.4 0 0 0-5.3-3.5ZM25.1 46c-.1-.5-.5-.8-1-.9-5.5-.7-15.9.3-19.4 9.2-4.5 11.7.7 23 10.5 25.3A18 18 0 0 0 30 77.3c.3-.3.5-.7.4-1.1l-1.2-8a1 1 0 0 0-1-1 1 1 0 0 0-.7.3c-2.3 2-7.2 4.7-11 1.8-4.8-3.8-3.9-11.5 0-13.2 4-1.7 7.4-.3 9.4.8 1.5.8 1.6-1.3 1.4-2.5L25.2 46Zm12.5 12.1c-5 2.1-6.6 8.5-5.9 12.3a9 9 0 0 0 4.4 6.4c3 1.5 6.8.7 9-.2.5-.2 1-.1 1.4.2.2.2.5.4.8.4h4.3c.8-.1 1.3-.7 1.5-1l.1-.5V59.3a.8.8 0 0 0-.7-.8l-4-.3a5 5 0 0 0-1.8.4 2 2 0 0 1-1.5 0 9 9 0 0 0-7.6-.4Zm8.3 10a3 3 0 0 1-3 3 3 3 0 0 1-3.2-3A3 3 0 0 1 43 65a3 3 0 0 1 3 3.1Zm44.5-.8c-.7.2-1.1.8-1 1.5l2 11c.2.9-.5 1.6-1.3 1.6L78.5 81c-.8 0-1.4-.7-1.3-1.5l2-12.8c0-.5.2-.8.6-1l3.2-1.5c.5-.2.8-.8.7-1.3l-.8-7.2c0-.8.6-1.5 1.5-1.4l4.6.7c.6 0 1 .5 1.1 1l1.8 9.7c.1.7-.3 1.4-1 1.5l-.5.1ZM61.3 46.8a15 15 0 0 1 13 3.1c1 .7 2.9 2.4 2.9 3.3 0 1.2-1.4 2.3-3 3.2-.8.5-1.6 0-3-.7L67.9 54c-3.8-1.4-6 2.4-4 4a9 9 0 0 0 4 1.2c3.2.6 7 1.2 8 4 1.5 4.3 0 12-4.9 13.9l-.7.3a14.5 14.5 0 0 1-14-.6c-.5-.3-.8-.8-.7-1.3l.5-4v-3c0-.3.3-.5.6-.3 1.2.9 2.8 2 4.7 2 4.7 0 6-.4 5.8-3.2 0-1.5-2.3-1.8-4.8-2.1-2.2-.3-4.5-.6-5.6-1.7-2.4-2.5-2.8-14.6 4.6-16.4Zm34.8 30.8c-.7 0-1.3-.6-1.3-1.3V57c0-.8.6-1.3 1.3-1.3h4.5c.6 0 1 .3 1.3.9.2.7.9 1 1.5 1 3.3-.6 8.4-.8 9.8 2.3a42.6 42.6 0 0 1 1.2 15.5c0 .4-.3.8-.7 1-1.3.7-3.5 1.6-5.1 1-1.6-.5-2-1-2.2-1.2V65.7c0-.6-.5-1.8-1.6-1.8-1 0-1.9.7-2.3 1.2a1 1 0 0 0-.3.7v10.3l-.1.5c-.3.4-1 1-2.4 1h-3.6Zm30.3-6.4c5.8 0 10.6-4.6 10.6-10.3 0-5.7-4.8-10.3-10.6-10.3-5.9 0-10.6 4.6-10.6 10.3 0 5.7 4.7 10.3 10.6 10.3Zm.2-7.6c1.6 0 2.9-1.2 2.9-2.8 0-1.5-1.3-2.7-3-2.7a2.8 2.8 0 0 0-2.8 2.7c0 1.6 1.3 2.8 2.9 2.8Z" clip-rule="evenodd"/>
  </g>
  <g filter="url(#c)">
    <path fill="#FFFFFD" fill-rule="evenodd" d="m24.5 6 26-2.6c.7 0 1.3.5 1.4 1.2l.8 6.4c0 .6-.2 1.1-.8 1.3L43.4 16c-.4.2-.7.6-.8 1l-1.8 24.4c0 .6-.5 1-1 1.2l-5.9.9c-.6.1-1.3-.3-1.4-1l-4.8-19.8c-.2-.8-1-1.2-1.7-.9l-5.7 2.3c-.7.3-1.5-.1-1.7-.9L14.8 7.5c-.2-.8.4-1.6 1.2-1.6h8.5Zm49.2 34c-.7 0-1.3-.5-1.3-1.2l-2-25c0-.8.5-1.4 1.3-1.4h7.2c.7 0 1.3.6 1.3 1.3v2.1c0 1.2 1.5 1.8 2.3.9l5.4-6.3c.4-.5 1.2-.6 1.7-.2l4.8 3.2c.6.4.8 1.2.3 1.8l-7.7 10c-.4.6-.4 1.3.1 1.8l7.3 6.8c.6.5.6 1.5 0 2l-4.8 3.5c-.6.4-1.3.4-1.7-.1l-5.4-5.5c-.9-.9-2.3-.3-2.3.9v4.1c0 .7-.6 1.3-1.3 1.3h-5.2Zm25.5-15.8c-.7 0-1.3.5-1.4 1.3l-.7 13.1c0 .7.5 1.3 1.1 1.4l5.4.7c.8.2 1.5-.5 1.4-1.3l-.6-13.7c0-.7-.6-1.2-1.2-1.3l-4-.2Zm-41.6 18c5.8 0 10.5-4.6 10.5-10.3 0-5.7-4.7-10.3-10.5-10.3-5.9 0-10.6 4.6-10.6 10.3 0 5.7 4.7 10.3 10.6 10.3Zm0-7.4c1.6 0 2.9-1.2 2.9-2.7 0-1.6-1.3-2.8-3-2.8a2.8 2.8 0 0 0-2.8 2.8c0 1.5 1.3 2.7 2.9 2.7ZM102 22.1a4 4 0 0 0 4.3-3.6 4 4 0 0 0-3.9-4 4 4 0 0 0-4.2 3.6 4 4 0 0 0 3.8 4Zm16.5 17.4c5.9 0 10.6-4.6 10.6-10.3 0-5.7-4.7-10.3-10.6-10.3-5.8 0-10.5 4.6-10.5 10.3 0 5.7 4.7 10.3 10.5 10.3Zm.2-7.6c1.6 0 3-1.3 3-2.8 0-1.5-1.4-2.8-3-2.8a2.8 2.8 0 0 0-2.9 2.8c0 1.5 1.3 2.8 3 2.8Z" clip-rule="evenodd"/>
  </g>
  <g filter="url(#d)">
    <path fill="#FF0" fill-rule="evenodd" d="M108.6 48.6c.3 1.7 1 5.1 1.2 5.5l1.6-2.7 2.5-1.6-5.3-1.2ZM112 52l-1.5 2.7 5.5 1.1-1.6-5.1L112 52Zm-65-3.3c-1.6.5-5 1.5-5.4 1.8l3 1.3 1.7 2.4.7-5.5Zm-3 3.8-2.8-1.3-.5 5.6 5-2.1-1.7-2.2Zm54.8-1.3c.2-.2 2.4-.7 3.5-1l.2 3.5-1.5-1.5-2.2-1Zm-.2.5 2.1.9L102 54l-3.2 1.3-.3-3.6ZM19.2 62c.1 1.6.4 5 .6 5.4l2-3 2.6-1.8-5.2-.6Zm3 2.9-1.8 2.9 5.4.5-1-5-2.5 1.6Z" clip-rule="evenodd"/>
  </g>
  <path fill="#fff" fill-rule="evenodd" d="m108.6 44.7 1.2 5.6 1.6-2.8 2.5-1.6-5.3-1.2ZM112 48l-1.5 2.8 5.5 1-1.6-5.1L112 48Zm-65-3.2c-1.6.5-5 1.5-5.4 1.8l3 1.4 1.7 2.3.7-5.5Zm-3 3.8-2.8-1.3-.5 5.7 5-2.2-1.7-2.2Zm54.8-1.3 3.5-1 .2 3.5-1.5-1.5-2.2-1Zm-.2.5 2.1.9L102 50l-3.2 1.3-.3-3.6ZM19.2 58.1c.1 1.6.4 5 .6 5.4l2-3 2.6-1.8-5.2-.6Zm3 2.9-1.8 2.9 5.4.5-1-5-2.5 1.6Z" clip-rule="evenodd"/>
  <defs>
    <filter id="b" width="133.9" height="46" x="3.1" y="43.5" color-interpolation-filters="sRGB" filterUnits="userSpaceOnUse">
      <feFlood flood-opacity="0" result="BackgroundImageFix"/>
      <feColorMatrix in="SourceAlpha" result="hardAlpha" values="0 0 0 0 0 0 0 0 0 0 0 0 0 0 0 0 0 0 127 0"/>
      <feOffset dy="8"/>
      <feComposite in2="hardAlpha" operator="out"/>
      <feColorMatrix values="0 0 0 0 0 0 0 0 0 0 0 0 0 0 0 0 0 0 0.25 0"/>
      <feBlend in2="BackgroundImageFix" result="effect1_dropShadow_262_4684"/>
      <feBlend in="SourceGraphic" in2="effect1_dropShadow_262_4684" result="shape"/>
      <feColorMatrix in="SourceAlpha" result="hardAlpha" values="0 0 0 0 0 0 0 0 0 0 0 0 0 0 0 0 0 0 127 0"/>
      <feOffset dy="-1"/>
      <feComposite in2="hardAlpha" k2="-1" k3="1" operator="arithmetic"/>
      <feColorMatrix values="0 0 0 0 0.695833 0 0 0 0 0.422757 0 0 0 0 0.183816 0 0 0 1 0"/>
      <feBlend in2="shape" result="effect2_innerShadow_262_4684"/>
      <feColorMatrix in="SourceAlpha" result="hardAlpha" values="0 0 0 0 0 0 0 0 0 0 0 0 0 0 0 0 0 0 127 0"/>
      <feOffset dy="2"/>
      <feComposite in2="hardAlpha" k2="-1" k3="1" operator="arithmetic"/>
      <feColorMatrix values="0 0 0 0 1 0 0 0 0 1 0 0 0 0 1 0 0 0 0.6 0"/>
      <feBlend in2="effect2_innerShadow_262_4684" result="effect3_innerShadow_262_4684"/>
    </filter>
    <filter id="c" width="114.4" height="42.1" x="14.8" y="3.4" color-interpolation-filters="sRGB" filterUnits="userSpaceOnUse">
      <feFlood flood-opacity="0" result="BackgroundImageFix"/>
      <feColorMatrix in="SourceAlpha" result="hardAlpha" values="0 0 0 0 0 0 0 0 0 0 0 0 0 0 0 0 0 0 127 0"/>
      <feOffset dy="2"/>
      <feComposite in2="hardAlpha" operator="out"/>
      <feColorMatrix values="0 0 0 0 0 0 0 0 0 0 0 0 0 0 0 0 0 0 0.25 0"/>
      <feBlend in2="BackgroundImageFix" result="effect1_dropShadow_262_4684"/>
      <feBlend in="SourceGraphic" in2="effect1_dropShadow_262_4684" result="shape"/>
      <feColorMatrix in="SourceAlpha" result="hardAlpha" values="0 0 0 0 0 0 0 0 0 0 0 0 0 0 0 0 0 0 127 0"/>
      <feOffset dy="-2"/>
      <feComposite in2="hardAlpha" k2="-1" k3="1" operator="arithmetic"/>
      <feColorMatrix values="0 0 0 0 0.996078 0 0 0 0 0.854902 0 0 0 0 1 0 0 0 1 0"/>
      <feBlend in2="shape" result="effect2_innerShadow_262_4684"/>
      <feColorMatrix in="SourceAlpha" result="hardAlpha" values="0 0 0 0 0 0 0 0 0 0 0 0 0 0 0 0 0 0 127 0"/>
      <feOffset dy="2"/>
      <feComposite in2="hardAlpha" k2="-1" k3="1" operator="arithmetic"/>
      <feColorMatrix values="0 0 0 0 1 0 0 0 0 1 0 0 0 0 1 0 0 0 0.6 0"/>
      <feBlend in2="effect2_innerShadow_262_4684" result="effect3_innerShadow_262_4684"/>
    </filter>
    <filter id="d" width="120.8" height="43.6" x="7.2" y="36.6" color-interpolation-filters="sRGB" filterUnits="userSpaceOnUse">
      <feFlood flood-opacity="0" result="BackgroundImageFix"/>
      <feBlend in="SourceGraphic" in2="BackgroundImageFix" result="shape"/>
      <feGaussianBlur result="effect1_foregroundBlur_262_4684" stdDeviation="6"/>
    </filter>
    <linearGradient id="a" x1="70" x2="70" y1="0" y2="86" gradientUnits="userSpaceOnUse">
      <stop stop-color="#471707"/>
      <stop offset="1" stop-color="#221F27"/>
    </linearGradient>
  </defs>
</svg>
