<svg xmlns="http://www.w3.org/2000/svg" width="140" height="140" fill="none">
  <path fill="#ECA09B" stroke="#341D1A" d="M88.2 57.7a36.2 36.2 0 1 1-72.4 0 36.2 36.2 0 0 1 72.4 0Z"/>
  <path fill="#F5E9EF" d="M50.4 87.5a31.6 31.6 0 1 0 0-63.3 31.6 31.6 0 0 0 0 63.3Z"/>
  <path fill="#D03144" fill-rule="evenodd" d="M54.5 49.2c2 3.9.8 11.6-7.5 9.4-5.5-1.4-5.7-8.5-1.2-12 4.6-2.6 8 .3 8.7 2.6ZM40.8 32.3c3.2-3.4 8.2-1.1 7.6 2.5-.9 3.2-2.8 5.7-6 4.9-4-1.7-3-5.7-1.6-7.4Zm2-6.1c-7.8 1.5-12.5 9.9-6.2 16.1l1 .7 2 1-1.4 1.6-.8 1c-6.8 8.4 1.8 22 13.2 20.7 13-1.6 14.9-16.6 10.9-22.8-2.4-3-4.7-4.1-8.6-4.4 4-8.4-1.6-16-10.1-13.9Z" clip-rule="evenodd"/>
  <path fill="#2985E4" stroke="#341D1A" d="M108.9 81.2a22.8 22.8 0 1 1-45.6 0 22.8 22.8 0 0 1 45.6 0Z"/>
  <path fill="#6EB0F5" d="M83.3 96.2a17.2 17.2 0 1 0 0-34.5 17.2 17.2 0 0 0 0 34.5Z"/>
  <path fill="#DAF3F5" fill-rule="evenodd" d="M82.6 74.5c2.2 2-2.4 8.7-6.3 6.5-2.4-2.6-.2-10.4 6.3-6.5Zm-3.7-3.8c1.6-3 4-3.1 5.1-2.7l3.6 2.3c1.5-1 1.7-2.5 1-3.2-7.4-7-18.8 4-16.7 13.8 1.4 6.7 8.4 5.1 12 .5 6.1-7.9 0-12-5-10.7Z" clip-rule="evenodd"/>
  <path fill="#F0B23E" stroke="#341D1A" d="M23.8 93.8a11.7 11.7 0 1 1-23.3 0 11.7 11.7 0 0 1 23.3 0Z"/>
  <path fill="#EFCA7E" d="M11.3 97.2a5.7 5.7 0 1 0 0-11.5 5.7 5.7 0 0 0 0 11.5Z"/>
  <path fill="#F59AA0" stroke="#341D1A" d="M54.7 112.4a8.1 8.1 0 1 1-16.3 0 8.1 8.1 0 0 1 16.3 0Z"/>
</svg>
