<svg xmlns="http://www.w3.org/2000/svg" width="173" height="31" fill="none">
  <g fill="#FFA826" filter="url(#a)">
    <path d="M.8 7.4V2.1L20 .7v5.8l-7.4.6 1.3 16.2-6.7 1 .3-17.1-6.6.2Zm28.1-3.6c2.6 0 4.9 1 6.8 2.7a9 9 0 0 1 2.8 6.6 9.4 9.4 0 0 1-9.6 9.2c-2.6 0-4.9-.9-6.8-2.7a8.8 8.8 0 0 1-2.8-6.5A9.4 9.4 0 0 1 29 3.9Zm6.2 7.2a3 3 0 0 1-.9 1.4 3 3 0 0 1-2 .8 3 3 0 0 1-2.1-.8 2.7 2.7 0 0 1 0-4 3 3 0 0 1 2.5-.7 4.5 4.5 0 0 0-5.3.8 4.3 4.3 0 0 0 0 6.3c.9.9 2 1.3 3.2 1.3 1.3 0 2.4-.4 3.3-1.3A4.2 4.2 0 0 0 35 11Z"/>
    <path d="M36.6 5.3 36.5 3l7-1.2.2 8.1 6.8-8.4 5 4.4-7.4 8.5 10.7 7-.4 5-13-8.9.1 8.4-4.8.5L39.6 5l-3 .4Z"/>
    <path d="m56.8 8.9 5 .3.5 14.7-5.3.1-.2-15ZM59 2.4c.8 0 1.6 0 2.2.5.6.4 1 .9 1 1.5a2 2 0 0 1-.6 1.8c-.6.5-1.2.8-2 1-.9 0-1.6-.1-2.3-.5-.6-.4-1-1-1-1.6 0-.6.1-1.2.7-1.8.5-.5 1.2-.8 2-.9Zm13 1.4c2.6 0 4.8 1 6.7 2.7 1.9 1.8 2.8 4 2.8 6.6a9.4 9.4 0 0 1-9.6 9.2c-2.6 0-4.9-.9-6.7-2.7a8.8 8.8 0 0 1-2.8-6.5c0-2.6.9-4.8 2.8-6.6a9.4 9.4 0 0 1 6.7-2.7Zm6 7.2c0 .5-.3 1-.7 1.4a3 3 0 0 1-2.1.8 3 3 0 0 1-2-.8 2.6 2.6 0 0 1 0-4 3 3 0 0 1 2.4-.7 4.5 4.5 0 0 0-5.3.8c-.9.9-1.3 2-1.3 3.2 0 1.2.4 2.2 1.3 3.1 1 .9 2 1.3 3.3 1.3 1.2 0 2.3-.4 3.2-1.3A4.2 4.2 0 0 0 78 11Zm11.4 11 3-4c3.2 2.1 5.6 2.4 7.2.7 1.5-1.5.8-3.2-2-5.1a20.5 20.5 0 0 1-6.3-4.4C89.7 8 89.6 5.8 91 3c1.6-2 4.4-2.8 8-2a11 11 0 0 1 6.4 3.6l-2.3 3.3c-3.6-2.5-6-3.3-7.5-2.5-.6 1.3 1.3 3 5.8 5.4 4.6 2.8 5 6.9 1.2 12.1-2.8 3.4-7.2 3.1-13.3-.9Z"/>
    <path d="m105.8 1.1 5.5.7-1.1 16.2 9.6-1 .4 6.9-15.3.6.9-23.4Zm23.7 2.7c2.6 0 4.9 1 6.7 2.7 1.9 1.8 2.8 4 2.8 6.6a9.4 9.4 0 0 1-9.6 9.2c-2.6 0-4.8-.9-6.7-2.7a8.8 8.8 0 0 1-2.8-6.5 9.4 9.4 0 0 1 9.6-9.2Zm6.1 7.2a3 3 0 0 1-2.9 2.2 3 3 0 0 1-2-.8c-.6-.6-1-1.2-1-2s.4-1.4 1-2a3 3 0 0 1 2.5-.7c-.7-.3-1.4-.5-2.1-.5a4.4 4.4 0 0 0-4.6 4.5c0 1.2.4 2.2 1.3 3.1 1 .9 2 1.3 3.3 1.3 1.2 0 2.3-.4 3.2-1.3a4.2 4.2 0 0 0 1.3-3.8Z"/>
    <path d="M137.8 7.4V2.1L157 .7l-.1 5.8-7.4.6 1.3 16.2-6.7 1 .3-17.1-6.6.2Z"/>
    <path d="m156.1 22 3-4c3.2 2.1 5.7 2.4 7.3.7 1.4-1.5.7-3.2-2.1-5.1a20.5 20.5 0 0 1-6.2-4.4c-1.6-1.3-1.8-3.4-.4-6.3 1.7-2 4.4-2.7 8.2-1.9 2.7.6 4.9 1.8 6.3 3.6L170 7.9c-3.6-2.5-6.1-3.3-7.5-2.5-.7 1.3 1.3 3 5.8 5.4 4.6 2.8 5 6.9 1.2 12.1-2.8 3.4-7.3 3.1-13.4-.9Z"/>
  </g>
  <defs>
    <filter id="a" width="171.4" height="29.8" x=".8" y=".7" color-interpolation-filters="sRGB" filterUnits="userSpaceOnUse">
      <feFlood flood-opacity="0" result="BackgroundImageFix"/>
      <feColorMatrix in="SourceAlpha" result="hardAlpha" values="0 0 0 0 0 0 0 0 0 0 0 0 0 0 0 0 0 0 127 0"/>
      <feOffset dy="4"/>
      <feComposite in2="hardAlpha" operator="out"/>
      <feColorMatrix values="0 0 0 0 1 0 0 0 0 0.835294 0 0 0 0 0.592157 0 0 0 0.2 0"/>
      <feBlend in2="BackgroundImageFix" result="effect1_dropShadow_619_605"/>
      <feBlend in="SourceGraphic" in2="effect1_dropShadow_619_605" result="shape"/>
      <feColorMatrix in="SourceAlpha" result="hardAlpha" values="0 0 0 0 0 0 0 0 0 0 0 0 0 0 0 0 0 0 127 0"/>
      <feOffset dy="1"/>
      <feComposite in2="hardAlpha" k2="-1" k3="1" operator="arithmetic"/>
      <feColorMatrix values="0 0 0 0 1 0 0 0 0 0.862745 0 0 0 0 0.658824 0 0 0 1 0"/>
      <feBlend in2="shape" result="effect2_innerShadow_619_605"/>
    </filter>
  </defs>
</svg>
