<svg xmlns="http://www.w3.org/2000/svg" xmlns:xlink="http://www.w3.org/1999/xlink" width="200" height="200" fill="none">
  <defs>
    <path id="u" fill="#fff" d="M151.9 76.4c.1 3.3.3 6.7-1 9.3-1.7 2.2-5.1 4.3-6.9 6.5a35.4 35.4 0 0 0-4.2 6.3 16 16 0 0 1 1-8.2c1-3 1.5-5.9-.4-9.1 4-2.3 4.9-4.7 5.4-7 1.8 1 4.5 1 6.1 2.2Z"/>
    <path id="x" fill="#fff" d="m151.8 67.7 2.3 4c1.2 2.7 1.3 5.2 1.5 7.7-.2 3.1-.6 6.3.6 8.7-1.7-1.1-2.7-3.2-3.7-5.2a8.8 8.8 0 0 0-2-3.2 34 34 0 0 1 .4-8l1-4Z"/>
    <path id="Z" fill="#fff" d="M151.8 67.9c2.6 3.7 3.9 7.7 5.1 11.8 1.3 3.4 2.6 6.8 7 10.4-4-8.8-1.4-11.2-2-21-.7-3.7-1.5-7.5-4.4-11.5 5 3.8 8.7 3.5 12.3 3-2.7-1-5-2.3-6.2-3.9 3 .8 5.2.6 7-.4-6.5-.7-9.5-6-13.6-9.9 1.9-3.8 3.6-7.8 4.2-13.4l-2.2-1 2.3-1.6-.5-5.1c0-1.1-.6-1.7-2.4-1.4-3.6.5-7.6 1.8-11.7 3.5l-9.3 3.2a41.1 41.1 0 0 0-30.9-.8c-3.1-.3-6.4-2.4-9.6-4a26.5 26.5 0 0 0-12.7-1.7c-1 0-1 1-1 1.8.3 3.5 1.2 7.1 2.8 10.9 1 3.3 2 6.5 2.2 9.6-2.8 5-4.7 10.3-5.3 16 1.8-2.6 3.7-4.4 5.6-5.3-.4 3.1 0 8.1-.6 12.4-.5 3.6-2.3 5.9-4.9 8.7a16 16 0 0 0 9.7-8.2c0 3.5-.9 7-3.3 10.8.9-.3 1.8-.5 2.6-1.3 0 4.2.7 6.6 2 8.3 0-2.8 2.2-9.1 3.7-17.3A88 88 0 0 0 98.8 56c2 11.9 5.4 15.6 7.7 19.8a78 78 0 0 1-1.9-11.2c1.4 4.4 3.6 8.6 6.5 12.6-2.2-12-.9-21.9 3-30a48 48 0 0 0 2.2 18.5c2-7.5 5-14.6 9.6-21a25.8 25.8 0 0 0 4.3 25.1l2.2-8.5c.3 1.4.5 3.3.3 6.4a36.5 36.5 0 0 0 6.2-17.5 36 36 0 0 1 2.1 12.7l1.7-3.2c1 1.4 1.1 2.6 1 3.8 0 1.8 0 3.1.3 6.1 2.6 4.4 2 6.7-.4 9.1a25 25 0 0 0 9 10.3 23 23 0 0 1-3.2-6.1l2.2 3c-2-8.7-1.1-13.7.2-18Z"/>
    <path id="aG" fill="#fff" d="M144.7 34.4a32 32 0 0 1 10.6-4.2 6 6 0 0 0-2.5 2c1.8-.2 3 .2 4.1.6-1.6.3-3.2.6-4.4 1.8 1.4.2 2.9 1 4.3 1.6-1.7.4-3.5.6-5 2.2 1.4.6 1.6 1.9 2 3-.9-.7-1.8-1.5-3-1.4-1.8-2-3.8-3.8-6.1-5.6Z"/>
    <path id="aM" fill="#fff" d="M93.2 39.6c-1.4-3-1.6-5-4-8-.5-2.8 2.2-4.3 3.4-4.7a2.7 2.7 0 0 0-1.4 3c1.7-1 3-1.4 5.5-.8-1.8 1.3-2 1.7-1.6 3.8 2.4-1.3 3.7-.3 5.2.6-2.2 0-3 .3-4.4 1.8 1-.1 2 .3 2.6 1.3-1 0-2-.4-2.8.3l-2.5 2.7Z"/>
    <path id="aR" fill="#fff" d="M127.7 59a11 11 0 0 0-6.4-3.1 12 12 0 0 0-8.9 2.6 18 18 0 0 0-4.5 6.7 29 29 0 0 0-.8 2c.5-1 1-1.7 1.6-2.5l1.2-1.5c0 .8.1 1.5.3 2.3.3 1.1 1 2.2 1.6 3.2a16 16 0 0 1-.4-4.2c0-1 .2-2 .6-2.9a6.7 6.7 0 0 1 3.2-3.2c2-1 4.3-1.2 6.5-.9 2.3.4 4.5 1.5 6.2 3a25.2 25.2 0 0 0-3.4-2.7 19.3 19.3 0 0 1 3.2 1.1Z"/>
  </defs>
  <path fill="#A3E9FC" d="M41 95.9c.8 0 1.2.7 1.2 1.4 0 1.5-.6 3-.6 4.5 0 2 .4 4 1.7 5.5a5 5 0 0 0 3.9 1.9c1.7 0 3.2-1 4.4-2.1 2-1.6 3.7-3.6 6-4.7 1.7-.7 3.7-1 5.3-.2a8 8 0 0 1 4 4.2c.7 1.8 1.2 3.7 1.8 5.6a16 16 0 0 0 1.8 4l.3 3.2.1 1.2c-.1.3-.5 0-.6-.1A7.8 7.8 0 0 1 67 116c-1.1-2.7-1.6-5.4-2.5-8-.6-1.2-1.3-2.3-2.5-2.8-.9-.3-1.9-.3-2.8-.1-2 .4-3.6 1.9-5.2 3-1.7 1.4-2.7 3-5 3.5-.8.2-2.5.2-3.6 0a7 7 0 0 1-4.8-3.6c-1.4-2.4-1.4-5.3-1.4-8 0-.9-.1-1.8.1-2.7.3-.7 1-1.4 1.8-1.4Z"/>
  <path fill="url(#a)" d="m54.2 104.6 2.1 2c-3.9 3.3-7.6 6.4-10.6 5-4.6-.9-5.9-5.2-6.3-7.9l2.3-.3c1 4.7 3.1 5.6 5.4 5.7 3 0 5-2.6 7.1-4.5Z"/>
  <path fill="url(#b)" d="M67.1 107c1.2 3.4 2.2 7.7 3.7 9l.6 6.1c-6.2-4.4-4.8-10.7-7-14.4l2.7-.8Z"/>
  <path fill="#396BA4" d="m41.2 95.6.6.2c.4.2.6.6.6 1l.1 1-.3 1.8a11 11 0 0 0 0 5.2c.4 1 1 2 1.7 2.8.8.7 1.8 1.2 2.9 1.3 1 0 2.2-.3 3.1-1 1-.5 1.8-1.3 2.7-2 1.3-1.3 2.7-2.6 4.3-3.5.8-.4 1.7-.7 2.7-.9.9-.2 1.9-.1 2.8.1 1.2.4 2.3 1.1 3.1 2a15 15 0 0 1 1.9 3.2c.9 2.3 1.3 4.7 2.2 7 .7 1.4 1.6 2.8 2.8 4l-.2.1h.2v5l-.4-.1a13 13 0 0 1-4.7-5.2c-1.2-2.2-1.7-4.7-2.2-7-.3-1.2-.5-2-1.2-3s-1.5-2-2.6-2.2a6 6 0 0 0-3.5.5c-1 .5-2 1.3-3 2-1.4 1.2-2.8 2.7-4.4 3.4-1.6.8-3.7 1-5.4.6a7.6 7.6 0 0 1-3.7-2.6 10 10 0 0 1-1.9-3.8c-.6-2-.6-4.2-.6-6.3l.1-1.5c.1-.5.3-1 .7-1.5a2 2 0 0 1 1-.6h.6Zm0 .4h-.5l-.8.5a3 3 0 0 0-.5 1.3l-.1 1.4c0 2.1 0 4.2.6 6.2a8 8 0 0 0 5.2 6 8 8 0 0 0 5.1-.5c1.6-.7 3-2.2 4.3-3.3 1-.8 2-1.5 3.1-2.1 1.1-.6 2.5-.8 3.8-.5 1.2.3 2.1 1.3 2.9 2.3.7 1 1 2 1.2 3.1.6 2.4 1 5 2.2 7 .9 1.6 2.4 3.9 4.2 4.8V118c-1-1.2-2-2.6-2.7-4.1-1-2.3-1.4-4.7-2.2-6.9-.5-1.1-1-2.2-1.8-3a6.2 6.2 0 0 0-3-2 6 6 0 0 0-2.6 0 8 8 0 0 0-2.5.8c-1.5.9-2.9 2.1-4.2 3.4l-2.7 2.2a6 6 0 0 1-3.4 1 6 6 0 0 1-3.2-1.5 6.7 6.7 0 0 1-1.8-3 11 11 0 0 1 0-5.4l.3-1.8-.1-.8c0-.3-.2-.6-.4-.7a1 1 0 0 0-.4-.2Z"/>
  <path fill="#E5F9FE" d="M42 98.7s1-2.8-1-2.9c-2.3-.1-2 3.4-2 3.4s.5-2.8 2-2.7c1.5 0 1 2.2 1 2.2Z"/>
  <path fill="#E5F9FE" d="M42 96.7c-.5.8-.8 2-1 3 0-1.1 0-2.2.2-3.4l.7.4Zm-1.5-.2c-.4.7-.7 1.5-.8 2.6 0-1.1-.2-1.7 0-2.8l.8.2Zm.5 0-.6 2c0-1 0-1.3.2-2.1h.5Zm14.9 7.6c3.8-2.6 7.5-2.8 10.8 2.8-3-4.2-6.7-5.1-10.8-2.8Z"/>
  <path fill="url(#c)" d="M27.9 121c-16.5 27 41.6 53 72.1 62.5 8.9 2.7 24.2 5.3 27.7-3 5.5-13.3-15.6-25-27.3-33.3-21-14.8-59.4-48.1-72.6-26.4Z" opacity=".2"/>
  <path fill="#FAEBB0" d="M122 95.3c-.4 3.7 0 7.4.5 11a18 18 0 0 1-4.2 8c-4 .3-2.6.6-6.2 1.5-1.4.7-1.3 1-1.7 1.7l2.5.2c-1.3.7-1.4 1.7.4 1.8-1 .3-1.7 1.9.1 1.9l-.7.5c-4.9-.3-8.8-1.7-13-2.8l-7.2 6.5c-1.4 1.4-3.5-.1-5.6-1.7a32.2 32.2 0 0 1-14.1-21.3c-1.2-2.4 1.5-2.6 4.3-2.8 5.5 0 11.5 1 16.3-.3 2.7 0 1.2-4 2.3-4.6 2-1.9 4.4-1.3 6.8-.8 1.2-.9 2.3-1.8 3.2-2.9.4-1 .7-1.9.8-2.8l1.2.5-1-1c.7-.7 1.5-1.3 2.3-1.7 3 1 6.2 2 9.5 2.7a105 105 0 0 0 3.5 6.4Z"/>
  <path fill="#D7BC85" d="M112 118.8c-.2 1-.7 2-1.2 2.9l-2.7-.4c.8-1 1.7-2 2.4-3.2l2.4-.3c-.4.3-1 .5-.9 1Z"/>
  <path fill="#FAEBB0" d="m126 91.8 7.1 5.6a35 35 0 0 1 6 10.9c.6 1.5.7 3 0 4.3a75 75 0 0 1-4.5 12.9c.3 2.2-1.5 3.1-2.8 4.4-2.1 1.7-4.3 4-6 3-3-1.7-4.8-5.9-6-10.6 1-.8 2.6-1.5 4-2.2-.8-2-1-4.5-3.1-6.2-.6.1-1 .3-2.4.4a18 18 0 0 0 4.4-8.4c1-3.5.8-7 .7-10.7l.7-.2-.2-.4 2.1-2.8Zm-1.7 16.6-1 2.5 2.5-1.1-1.5-1.4Z"/>
  <path fill="url(#d)" d="M123.8 120c1.1 4.5 4.2 9.2 3.7 12.2-.6.5-1.2 1-2.4-.4a24.1 24.1 0 0 1-5-9.8l3.7-2Z"/>
  <path fill="#FFBB6B" d="M117 126.8a20.3 20.3 0 0 0 16 11.7c-.2 2.1-1.2 4-2 5.9a12 12 0 0 1-3.6.5l1 .8c-1.6 1.6-3.6 3-6 3.7l1.1 1.8c-2 .2-4 .3-6.2-.1-2 .5-4 1.2-6 2.3l.8 2.6a27 27 0 0 1-8.2-1.9 34 34 0 0 0-8.1.7 13.3 13.3 0 0 0-7-4.6l.9-2.2a10 10 0 0 0-6.5.7c-.7-.8-2-1.5-3.5-2.2l2.2-4.2a13.8 13.8 0 0 1-3.3-7.5 29.5 29.5 0 0 0-6.6-4.2l2-1.9c-2.1-4-3.3-8.4-3.4-13.1 1.7 2.4 4.3 4 10 3 2.6 2.9 5.7 5 9 7 1.3 1 2.5.4 3.5-.6l2.6-2.3a64.8 64.8 0 0 0 21.3 4.1Z"/>
  <path fill="#D7BC85" d="m112.4 120.7-1.2-.2-.7 1.1 2.3.3.6-.5c-.8 0-1-.3-1-.7Zm2-15.2a28 28 0 0 1-.9 9.6l-2 .5c1-1.5 2-5.7 3-10.1Z"/>
  <path fill="#FFBB6B" d="M99.7 119.2c4.4 1.3 8.7 2.3 13 2.7-.2 1.5 1.3 2 4.5 1.6-.2 1.5.8 2.4.6 3-.3.4-.8.4-1.3.4-6.5.1-13.6-1.9-20.8-4.2l4-3.5Z"/>
  <path fill="#FDECCD" d="M120.5 114c2.3 1.5 2.6 4 3.2 6.2-1.2.6-1.3.5-2.9 1.4-.4 1.1-1.4 1.6-2.4 2.3 0 3.1-4 2.5-4.5.8-.8-.5-1.5-.7-2.6-2-.5-.6-.9-1-1.3-2a6 6 0 0 1 .2-2.9c.5-.7.8-1.5 2-2 0-.6-.8-1.1 1-1.5 3-.8 3 0 5.4-.1.8 0 1.4-.2 1.9-.3Z"/>
  <path fill="#F5BB96" d="m123.7 120-2.8 1.3.5-1.7 2-1 .3 1.4Z"/>
  <path fill="#E7E7E7" d="M121.5 89.7c.6 1.7 1.6 3.6 2.6 5.3l-2 .4c-1.1-1.8-2.6-4.1-3.5-6.4l3 .7Z"/>
  <path fill="#E7E7E7" d="M124.5 90.7c-.3.9-.6 1.8-1.4 2.3l.8 1.6a20 20 0 0 0 2-2.8l-1.4-1.1Zm1.9-4.9c1 1 1.4 2 .9 2.7l-1.4-1.2.5-1.5Z"/>
  <path fill="#FCDCB1" d="M124.5 90.7a5 5 0 0 1-1.4 2.3l-1.6-3.2 3 .9Z"/>
  <path fill="#FBF0C5" d="M123.4 95.2c.2 4.3-.1 8-.9 11.1-.7-3.4-.9-7.2-.6-11l1.5-.1Z"/>
  <path fill="#FDECCD" d="m118 151 .8 16.8c-1.5.3-3 .4-4.7.1-1-3.9-2-7.6-2.5-11.8h.5l-.7-2.7c1.8-1 3.6-1.8 6-2.4h.6Z"/>
  <path fill="#FFFDF4" d="m82.3 162.5.3.4c.6.6 1.3 1 2 1.5l2.2.8c.4.1.8.2 1.1.1l-.4-.1.2-.4.7-1.4h.3l.5 1c0 .3-.2.5-.3.8l-.8 1.3c-.1.1-.3.3-.5.3a6 6 0 0 1-2.9-.5c-1-.4-1.8-1-2.6-1.6a.7.7 0 0 1-.3-.6l.3-1.5s.1-.1.2 0Z"/>
  <path fill="#FFFDF4" d="M83 161.5h.5c.2.1 0 .3 0 .4l-.2 1c0 .2-.3.2-.3.1l-.7-.8.1-.5c.1-.2.4-.2.6-.2Zm-.7 3.5.4.4A10 10 0 0 0 87 167c.2 0 .1.2.2.4 0 .4.2.7.4 1 .4.6 1 1 1.5 1.5.8.5 1.6 1 2.1 1.9.3.4.4.8.4 1.3v.8c.2 0 .2.3.2.4-.2.4-.6.6-.9.8l-1.3.4c-.8 0-1.6 0-2.4-.3a5 5 0 0 1-1.7-1 21 21 0 0 1-3.3-3 6 6 0 0 1-1-1.7 3 3 0 0 1 0-1.2c0-.3 0-.5.2-.7 0-.1.1 0 .2 0l.4-2.4.3-.2Z"/>
  <path fill="#E9E2C4" d="M81 169.5c.2 0 .2.2.2.3l1 1.6 3.2 3 1.6.8c1 .3 2 .4 3 .3.5-.1 1-.4 1.5-.7 0-.1.3 0 .2.2 0 .3-.1.6-.4.8-.6.4-1.3.6-2 .7a6 6 0 0 1-2.7-.4c-.8-.3-1.5-.8-2.2-1.4a10.4 10.4 0 0 1-3.5-4.5v-.6l.1-.1Z"/>
  <path fill="#FFFDF4" d="M114.6 170c1.5.1 3.2 0 4.6-.5.3 0 .4.3.6.5.7.7 1.8.8 2.8 1 1.1.2 2.3.4 3.2 1.2.4.3.6.9.8 1.3.3-.1.4.2.3.4-.2 1-1 1.7-2 2.1a5 5 0 0 1-3 .6 22 22 0 0 1-4.1-1c-1-.3-2-.7-2.6-1.4a3 3 0 0 1-.7-1.5c0-.2.4 0 .2-.2l-.7-2.4c0-.3.4-.1.6-.2Z"/>
  <path fill="#E9E2C4" d="m115.2 174.4.6.4c.9.6 1.9 1 3 1.2l2.8.7c1 .1 2 0 3-.4.7-.3 1.5-.8 2-1.5l.3-.5c0-.2.3-.1.3 0v.7c0 .3-.1.5-.3.7a5 5 0 0 1-2.4 1.7l-1.3.3-2.1-.1a11 11 0 0 1-5.7-2.5l-.4-.5.2-.2Z"/>
  <path fill="#FFFDF4" d="m119 165.5.7.4c.2.1.3.3.3.5v2l-.2.5-.4.2a4 4 0 0 1-1.9.7h-1.4l-2.3-.1-.3-.2a2 2 0 0 1-.5-1 6 6 0 0 1-.2-.7l.2-.2.7.3a8.3 8.3 0 0 0 3.4.2c.5 0 1 0 1.3-.2.3 0 .6-.1.8-.3h-.3v-.4l-.1-1.6s0-.2.2-.1Zm.3.7Zm0 0Z"/>
  <path fill="#FFFDF4" d="m113.5 166.2.2.1a175.5 175.5 0 0 1 .1 1.5 4 4 0 0 1-.5-.2l-.6-.4v-.5a1.6 1.6 0 0 1 .8-.5Z"/>
  <path fill="url(#e)" d="M130.6 122.9a19 19 0 0 1-.5 8.6l-2.6.3c0-2.8 0-5.6-.5-8.6l3.6-.3Z"/>
  <path fill="url(#f)" d="M134.2 119.5c.4 2.5.5 4.9.4 7.2-1 2-2.4 2.9-3.7 4 .6-3.2 0-6.4-.5-9.5l3.8-1.7Z"/>
  <path fill="url(#g)" d="m126.6 98.3 6 9.6-6.4.5-1-3.2a38 38 0 0 0 1.4-6.9Z"/>
  <path fill="url(#h)" d="M130.8 144.2a48.5 48.5 0 0 1-12.5-12c1 3.5 3 7 6 10.4l3 2.4 3.5-.8Z"/>
  <path fill="url(#i)" d="M123.5 151.2c-4.5-6.8-9.5-12.5-12.5-23 0 7.7 3.4 15.3 6.5 23 1.9 0 3.6.4 6 0Z"/>
  <path fill="url(#j)" d="M112.5 132.7a69 69 0 0 0 11.6 16l-1.7.6a74 74 0 0 1-9.9-16.6Z"/>
  <path fill="url(#k)" d="m111.9 156-8-1.7c-.8-8.3 0-16.5-.1-21.6 1.3 8 3 16 8.1 23.2Z"/>
  <path fill="url(#l)" d="M95.7 154.6a95.2 95.2 0 0 0 3.3-19.4 40.3 40.3 0 0 1-8.5 15.7c2 .8 3.8 2 5.2 3.7Z"/>
  <path fill="url(#m)" d="M115.4 126.8c1.1 5 2.7 8.6 5 11.6a27.2 27.2 0 0 1-6.2-11.6h1.2Z"/>
  <path fill="url(#n)" d="M83.3 148.5 95 127.3l1.9.4-7.2 20.4c-2.7-1.1-4.3.1-6.4.4Z"/>
  <path fill="url(#o)" d="m103 124.9-4.8-1.4c0 5.6-2.6 9.9-4.4 14.5 3.6-3.7 7-7.7 9.2-13.1Z"/>
  <path fill="url(#p)" d="M84.2 121.8c-5.2 2.7-9 5.6-12.2 8.6 5.2-2.7 10.3-5.5 16-5.8l-3.8-2.8Z"/>
  <path fill="url(#q)" d="m71.4 122 2.6 6.6a54 54 0 0 1 10-6.7l-1.5-1.5c-4.1 2.4-8.2 4.3-11 1.6Z"/>
  <path fill="#744F38" d="m70.7 115.4.1.1a6.9 6.9 0 0 0 3.6 2.8c1.4.4 3.2.5 6.1 0l.2.5c-3 .4-4.9.3-6.5-.2a7 7 0 0 1-3.3-2.4c.2 4.2 1.2 8.4 3.3 12.3l-.5.2a28.4 28.4 0 0 1-3.3-13c0-.2.1-.3.3-.3Z"/>
  <path fill="#744F38" d="m84 121.7.2.3a49 49 0 0 0-11.8 8.6 22.7 22.7 0 0 1 6.5 4.2c.3 2.7 1.3 5.2 3 7.4l-.3.3a15 15 0 0 1-3.2-7.6 22 22 0 0 0-6.5-4c-.2-.1-.2-.3-.1-.4 3.5-3.8 7.9-6.3 12.3-8.8Z"/>
  <path fill="url(#r)" d="M79.1 137.2a67 67 0 0 1 8.8-11c-4.5 2.1-8 4.4-11.2 6.8l1.9 1.8.5 2.4Z"/>
  <path fill="#FDECCD" d="m93.4 152.4-6 12.9c-1.7-.4-3-1.2-4.2-2 1.3-5 1.4-9.7 3.3-15.6l3.3.2-1 2.3a14 14 0 0 1 4.6 2.2Z"/>
  <path fill="#D7BC85" d="M120.6 121.9a19 19 0 0 0 4.8 9.6c1.2 1.2 2.1 1.1 2.2 0 1-.2 2-1 2.8-1.6l-.4 1.5c-1.2 1.1-2.4 1.8-3.8 1.7-2-.7-2.7-2.2-3.7-3.5a17 17 0 0 1-2.4-6.8l.5-1Z"/>
  <path fill="#D7BC85" d="M118.3 114.1c.3-1 1-1.6 2.3-1.3 3 .4 5 9 6.8 12 1.5 2.7 1 5.2.8 7.4l-.7-.2c.2-3-1.2-4.6-3-9.3-1.4-5.8-2.3-7.3-4-8.8l-1.3.2h-.9Zm7.7-11.6s-.1 1.9.3 2.9c.3.6 1.2 0 1.5.3.4.5 1 2.9 1 2.9l-3 1.2-1.5-1.5 1.6-5.8Zm13.5 8.9c-1.5 4.8-2.8 9.8-4.8 14l-.2-3.5c1.8-2.6 3.3-6.8 5-10.5Zm-5 14.9c-.6 1-2.9 2.8-3.8 2.5l-.4 2.3c1.8-1.4 3.7-2.6 4.2-4.8Z"/>
  <path fill="#D7BC85" d="M126.7 108.2c2.2-.3 4.2-1.3 6.6-.2-3.6 0-4.6.8-6.4 1.3l-.2-1Zm3.1 11.2c.7 2.2 1.5 7.6.6 11.2l1.2-1c.6-4-.7-7.1-1.8-10.2Zm-5.5-25.1c.3 6.7-.4 12.8-3.4 17.6l-1 .5a27.5 27.5 0 0 0 3.5-17.2l.7-.3-.2-.4.4-.2Z"/>
  <path fill="#fff" d="M121.5 89.7 124 95l-2 .5v-.3s.9-.4.9-.8c0-.7-2.4-4.9-2.4-4.9l.9.2Z"/>
  <path fill="#F5BB96" d="M93 153.3c-3.4.2-6 2-7.7 4.6a32 32 0 0 1 2-10.2l2.4.2-1 2.3c1.9.7 3.3 1.4 4.6 2l-.4 1.1Z"/>
  <path fill="#F5BB96" d="M88.2 147.8c-2.3 5.1-2.7 11.3-4 16.3l-1-.8c1.3-5.2 1.8-12 3.4-15.7l1.6.2Z"/>
  <path fill="#744F38" d="M80 146.5a7 7 0 0 1 3.2 2 9 9 0 0 1 6.6-.7l-.1.4a9.3 9.3 0 0 0-6.4.7H83c-.4-.7-1.5-1.4-3.4-2-.1-.1-.2-.3-.1-.4 2.8-6.3 7.3-12.6 11.4-19-3.8 6.4-7.8 12.7-10.9 19Z"/>
  <path fill="#F5BB96" d="M115.1 168.1a94 94 0 0 1-1-8.3c.7-2.6 2.7-5 3.9-8l-.1-.7-.6-.2-6 2.5.8 2.6h-.5c.4 3.9 1.6 8 2.6 12l1 .1Z"/>
  <path fill="#744F38" d="M89 150c2.1.9 4.3 1.4 6.9 4.6 2.2-.3 3-1 8-.6h.1c3.4 1.2 5.7 1.5 7.8 1.8a94 94 0 0 1-4.3-27.8c.5 10 2.2 19.3 4.8 28v.2l-.2.1c-2.2-.3-4.6-.6-8.2-1.8-5-.4-5.7.3-8.1.6h-.1l-.1-.1c-2.7-3.4-4.7-3.7-7-4.6v-.3c2.8-6.2 5.1-13.1 7.5-20-2.1 6.8-4.2 13.7-7 20Z"/>
  <path fill="#D7BC85" d="M119.4 90.6a64 64 0 0 0 2.3 18.2l-.7 1.4c-1.6-6-2.5-13-2.5-21l.9 1.4Zm-12.6-2.7c2.1 3 5.7 1 9.6 4.2-4.3-2-7.4.6-11.6 0a5.4 5.4 0 0 0 1.7-3.6l.8.1-.5-.7Z"/>
  <path fill="#D7BC85" d="M107.8 89c.3-.9 1.4-1.7 2.5-2.4l-1.5-.5-2 1.8 1 1.1Zm-.8 3.1c-1 .2-1.7 1.3-2.6 2h-2l3.1-2.6 1.5.6ZM96.9 94c-.7 1-.8 1.9-.3 2.2 3.4 1.6 4.6 2.2 6 3.2 1.5 1 3.3 5.4 3.8 7.3a13 13 0 0 0-5-5.5c-2-1.1-5.6-1.4-6.5-1.2l-5.3 1c-4 .4-8.3.4-12.5.4-3.6 0-2.8 2.6-2.5 4.3l-.8.2-1.2-3.8c-.6-1.2.5-1.9 2.5-2.3 3.2-.4 11.6.8 15.5.3l3.8-1c1.2-1.3 0-4 2.5-5Zm14.8 12.8a71.2 71.2 0 0 1-8.9 12.4c1.6.6 3.5 1 5.8 1.5l-.6.6-8.5-2.1c4.5-3.5 8.4-7.9 12.2-12.4Zm5.6-2.5c.4 3.2 1.5 5.3 3 7.6l-1.5 2a28.8 28.8 0 0 1-1.5-9.6Zm1.2-15.4c0 5.8.7 11.4 1.5 17a58.7 58.7 0 0 1-2.4-17.3l1 .3Z"/>
  <path fill="#fff" d="M123.6 94c.7-.7 1.4-1.5 2-2.5l.3.4a31 31 0 0 1-2 2.8l-.3-.7Zm2.5-7.7c.8.7 1 1.3.8 1.9l.5.3c.4-1.1-.2-2-1.1-2.6l-.2.4Z"/>
  <path fill="#ED8647" d="M117.8 126a43 43 0 0 1-17.9-5.5c2.1 2.2 3.8 2.4 7 4.2-4.4-1-6.2-1.9-10.2-3l-1.2 1c7.2 2.4 14.5 4 22 4.2l.3-1Z"/>
  <path fill="#E4DBB6" d="M82.2 162.5c-.1 1.6.8 2.7 3.7 3.6.7.2 1.4.4 2.2.3l-.6.6c-1.7 0-3.4-.6-5.4-2.2l-.3-1 .4-1.3Zm31.3 5.2s0 1.3.9 1.4c1.5.1 2.7 0 4.2-.2l1.4-.5v.6l-2.4.9H115l-1.7-.3-.8-2.1.9.2Z"/>
  <path fill="#E4DBB6" d="M113.8 166.6c-.4.2-.7.4-.8.9l1 .4-.2-1.3Zm5.2-1.1c.5.6.5 1.2.5 1.8l-.6.4-.2-2 .2-.2ZM83.6 162c-.4-.2-.8-.1-1.2.2l.8 1 .4-1.3Zm42.4 10.4c.7 2.2-.8 3.3-1.4 3.7 1-.4 1.9-.6 2.5-2.4l-.5-.4-.5-.9Zm-11-2.4 1 3.7c1.4 1.6 3 1.8 4.4 2.6-1.7-.3-3.3-.6-5-1.9-.6-.7-1-1.4-.8-2l-.7-2.6 1 .2Zm-31.6-4.2a9.7 9.7 0 0 1-1.3 3.6c.9 2 2.5 3.6 4 5.2-1.7-1-3.2-2.4-4.7-4.5-.6-1.2-.5-2.1.1-2.7l.6-2.6 1.3 1Zm7.6 5.7c.7 3-2 3.8-3.5 3.8 1.5.2 3.1.5 4.5-1l-.4-.5c.3-1-.4-2.1-.6-2.3Z"/>
  <path fill="#A3E9FC" d="M152 76.4c0 3.3.2 6.7-1 9.3-1.8 2.2-5.2 4.3-7 6.5a35.8 35.8 0 0 0-4.3 6.3 16 16 0 0 1 1-8.2c1.1-2.9 1.6-5.9-.3-9 4-2.4 5-4.7 5.4-7.1 1.8 1 4.6 1 6.2 2.2Z"/>
  <path fill="url(#s)" d="m148.8 77.6 3.3 4.4c-.4 5.1-4.9 6.7-7 9.3 1.4-3.6 2.9-7 3-11.6l.7-2.1Z"/>
  <path fill="url(#t)" d="m142.5 86.4 4.3 2.1 3.4-8.1-6.2-3.2-1.5 9.2Z"/>
  <mask id="v" width="13" height="25" x="139" y="74" maskUnits="userSpaceOnUse" style="mask-type:luminance">
    <use xlink:href="#u"/>
  </mask>
  <g mask="url(#v)">
    <path fill="#6CB5DE" d="M140 98.5c.3-3.4 6.2-8.6 7.5-14.4-.8 5.7-4 9.6-7.5 14.4Z"/>
  </g>
  <mask id="w" width="13" height="25" x="139" y="74" maskUnits="userSpaceOnUse" style="mask-type:luminance">
    <use xlink:href="#u"/>
  </mask>
  <g mask="url(#w)">
    <path fill="#6CB5DE" d="M144.6 76s.3 6-.2 8.8c-.9 4.3-3.6 6.3-4.6 12.6-.8-6 .8-12-.8-16.2-1.1-3.1 4.6-3.6 5.6-5.1Z"/>
  </g>
  <path fill="#A3E9FC" d="m151.9 67.7 2.3 4c1.1 2.6 1.3 5.2 1.4 7.7-.2 3-.6 6.3.6 8.6-1.8-1-2.7-3.1-3.7-5.1-.6-1.4-1.3-2.5-2-3.2-.1-2.7 0-5.4.4-8l1-4Z"/>
  <mask id="y" width="7" height="22" x="150" y="67" maskUnits="userSpaceOnUse" style="mask-type:luminance">
    <use xlink:href="#x"/>
  </mask>
  <g mask="url(#y)">
    <path fill="#6CB5DE" d="M148.7 81.5c-.8-5.2.1-10.1 2.6-14.8l2.3 2.5c-2.5 4-2.3 9-2 13.9l-2.9-1.6Z"/>
  </g>
  <mask id="z" width="7" height="22" x="150" y="67" maskUnits="userSpaceOnUse" style="mask-type:luminance">
    <use xlink:href="#x"/>
  </mask>
  <g mask="url(#z)">
    <path fill="#6CB5DE" d="M155.8 89.9c-4-3-4.2-5.9-6.5-10.4l1-2.1c2.1 2 3 7.5 5.5 10.2V90Z"/>
  </g>
  <path fill="url(#A)" d="M154.5 72.8c1.1 3 1.5 6.1.8 9.3 0 2 0 4 .8 5.8-1.2-.6-2.3-2.4-3.5-4.5-.3-1-1-2.4-2-3.8a26 26 0 0 1 1-10.9l.2-.9 2.7 5Z"/>
  <path fill="#FFF2DB" d="m145 51.7-1.3 13.2c0 1 0 3.3.4 4.4.4 1.7 1.9 3.8 1.6 5.5-.8 3.8-4.4 6.2-7.8 7.7a24.7 24.7 0 0 1-13.3 2c-1.2-.1-2.4-.4-3.4-.6a31.3 31.3 0 0 1-8-9L108.6 64l-4-18.3 30.1-4.5L145 51.7Z"/>
  <path fill="url(#B)" d="m126.7 84.6-.9 2.7-4.5-3.3c1.8.3 3.7.7 5.4.6Z"/>
  <path fill="url(#C)" d="m117.7 56.7 7.8.9 3.9-13.7-8.2-1.6-3.5 14.4Z"/>
  <path fill="url(#D)" d="m115.2 45.1 1 12.5-6.8 5.1L106 49l9.3-3.9Z"/>
  <path fill="url(#E)" d="m135.9 59 5.3-.6-.8-9.8-3.3.8-1.2 9.6Z"/>
  <path fill="url(#F)" d="M106.8 79.8c.3.8.9 1.5 1.7 2a8 8 0 0 0 3.2 1.1c1.2.2 2.6.2 4 0a19.8 19.8 0 0 0 8.3-3c1.2-.9 2.2-1.8 3-2.7.8-1 1.3-2 1.6-2.9.3-1 .2-1.8 0-2.6a5 5 0 0 0-1.8-2 8 8 0 0 0-3.1-1.1c-1.3-.2-2.6-.2-4 0a19.8 19.8 0 0 0-8.4 3c-1.2.9-2.2 1.8-3 2.7-.8 1-1.3 2-1.6 2.9-.2 1-.2 1.8.1 2.6Z" opacity=".2"/>
  <mask id="G" width="42" height="44" x="104" y="41" maskUnits="userSpaceOnUse" style="mask-type:luminance">
    <path fill="#fff" d="m145 51.6-1.3 13.2c0 1 0 3.3.3 4.5.5 1.7 1.9 3.7 1.6 5.4-.8 3.9-4.4 6.3-7.8 7.9a24.6 24.6 0 0 1-13.2 2c-1.2-.1-2.5-.4-3.5-.6a31 31 0 0 1-8-9l-4.4-10.8-4-18.4 30-4.6L145 51.6Z"/>
  </mask>
  <g mask="url(#G)">
    <path fill="url(#H)" d="M130 74c-.2 2.3 1 4.7 3.2 6.6 2.2 1.9 5.4 3 8.7 3.4a16 16 0 0 0 9.3-2 8 8 0 0 0 4.3-6c.2-2.3-1-4.7-3.2-6.6-2.2-1.9-5.4-3-8.8-3.4a16 16 0 0 0-9.2 1.9c-2.6 1.5-4.1 3.7-4.3 6Z" opacity=".2"/>
  </g>
  <path fill="url(#I)" d="m121.7 75.4.7-.2.6-.4.3-.4V74l-.3-.3-.6-.2h-.7a4 4 0 0 0-1.5.2l-.6.4a1 1 0 0 0-.3.4v.4l.3.3.5.2.8.1h.8Z" opacity=".9"/>
  <path fill="url(#J)" d="M143.5 74.3h.7l.5-.3c.1-.1.3-.2.3-.4l.1-.4c0-.1 0-.3-.2-.4l-.3-.3-.6-.3a2.6 2.6 0 0 0-1.3 0l-.5.3a1 1 0 0 0-.3.4l-.1.4.1.4.4.3.6.2.6.1Z" opacity=".9"/>
  <path fill="#FEB8A6" d="m133.4 77 1.7-.1c.5.7.3 1.5 0 2.3-.3.8-.9 1.6-1.5 2.2a9.9 9.9 0 0 1-7.7 2c-.9 0-1.9-.4-2-.8-.3-.6-.6-1.4-.2-3.3.4-1.1 1-2.2 2.2-2.5 1-.3 2.1.2 3 .2.9 0 1.7-.2 2.6-.4l1.9.3Z"/>
  <mask id="K" width="13" height="8" x="123" y="76" maskUnits="userSpaceOnUse" style="mask-type:luminance">
    <path fill="#fff" d="m133.4 77 1.7-.1c.5.7.3 1.5 0 2.3-.4.8-1 1.7-1.5 2.3a9.8 9.8 0 0 1-7.7 2c-.8-.1-1.9-.5-2-.9-.3-.6-.6-1.5-.2-3.4.4-1 1-2 2.2-2.5 1-.2 2.1.3 3 .2.9 0 1.7-.1 2.5-.3l2 .3Z"/>
  </mask>
  <g mask="url(#K)">
    <path fill="#F08B80" d="M134 81.2h2.2l.3-5.2-9.7-.4v2.6c3.5-.3 5.5 1.3 7.1 3Z"/>
  </g>
  <path fill="#F3EFEB" d="M128.3 77a6 6 0 0 1-1.9 2c-.8-.5-1.4-1-1.7-1.5.9-1.1 2.3-.8 3.6-.5Z"/>
  <path fill="#fff" d="m126.9 77.1.5.2h-.4l-.5.4v.5l-.1.6c-.2.2-.5-.1-.7-.3-.3-.1-.6-.3-.6-.6v-.2l.6-.4h.3l.9-.2Zm-3.2-19.8c.5.3 1 .7 1.4 1.3l.8 1.6c.5 1.4.6 2.8.6 4.2 0 1.4 0 2.9-.8 4.1a5 5 0 0 1-1.8 2c-.7.6-1.5 1-2.4 1.4-1.1.4-2.3.9-3.5.8-1 0-1.8-.4-2.6-.9s-1.5-1-2.1-1.7c-.8-.8-1.5-1.6-2-2.5a6 6 0 0 1-.4-5.9 7 7 0 0 1 1.7-2.4 9.9 9.9 0 0 1 9.2-2.6 6 6 0 0 1 1.9.6Zm19.7 3.4a13 13 0 0 1 0 5.6c-.3 2-.8 3.5-1.3 4.8-1.2 2.7-5.2 1.1-5.8-1a50 50 0 0 1-1.6-8.4c1-3.5 3.3-3.4 5.6-3.2 2 .5 2.7 1.4 3.1 2.2Z"/>
  <path fill="url(#L)" stroke="#744F38" stroke-width=".7" d="M120.6 56.8c.7.6 1.3 1.4 1.6 2.3.3.8.5 1.8.5 2.7a19.5 19.5 0 0 1-.3 5.3c-.2 1.1-.4 2.3-.9 3.3 0 .3-.2.5-.3.7-.2.3-.6.5-1 .7a6.6 6.6 0 0 1-5 .4l-1.5-1.2a13 13 0 0 1-2.5-3.6 8 8 0 0 1-1.1-4.2c0-.6.2-1.2.5-1.8 3-3.4 6.2-5.6 10-4.6Z"/>
  <path fill="url(#M)" stroke="#744F38" stroke-width=".7" d="M139.1 58.2c.5 1 1 2.2 1.2 3.3a25.5 25.5 0 0 1 .5 7.6 9 9 0 0 1-.6 2.9l-.3.3h-.6l-.6-.1a4 4 0 0 1-1.5-1c-.5-.6-.7-1.3-.8-2l-.7-3.3-.4-2.6v-2.5l.7-1.4 3.1-1.2Z"/>
  <path fill="#9A5103" d="M121.2 60.2c.3 1.4 0 2.8 0 4.2-.3 1.3-.4 2.7-.8 4-.2.6-.5 1.3-1 1.7a3 3 0 0 1-1.8.9 4 4 0 0 1-2.4-.6 6.5 6.5 0 0 1-2-2c-.6-.8-1-1.7-1.4-2.6a21.2 21.2 0 0 1-1.2-4.1c0-2.4 7.6-6.4 9.4-4.4.6.8 1 1.9 1.2 3Zm17.4-1.6a25 25 0 0 1 1.3 7 15.3 15.3 0 0 1-.6 5.3l-.3.3h-.5c-.2 0-.4 0-.5-.2-.7-.5-1-1.3-1.4-2a26.6 26.6 0 0 1-1.2-9l2.4-1.5h.8Z"/>
  <path fill="url(#N)" d="M112 64.9a9 9 0 0 0 2.2 5 4.8 4.8 0 0 0 4 1.6 4.7 4.7 0 0 0 3.5-2.6c.8-1.5 1.1-3.4.9-5.3a9 9 0 0 0-2.2-5 4.8 4.8 0 0 0-4-1.7 4.7 4.7 0 0 0-3.5 2.6 8.9 8.9 0 0 0-1 5.4Z" opacity=".5"/>
  <path fill="url(#O)" d="M135.1 65c.2 1.7.7 3.4 1.4 4.6.7 1.2 1.5 1.9 2.2 1.8.8-.1 1.4-1 1.7-2.3.4-1.3.4-3 .2-4.9-.2-1.8-.7-3.5-1.4-4.7-.7-1.2-1.5-1.8-2.2-1.7-.8 0-1.4.9-1.7 2.2-.4 1.3-.4 3.1-.2 5Z" opacity=".5"/>
  <path fill="url(#P)" d="m124.7 58 1.9 6-13.3 6.7c-2-2-3-5-3.3-8.6l5-4.8 5.8-1 4 1.8Z"/>
  <path fill="url(#Q)" d="m141.5 70.4 1-.4s1.4-5.2 1.3-8c-.8-1.9-1.4-3.7-5-3.7-.7 0-1.4.4-1.9.8l-2 4.8s0 .8.4 2.9c.5 0 1 0 1.4-.5.7-1.6 2.3-2 3.1-1.9 1 .3 1.5.7 1.8 2.4.2 1.2-.1 3.6-.1 3.6Z"/>
  <path fill="url(#R)" d="m119.6 61.9.7.8.8.5c.3.2.6.2.9.2.2 0 .5 0 .7-.2.2 0 .4-.3.5-.5l.3-.8-.1-1a3.8 3.8 0 0 0-2-2.4 2 2 0 0 0-.8-.1l-.7.1-.6.6a2 2 0 0 0-.2.8l.1 1c0 .3.2.7.4 1Z"/>
  <path fill="url(#S)" d="M114.5 72c.1.2.3.3.5.3l.4.1h.5a.6.6 0 0 0 .3-.7v-.4l-.4-.5a2.2 2.2 0 0 0-.9-.6h-.5a1 1 0 0 0-.4 0 .6.6 0 0 0-.4.6l.1.5.3.4.5.4Z"/>
  <path fill="url(#T)" d="m138.8 62.7.3.7.4.5.6.2a1 1 0 0 0 .9-.3l.3-.6v-.6a2.8 2.8 0 0 0-.4-1.4 2 2 0 0 0-.4-.5l-.6-.3a1 1 0 0 0-.9.4l-.3.5v1.4Z"/>
  <path fill="url(#U)" d="M136.4 70.7c0 .2.2.3.3.4l.3.3.4.1a.6.6 0 0 0 .5-.3l.2-.4v-.4a1.9 1.9 0 0 0-.5-.9l-.3-.3a.9.9 0 0 0-.4 0 .6.6 0 0 0-.6.2v1.3Z"/>
  <path fill="#A3E9FC" d="M107.7 59.5c1 4.6 2.4 9 4.4 13.5 2.7 5 6.4 9 11 12.2a30 30 0 0 1 12.6 14.3 60 60 0 0 0-11.7-9 179 179 0 0 0-10.4-2.7 42 42 0 0 1-8.6-3.7 20 20 0 0 1-6.6-8.1c2.3 5.9 5.7 9.7 9.5 13-7-2.6-11.8-8.9-13-15.4-.8-5.5-.8-11 1-16.7l11.8 2.6Z"/>
  <path fill="url(#V)" d="m114.6 77-2.6 6.5c3 3 8 4.1 12.4 7.2 4 2.6 7.7 5.6 11.2 8.9-1.5-4.8-5-8.7-9.9-12.4-1.4-1-2.6-2.1-4.1-3.1a28.2 28.2 0 0 1-7-7Z"/>
  <path fill="url(#W)" d="M106.4 72.3c2.1 7.9 4 9.5 6 11.6 5.3 3.3 8.5 4.6 11.5 6.5-5.6-1.5-10.9-3-15.8-4.6a19.3 19.3 0 0 1-9.9-10.1c-1-2.8-1.3-4.7-1.6-6.7l9.8 3.3Z"/>
  <path fill="url(#X)" d="M96.5 68.3c2.8 14.6 7.4 16.7 11.7 21-8.4-3.6-13.7-10.1-13.9-21.4l2.2.4Z"/>
  <mask id="Y" width="42" height="44" x="94" y="56" maskUnits="userSpaceOnUse" style="mask-type:luminance">
    <path fill="#fff" d="M107.6 59.4a70 70 0 0 0 4.5 13.6 34 34 0 0 0 11 12.2 30.4 30.4 0 0 1 12.6 14.4 68 68 0 0 0-11.7-9.1l-10.4-2.7c-3.2-1-6-2.2-8.5-3.8-2.4-1.6-4.6-4-6.6-8 2.2 5.9 5.7 9.7 9.4 13A21 21 0 0 1 95 73.7c-.9-5.6-.9-11.1.8-16.8l11.8 2.6Z"/>
  </mask>
  <g mask="url(#Y)">
    <path fill="#6CB5DE" d="M106.3 72c2 7 2.5 10.7 8 14.2 2.7 1.6 6.3 3 9 4.7 5 3.4 12.1 10 12.1 10l-18.1-11.4c-3.1-1.6-8.8-3-13.4-7.6a29.8 29.8 0 0 1-7.6-14.3c1.2 6.8 2.6 13.8 10.7 20.4l6 4.6c-2.8-1.8-5-2.8-8.4-5.5-5.5-4-9.7-12.8-9.4-20.6.2-5 1.8-11.3 1.8-11.3l-3.3.4-2.5 18.2 9.4 15.9 23.7 9.7 14 3.8s-3.2-5.1-7.5-8.8a46 46 0 0 0-6.4-4.4c-3.1-1.9-5-2.1-8.7-4.7-4-2.8-7.1-6.3-9.4-13.2Z"/>
  </g>
  <path fill="#6CB5DE" d="M123.5 89.6a55 55 0 0 1-10.8-9.4c1.4 2.4 5.6 6.7 7.9 8.2l2.9 1.2ZM99.3 59.8c.3 11.2 4.3 18.5 6.8 20.6a35 35 0 0 1-5.3-16l-1.5-4.6Z"/>
  <path fill="#A3E9FC" d="M151.9 67.7a42 42 0 0 1 5 11.9c1.3 3.3 2.6 6.7 7 10.3-4.1-8.8-1.4-11.2-2-21-.6-3.7-1.4-7.4-4.3-11.5a14 14 0 0 0 12.3 3c-2.7-1-5-2.2-6.1-3.8 2.9.7 5.2.5 7-.5-6.6-.6-9.6-5.8-13.6-9.8 1.9-3.8 3.6-7.8 4.2-13.4l-2.2-1 2.3-1.6-.5-5c0-1.1-.6-1.7-2.4-1.4a47 47 0 0 0-11.8 3.6l-9.3 3.2a41.4 41.4 0 0 0-31-.7c-3-.3-6.3-2.4-9.5-4a26.6 26.6 0 0 0-12.8-1.7c-1 .1-1 1-1 1.9.3 3.4 1.2 7 2.8 10.7 1 3.4 1.9 6.6 2.2 9.7-2.8 5-4.8 10.3-5.5 15.9 1.9-2.6 3.8-4.4 5.7-5.3-.5 3.1 0 8.1-.6 12.3-.6 3.7-2.4 6-5 8.8 5.3-1.6 7.7-4.8 9.7-8.3 0 3.5-.9 7-3.3 10.9.9-.4 1.8-.6 2.6-1.3 0 4.1.7 6.5 2 8.2 0-2.8 2.2-9 3.8-17.3.8-3.4 1-9.8 1.2-14.4 2 11.8 5.3 15.5 7.6 19.7-1-3.7-1.5-7.4-1.8-11.2 1.3 4.5 3.5 8.6 6.4 12.6-2.1-12-.8-21.8 3-30a48 48 0 0 0 2.2 18.5 64 64 0 0 1 9.8-21 25.6 25.6 0 0 0 4.1 25l2.3-8.5c.3 1.4.5 3.3.2 6.4a36.5 36.5 0 0 0 6.4-17.4c1.4 4.3 2.2 8.5 2 12.6l1.7-3.2a5 5 0 0 1 1 3.8c0 1.8 0 3.1.3 6.1 2.6 4.4 2 6.6-.4 9a25 25 0 0 0 8.9 10.3 22.7 22.7 0 0 1-3.2-6l2.2 2.9c-2-8.7-1-13.6.4-18Z"/>
  <mask id="aa" width="89" height="68" x="82" y="23" maskUnits="userSpaceOnUse" style="mask-type:luminance">
    <use xlink:href="#Z"/>
  </mask>
  <g mask="url(#aa)">
    <path fill="#6CB5DE" d="M164.1 90c-5.9-4.4-7-17.2-11-22.7-.1-.2.2-7.4 0-7.6-.1-.2 0 2.2-.9 6.5l-.8 3.2 3.6 9.2 6.6 12.8 2.5-1.3Z"/>
  </g>
  <mask id="ab" width="89" height="68" x="82" y="23" maskUnits="userSpaceOnUse" style="mask-type:luminance">
    <use xlink:href="#Z"/>
  </mask>
  <g mask="url(#ab)">
    <path fill="#6CB5DE" d="M150 48.7a60 60 0 0 1 7.6 8.9c4.4 2.7 7.2 3.8 11.5 2.8a27 27 0 0 1-10.5-3.8c-1-.7-6.5-6.1-8.5-8Z"/>
  </g>
  <mask id="ac" width="89" height="68" x="82" y="23" maskUnits="userSpaceOnUse" style="mask-type:luminance">
    <use xlink:href="#Z"/>
  </mask>
  <g mask="url(#ac)">
    <path fill="#6CB5DE" d="m137.5 30.7 3.7 1.8a67 67 0 0 0 9-4.7 24 24 0 0 1 10.3-3.9c-5.8-1.4-10.7.9-15.9 2.9-1.1.4-5.9 3.3-7.1 4Z"/>
  </g>
  <mask id="ad" width="89" height="68" x="82" y="23" maskUnits="userSpaceOnUse" style="mask-type:luminance">
    <use xlink:href="#Z"/>
  </mask>
  <g mask="url(#ad)">
    <path fill="#6CB5DE" d="M129.2 45.8c-1 2.8-3.1 12.6.2 25l1.8-2.2c-4-13.4-2.7-20-2-22.8Z"/>
  </g>
  <mask id="ae" width="89" height="68" x="82" y="23" maskUnits="userSpaceOnUse" style="mask-type:luminance">
    <use xlink:href="#Z"/>
  </mask>
  <g mask="url(#ae)">
    <path fill="#6CB5DE" d="M128.8 39c-3.7 5.3-8.6 22.8.6 31.7l1.8-2c-8.6-8.2-4.9-25.7-2.4-29.8Z"/>
  </g>
  <mask id="af" width="89" height="68" x="82" y="23" maskUnits="userSpaceOnUse" style="mask-type:luminance">
    <use xlink:href="#Z"/>
  </mask>
  <g mask="url(#af)">
    <path fill="#6CB5DE" d="M134.3 45.4c.2 7.5-.8 12-2.4 17.9l.7 1a40.5 40.5 0 0 0 1.7-18.9Z"/>
  </g>
  <mask id="ag" width="89" height="68" x="82" y="23" maskUnits="userSpaceOnUse" style="mask-type:luminance">
    <use xlink:href="#Z"/>
  </mask>
  <g mask="url(#ag)">
    <path fill="#6CB5DE" d="M133.8 58c-.8 3.9-2.8 8.4-1.8 11.2l1.3-.5c0-3.8 0-7.2.5-10.6Z"/>
  </g>
  <mask id="ah" width="89" height="68" x="82" y="23" maskUnits="userSpaceOnUse" style="mask-type:luminance">
    <use xlink:href="#Z"/>
  </mask>
  <g mask="url(#ah)">
    <path fill="#6CB5DE" d="M155.5 60.8c2.7 5.6 5 11.2 6.1 20l1 1.5c-.6-12.1-4.3-16-7.1-21.5Z"/>
  </g>
  <mask id="ai" width="89" height="68" x="82" y="23" maskUnits="userSpaceOnUse" style="mask-type:luminance">
    <use xlink:href="#Z"/>
  </mask>
  <g mask="url(#ai)">
    <path fill="#6CB5DE" d="M140 67.3c.4-2.2 3.3-7-.6-19.5l-.4 2.7c1.4 11.2 1 14 1 16.8Z"/>
  </g>
  <mask id="aj" width="89" height="68" x="82" y="23" maskUnits="userSpaceOnUse" style="mask-type:luminance">
    <use xlink:href="#Z"/>
  </mask>
  <g mask="url(#aj)">
    <path fill="#6CB5DE" d="M152.3 88.6c-2.1-2-5-4.6-7.7-11.1l-1 1c1.4 11 6.5 9.8 8.7 10.1Z"/>
  </g>
  <mask id="ak" width="89" height="68" x="82" y="23" maskUnits="userSpaceOnUse" style="mask-type:luminance">
    <use xlink:href="#Z"/>
  </mask>
  <g mask="url(#ak)">
    <path fill="#6CB5DE" d="M150.3 84c-4.5-15.1-.7-15.5-1.4-23.5.3 8.1-6.6 9.2 1.4 23.5Z"/>
  </g>
  <path fill="url(#al)" d="M139.7 45a45.4 45.4 0 0 1-7 22.8c0-2 0-4.1-.3-6.3a47.6 47.6 0 0 0 1.4-21.2l5.9 4.7Z"/>
  <mask id="am" width="89" height="68" x="82" y="23" maskUnits="userSpaceOnUse" style="mask-type:luminance">
    <use xlink:href="#Z"/>
  </mask>
  <g mask="url(#am)">
    <path fill="#6CB5DE" d="M84.8 25c-2.2-.2-1.7 1.2-1.5 2.8.7 6.4 3.6 9 5 18.7l1.6-2.7a49 49 0 0 0-3.8-11.3c-2.4-5.1-2-6.6-1.3-7.5Z"/>
  </g>
  <mask id="an" width="89" height="68" x="82" y="23" maskUnits="userSpaceOnUse" style="mask-type:luminance">
    <use xlink:href="#Z"/>
  </mask>
  <g mask="url(#an)">
    <path fill="#6CB5DE" d="M100.8 38.1c-6 10.4-4.5 23.8 3.4 38.8l2-1.6c-5.3-10.1-9.7-27.5-5.4-37.2Z"/>
  </g>
  <mask id="ao" width="89" height="68" x="82" y="23" maskUnits="userSpaceOnUse" style="mask-type:luminance">
    <use xlink:href="#Z"/>
  </mask>
  <g mask="url(#ao)">
    <path fill="#6CB5DE" d="M103 44.1c-2.5 10.9-2.7 17.7 6.2 33.4l1.4-.7c-5.8-12.2-9-20.5-7.6-32.7Z"/>
  </g>
  <mask id="ap" width="89" height="68" x="82" y="23" maskUnits="userSpaceOnUse" style="mask-type:luminance">
    <use xlink:href="#Z"/>
  </mask>
  <g mask="url(#ap)">
    <path fill="#6CB5DE" d="M120.8 38.4c-4.3 9-6 11.8-5.6 27.9l1.2-.5c-.2-11.8.5-16.8 4.4-27.4Z"/>
  </g>
  <mask id="aq" width="89" height="68" x="82" y="23" maskUnits="userSpaceOnUse" style="mask-type:luminance">
    <use xlink:href="#Z"/>
  </mask>
  <g mask="url(#aq)">
    <path fill="#6CB5DE" d="M115 38.3a50.6 50.6 0 0 0-1.8 26.9l3.2.6a79 79 0 0 1-1.3-27.5Z"/>
  </g>
  <mask id="ar" width="89" height="68" x="82" y="23" maskUnits="userSpaceOnUse" style="mask-type:luminance">
    <use xlink:href="#Z"/>
  </mask>
  <g mask="url(#ar)">
    <path fill="#6CB5DE" d="M92.3 44.8c-7.5 18.4-8.8 11.7-9.7 19.6l4.5 7.5c3.2-7.7.6-15.7 5.2-27.1Z"/>
  </g>
  <mask id="as" width="89" height="68" x="82" y="23" maskUnits="userSpaceOnUse" style="mask-type:luminance">
    <use xlink:href="#Z"/>
  </mask>
  <g mask="url(#as)">
    <path fill="#6CB5DE" d="M92.9 60.6c.3 5.1-1.9 13.4-10.7 18l2.8 3.5c9.2 2.7 8.6-17 7.9-21.5Z"/>
  </g>
  <mask id="at" width="89" height="68" x="82" y="23" maskUnits="userSpaceOnUse" style="mask-type:luminance">
    <use xlink:href="#Z"/>
  </mask>
  <g mask="url(#at)">
    <path fill="#6CB5DE" d="M94.9 48.2c-.8 14.5-2 22-4.4 37.5l3.1 2.1c-2.4-9.2 3.5-16.6 1.3-39.6Z"/>
  </g>
  <mask id="au" width="89" height="68" x="82" y="23" maskUnits="userSpaceOnUse" style="mask-type:luminance">
    <use xlink:href="#Z"/>
  </mask>
  <g mask="url(#au)">
    <path fill="#6CB5DE" d="M96.5 61.6c-.2 7-1.4 13.8-1.7 20.7l.6-2.3c.7-4 1.4-11.4 1-18.4Z"/>
  </g>
  <path fill="url(#av)" d="M144.5 34.5c3.7 2.5 8.4 7.8 12.7 12 2.1-4.2 3.4-8.7 4.2-13.5-.4-.4-1.1-.8-2.4-1.1a8 8 0 0 1 2.6-1.6l-.6-4.5-3.7 1.2c-1.8 2.4-4.3 3.3-6.7 4.5-2.5 1-4.3 2-6.1 3Z"/>
  <path fill="url(#aw)" d="M102.7 31.7c-3.8 1.8-6.6 4.8-9.4 7.7-1.8-3.5-2-5.7-7.2-12.2-.2-.6-.3-1 .1-1.2l3-1c2 .4 4.5 1 7.2 1.9l6.3 2.9v2Z"/>
  <path fill="url(#ax)" d="M134.3 45.7c.3 9.3-2 16.7-4.2 24.2a26.4 26.4 0 0 1-4.2-25.3l8.4 1.1Z"/>
  <path fill="url(#ay)" d="M164 90.1a25.8 25.8 0 0 1-7.9-13c-.8-3-2.2-6.4-4.3-9.4a78 78 0 0 0 1.7-15.4 32.5 32.5 0 0 1 8.2 14.5c.7 5 .2 7.7-.1 11.4-.4 4.5.4 7.9 2.3 12Z"/>
  <path fill="url(#az)" d="M125.5 45.5a65 65 0 0 0-9.2 20.3c-2.5-8-3-16-2-23.7l11.2 3.4Z"/>
  <path fill="url(#aA)" d="M111.4 54.6a50.5 50.5 0 0 0-.4 22.5c-4.4-6-7.8-13.3-8.7-23.3l9.2.8Z"/>
  <path fill="url(#aB)" d="M102.3 53.6c0 3.7 1 7.5 2.3 11.4l1.7 10.8A51 51 0 0 1 98.2 53l4 .6Z"/>
  <path fill="url(#aC)" d="M97 73.3A74.6 74.6 0 0 0 98.7 56a50.4 50.4 0 0 0 6.6 17.8l-8.1-.6Z"/>
  <path fill="url(#aD)" d="M82.5 78.4c4.3-1 7.6-3.9 10-8.4a29 29 0 0 1 .3-6.9L88 59.8c.6 12.7-2.3 16-5.5 18.6Z"/>
  <path fill="url(#aE)" d="M98.4 64.8c-.4 5.3-1.6 10-2.9 14.8-.7 2.6-1.4 5-1.7 8.3-1.3-1.5-2.3-4.1-1.7-11 1-4 1.7-7.9 1.8-12.8l4.5.7Z"/>
  <path fill="url(#aF)" d="M144.7 34.5c3.6-2.2 8.4-4.3 10.7-4.3a7 7 0 0 0-2.6 2c1.8-.2 3 .2 4.2.6-1.7.3-3.3.6-4.5 1.8 1.4.2 2.9 1 4.3 1.6-1.7.4-3.5.6-5 2.1 1.4.7 1.6 2 2 3-1-.6-1.8-1.4-3-1.3a55 55 0 0 0-6.1-5.5Z"/>
  <mask id="aH" width="13" height="12" x="144" y="30" maskUnits="userSpaceOnUse" style="mask-type:luminance">
    <use xlink:href="#aG"/>
  </mask>
  <g mask="url(#aH)">
    <path fill="#E1E1E1" d="m155.5 30.3-1.6 1.3-3.5 1.5c1.1-1.1 3.6-2.4 5-2.8Z"/>
  </g>
  <mask id="aI" width="13" height="12" x="144" y="30" maskUnits="userSpaceOnUse" style="mask-type:luminance">
    <use xlink:href="#aG"/>
  </mask>
  <g mask="url(#aI)">
    <path fill="#E1E1E1" d="m156.6 32.9-2.2 1-3.7 1.4c1.7-2 4.3-2.3 5.9-2.4Z"/>
  </g>
  <mask id="aJ" width="13" height="12" x="144" y="30" maskUnits="userSpaceOnUse" style="mask-type:luminance">
    <use xlink:href="#aG"/>
  </mask>
  <g mask="url(#aJ)">
    <path fill="#E1E1E1" d="m155.9 36.4-3.4 2.3-1.6-.4a8 8 0 0 1 5-1.9Z"/>
  </g>
  <mask id="aK" width="13" height="12" x="144" y="30" maskUnits="userSpaceOnUse" style="mask-type:luminance">
    <use xlink:href="#aG"/>
  </mask>
  <g mask="url(#aK)">
    <path fill="#E1E1E1" d="m153.3 41-.8.3c-.6-.5-.8-.8-3-1.7 1.8-.4 3 .4 3.8 1.4Z"/>
  </g>
  <path fill="#fff" d="M93 32.5a5 5 0 0 1 5-1.7c-1.7.6-3.2 1.5-3.9 4l-1-2.3Z"/>
  <path fill="url(#aL)" d="M93.1 39.5c-1.3-3-1.5-4.8-4-8-.4-2.6 2.3-4.1 3.5-4.6a2.7 2.7 0 0 0-1.4 3 7 7 0 0 1 5.5-.8c-1.7 1.3-2 1.7-1.6 3.8 2.5-1.3 3.7-.3 5.2.5-2.2 0-3 .4-4.4 1.9 1-.1 2 .3 2.6 1.3-1 0-2-.4-2.9.3l-2.5 2.6Z"/>
  <mask id="aN" width="12" height="14" x="89" y="26" maskUnits="userSpaceOnUse" style="mask-type:luminance">
    <use xlink:href="#aM"/>
  </mask>
  <g mask="url(#aN)">
    <path fill="#E1E1E1" d="M92.6 27a5 5 0 0 0-1.3 2.8l-.6.5c.2-1.1 0-2.2 2-3.4Z"/>
  </g>
  <mask id="aO" width="12" height="14" x="89" y="26" maskUnits="userSpaceOnUse" style="mask-type:luminance">
    <use xlink:href="#aM"/>
  </mask>
  <g mask="url(#aO)">
    <path fill="#E1E1E1" d="M96.7 29.2c-1 .6-1.8 2.4-1.6 3.7l-.8.8c-.3-2.5.2-3.7 2.4-4.5Z"/>
  </g>
  <mask id="aP" width="12" height="14" x="89" y="26" maskUnits="userSpaceOnUse" style="mask-type:luminance">
    <use xlink:href="#aM"/>
  </mask>
  <g mask="url(#aP)">
    <path fill="#E1E1E1" d="M99.9 33.4c-1.7.2-3.1 1.5-4 1.8l-.6.3c.1-1.5 2.9-2 4.6-2Z"/>
  </g>
  <mask id="aQ" width="12" height="14" x="89" y="26" maskUnits="userSpaceOnUse" style="mask-type:luminance">
    <use xlink:href="#aM"/>
  </mask>
  <g mask="url(#aQ)">
    <path fill="#E1E1E1" d="M98.4 36.6c-1 0-2.5.7-3.1.7l-.6.6c.2-1 1.2-2 3.7-1.3Z"/>
  </g>
  <path fill="#222A46" d="M127.7 59a11 11 0 0 0-6.3-3.1 12 12 0 0 0-9 2.7c-2 1.7-3.5 4-4.6 6.6l-.7 2c.5-.9 1-1.7 1.6-2.4l1.2-1.6c0 .8.1 1.5.3 2.3.2 1.1 1 2.2 1.6 3.2a15 15 0 0 1-.4-4.2c0-1 .2-2 .6-2.9a6.8 6.8 0 0 1 3.2-3.2c2-1 4.3-1.2 6.5-.9 2.3.4 4.5 1.5 6.3 3a24.9 24.9 0 0 0-3.4-2.7 19.1 19.1 0 0 1 3.1 1.1Zm.1-2.8a9.2 9.2 0 0 0-6.8-2.4 26.6 26.6 0 0 1 6.8 2.4Zm.8-8.7a18 18 0 0 0-21 8 21 21 0 0 1 21-8Zm6.8 10.5a25.8 25.8 0 0 1 5.7-2.3 7.2 7.2 0 0 0-5.7 2.4Z"/>
  <path fill="#396BA4" d="M143.5 51.8c1.8 1.3 3.3 3 4.3 5a11 11 0 0 0-4-5.5c-1.8-1.4-4.1-2-6.5-2 2.3.3 4.4 1.1 6.2 2.5Z"/>
  <path fill="#222A46" d="M133.4 61.7a7.1 7.1 0 0 1 2.7-3 6.2 6.2 0 0 1 4-1c1.2.2 2.3.8 3 1.8.7.9 1 2 1 3.3 0 1 0 2-.2 3a24 24 0 0 1-.5 2.3 14.6 14.6 0 0 0 .1-2.3v1c-.1.4-.4 2.4-1.5 4.6.8-2.1 1.2-5 1.3-6 0-.7.2-1.5.1-2.3a4 4 0 0 0-.5-2.2 4 4 0 0 0-1.6-1.6c-.7-.4-1.5-.6-2.3-.5-.7 0-1.4.2-2 .6a5.4 5.4 0 0 0-2.5 3.9 6.7 6.7 0 0 1 .5-3 5.4 5.4 0 0 0-1.6 1.4Z"/>
  <mask id="aS" width="21" height="14" x="107" y="55" maskUnits="userSpaceOnUse" style="mask-type:luminance">
    <use xlink:href="#aR"/>
  </mask>
  <g mask="url(#aS)">
    <path fill="#396BA4" d="M120.3 54.4 118 60l-3.2-.2-.9-4.8 6.3-.7Z"/>
  </g>
  <mask id="aT" width="21" height="14" x="107" y="55" maskUnits="userSpaceOnUse" style="mask-type:luminance">
    <use xlink:href="#aR"/>
  </mask>
  <g mask="url(#aT)">
    <path fill="#396BA4" d="m129.2 57.8-.8 3.8-3.5-2.3-.4-3.2 4.7 1.7Z"/>
  </g>
  <mask id="aU" width="21" height="14" x="107" y="55" maskUnits="userSpaceOnUse" style="mask-type:luminance">
    <use xlink:href="#aR"/>
  </mask>
  <g mask="url(#aU)">
    <path fill="#396BA4" d="m105.7 61 4.4-.3-.3 5.2-2.8 1.7-1.3-6.6Z"/>
  </g>
  <mask id="aV" width="7" height="4" x="121" y="53" maskUnits="userSpaceOnUse" style="mask-type:luminance">
    <path fill="#fff" d="M127.8 56.2a9.3 9.3 0 0 0-6.8-2.4 26.6 26.6 0 0 1 6.8 2.4Z"/>
  </mask>
  <g mask="url(#aV)">
    <path fill="#396BA4" d="m129.7 57-5.2-1.4-.2-2.4 5.4 3.7Z"/>
  </g>
  <mask id="aW" width="22" height="10" x="107" y="46" maskUnits="userSpaceOnUse" style="mask-type:luminance">
    <path fill="#fff" d="M128.6 47.5a17.7 17.7 0 0 0-21 8 20.8 20.8 0 0 1 21-8Z"/>
  </mask>
  <g mask="url(#aW)">
    <path fill="#396BA4" d="m125.7 45.1-.8 3.2h4.2l.1-4.4-18.5 3.5-4.6 9.2 6.4-5 1-3.6h.6l-.2 2.9L124 48l1.7-2.9Z"/>
  </g>
  <mask id="aX" width="7" height="4" x="135" y="55" maskUnits="userSpaceOnUse" style="mask-type:luminance">
    <path fill="#fff" d="M135.4 58a25.4 25.4 0 0 1 5.7-2.3 7.1 7.1 0 0 0-5.7 2.4Z"/>
  </mask>
  <g mask="url(#aX)">
    <path fill="#396BA4" d="m137.5 57.4.5-1.7 2.4-.5.1 1.2 1.3-.3-.3-1.1-6.2 1.1-.4 2.3 2.6-1Z"/>
  </g>
  <mask id="aY" width="12" height="15" x="133" y="57" maskUnits="userSpaceOnUse" style="mask-type:luminance">
    <path fill="#fff" d="M133.4 61.7a7 7 0 0 1 2.7-3 6 6 0 0 1 4-1c1.2.2 2.3.8 3 1.8.7 1 1 2.1 1 3.3 0 1 0 2-.2 3l-.5 2.3a14.7 14.7 0 0 0 .1-2.3v1c-.2.5-.4 2.4-1.4 4.6.7-2 1.1-5 1.2-6l.1-2.3c0-.8-.2-1.5-.5-2.2a4 4 0 0 0-1.7-1.7 4 4 0 0 0-2.2-.4c-.7 0-1.4.2-2 .6a5.4 5.4 0 0 0-2.5 3.9 6.7 6.7 0 0 1 .5-3 5.4 5.4 0 0 0-1.6 1.4Z"/>
  </mask>
  <g mask="url(#aY)">
    <path fill="#396BA4" d="m140.6 57 .3 3.3 1.4.3.9-2.2-2.7-1.9-6 2-1.8 3.1 2 2.8 2-4.5.7-2.1 3.2-.7Z"/>
  </g>
  <path fill="#744F38" d="M123.6 95.3c0 4 .3 7.2-.7 10.7a22 22 0 0 1-2.7 6.2c-.4.2-.8.5-1 .8a22 22 0 0 0 3.2-7.2c1-3.4.9-6.5.8-10.4l.4-.1Z"/>
  <path fill="#396BA4" d="M140.6 81.1c1.1 2 1.5 4.3 1.1 6.5-.3 1.5-1 3-1.3 4.4-.6 1.9-.7 3.8-.5 5.8 1.7-3.2 4-6.1 6.8-8.4 1-1 2.1-1.7 3-2.7l.4.4a33.3 33.3 0 0 0-10.4 12c-.6-2.3-.4-5 .2-7.2l1.4-4.4c.3-2.1 0-4.3-1-6.2l.3-.2Zm11.2.5.4.7c-.1 1-.3 1.9-.7 2.7l-.2-.8c.3-.8.4-1.7.5-2.6ZM151 85l.3.4v.1a7 7 0 0 1-.4.6l-.3-.5.2-.3.2-.3Z"/>
  <path fill="#396BA4" d="M152.6 65.5c-.5 2.3-1.2 4.5-1.6 6.8a33 33 0 0 0-.1 7.7l.9 6.3a20.8 20.8 0 0 1-5-10.2 39 39 0 0 0 4.4 8.9 43.3 43.3 0 0 1-.7-12.8c.4-2.3 1.2-4.5 1.6-6.8.8-3.8 1-7.7.6-11.5a33 33 0 0 1 0 11.6Z"/>
  <path fill="#396BA4" d="M157.8 57.4a24.2 24.2 0 0 1 4.5 13.6c0 3.3-.6 6.6-.5 9.9 0 3.2 1.1 6.7 2.6 9.7a22 22 0 0 1-7.1-9.4c-.9-2-1.4-4.2-2.1-6.3a30 30 0 0 0-3.4-7l.2-.4c1.5 2.2 2.7 4.7 3.6 7.2.8 2.1 1.3 4.3 2 6.3a23 23 0 0 0 5.8 8.3 21 21 0 0 1-2.1-8.4c0-3.4.6-6.6.6-9.9a23.8 23.8 0 0 0-4.5-13.4 42.2 42.2 0 0 0-5-6.5c1.7 1.6 3.7 3.8 5.4 6.3Z"/>
  <path fill="#396BA4" d="m153.6 70.6 1.7 4c.5 1.9.6 3.9.5 5.9-.1 1.4-.4 2.8-.3 4.2.1 1.3.7 2.7 1.2 4a10 10 0 0 1-3.2-3.3l-1.9-3.8-1-1.4v-.9l1.4 2.1 1.9 3.8c.5.8 1.2 1.5 1.9 2.2a6 6 0 0 1-.7-2.7c-.1-1.4.1-2.9.2-4.3.3-3.3-.4-6.7-1.9-9.7l.2-.1ZM146 83c-1-1.4-1.8-2.8-2.6-4.3l.5-.2a25.9 25.9 0 0 0 8 9.7l-.9-1.3a41 41 0 0 1-2.1-4.8l.8.7c.4 1.4 1 2.6 1.7 3.9l1.6 2.5a19.2 19.2 0 0 1-7-6.2Z"/>
  <path fill="#A4584F" d="M131.6 79c.8.5 1.6 1.2 2.1 2a9 9 0 0 0-2.3-1.7 8 8 0 0 0-3.3-1.1c1.2 0 2.4.3 3.5.9Z"/>
  <path fill="#A06963" d="M128.2 77h.2l-.7 1-.9.8-.3.2-.4-.1-1-.6a4 4 0 0 1-.5-.7l.3-.2.5.7.7.5.4.1.3-.1.8-.8.6-.9Z"/>
  <path fill="#744F38" d="M126.4 85.6c.7.7 1.2 1.3 1.2 1.8v1.3l-.4-.2c.1-.3.2-.7 0-1 0-.4-.3-1-1-1.6l.2-.3Z"/>
  <path fill="#A4584F" d="M126.5 84.6h.4l-.9 2.9-.4-.3.9-2.6Z"/>
  <path fill="#A4584F" d="M143.5 65.8V67v-1.2Zm.4 0c.2 1.3.2 3.3.5 3.9.4 1 1 2.1 1.4 3.4a4 4 0 0 1 0 2.4 8.3 8.3 0 0 1-2.3 3.6 20.5 20.5 0 0 1-10.6 5.3c-3.8.7-7.7.6-11.5-.4l-.2-.2c3.7.9 7.7.8 11.5.1 3.9-.7 7.5-2.4 10.3-5.1 1-1 2-2 2.3-3.4.2-.7.2-1.5 0-2.2-.3-1.2-.8-1.9-1.2-3-.4-.8-.5-1.7-.6-2.6l.4-1.8Z"/>
  <path fill="#A4584F" d="m127.4 76.6 1.4.2c.6 0 1.1 0 1.7-.2l.8-.1 1.3.1c.5.2 1.2.2 1.8.1h.4c.2 0 .4 0 .6.2l.2.6c0 1-.4 2-1 3l-1.5 1.4 1.3-1.6.6-1.3c.2-.6.2-1.1.2-1.4l-.1-.4-.3-.2h-.4c-.6.2-1.4.2-2 0l-1-.2c-.3 0-.6 0-.9.2a6 6 0 0 1-1.7.2l-1.5-.2c-.5-.1-1-.2-1.4 0-.4 0-.8.3-1.1.6a4.7 4.7 0 0 0-1.2 3.5c0 .6.2 1.4.4 1.8-.2-.3-.6-1-.6-1.7a5 5 0 0 1 1.2-3.8l1.2-.8h1.6Z"/>
  <path fill="#744F38" d="M124.3 90.8h.3c-.4 1.1-.8 1.5-1.4 2.3l-.2-.2c.6-.8 1-1.2 1.3-2.1Z"/>
  <path fill="#744F38" d="M118.7 88.8a56 56 0 0 0 3.5 6.4 8 8 0 0 0 1.7-.3l-2.6-5.2h.3l2.7 5.2v.2h-.1c-.7.3-1.3.4-2 .5h-.2v-.1a54 54 0 0 1-3.6-6.6h.3Z"/>
  <path fill="#744F38" d="m125.8 91.7.3.1a15 15 0 0 1-2 3l-.3-.3c.7-.8 1.6-2 2-2.8Zm6.2 4.8 1.6 1.2c2.4 3 5 7 6.3 12.4.1.7 0 1.4-.3 2l-.7 2.4a64.2 64.2 0 0 1-4.2 11.3v-.7c1.3-2.9 2.8-7.7 3.7-10.7.2-.8.4-1.7.7-2.3.2-.7.4-1.4.3-1.9a33.3 33.3 0 0 0-7.5-13.7Zm2.8 30.2c-.5 2.1-3.9 4-4.7 4.8a5.7 5.7 0 0 1-3.3 1.8 4 4 0 0 1-1.7-.5 7.7 7.7 0 0 1-2-2c-.7-1-1.2-2-1.7-3-.7-1.6-1.3-2.5-1.5-4.7l.3-.4c.3 2.1 1 3.4 1.7 5 .4 1 1 2 1.7 2.9.5.7 1 1.4 1.8 1.9.4.2 1.1.5 1.4.4.7 0 1.9-.4 3-1.6.7-.9 3.8-2.7 4.5-4.7.2-.6.3-6.3-.5-9.8 1 3.5 1.2 9.2 1 9.9Z"/>
  <path fill="#396BA4" d="M109.9 66.8a54.3 54.3 0 0 0 5.4 11 39 39 0 0 0 8.2 7.5c2.3 1.7 4.7 3.3 6.7 5.4 2.6 2.5 4.8 6 5.8 9.5-5-4.5-10.3-8.9-16.1-11.8-2.2-1.1-4.6-2.1-6.6-3.6a16 16 0 0 1-4.7-5.8c1.3 2 2.8 4 4.8 5.5s4.4 2.4 6.7 3.5a70.2 70.2 0 0 1 15 10.8 24 24 0 0 0-5.2-7.8c-2-2-4.4-3.6-6.7-5.3-3-2.3-6-4.7-8.2-7.6a32.6 32.6 0 0 1-5-9.8l-.1-1.5Z"/>
  <path fill="#744F38" d="m108.8 86 .3.4A15.9 15.9 0 0 0 107 88l-.4-.3.9-.8 1.3-1Zm-2.5 2.4.4.1-.3 1.7a8 8 0 0 1-2 2.8l-1.7 1.3-.3-.3 1.6-1.3a6 6 0 0 0 2-2.7l.3-1.6Z"/>
  <path fill="#396BA4" d="M101.2 37.7a20 20 0 0 0-2.2 6.2c-1 4.6-.7 9.4.2 14a51 51 0 0 0 6.7 16.7 73.6 73.6 0 0 1-1.7-10.5l.6 1.8.1.7c.4 3.2 1.3 7 1.9 10.1a50.9 50.9 0 0 1-8-18.8c-1-4.6-1.3-9.4-.2-14 .5-2.3 1.3-4.4 2.6-6.2Z"/>
  <path fill="#396BA4" d="M102.7 57a43.5 43.5 0 0 0 7.9 19.2 48.6 48.6 0 0 1 3.4-29.4l.2.8a46.2 46.2 0 0 0-2.8 30.4 44 44 0 0 1-9.2-30.2c-.1 3.2.1 6.2.5 9.2Z"/>
  <path fill="#396BA4" d="M114.2 48.7a53 53 0 0 0 2 16.5 59 59 0 0 1 9.8-20.7l-.2 1.1a59 59 0 0 0-9.5 20.7 53.4 53.4 0 0 1-2-24c-.2 1.2-.1 5.3-.1 6.4Z"/>
  <path fill="#396BA4" d="M134.5 50.7c-.2 3.7-1 7.3-1.9 10.9-.7 2.8-1.4 5.8-2.4 8.6a25 25 0 0 1-2.4-29.2 29.3 29.3 0 0 0-2.8 17.2c.8 4 2.5 7.9 5 11.1l2.2-7.8c.8-3.6 1.6-7.2 1.9-10.8a49 49 0 0 0 0-8c.2 2.7.6 5.3.4 8Z"/>
  <path fill="#396BA4" d="M138.6 54a42.9 42.9 0 0 1-6.2 14.3v-5.5l-.1-.9.3-1a25 25 0 0 1 .2 6.1 42.6 42.6 0 0 0 5.3-13 88 88 0 0 0 1.6-9 54 54 0 0 1-1.1 9Z"/>
  <path fill="#396BA4" d="M144.6 54.3a27 27 0 0 1-3.6 9l-.5-5.9c-.4-2.3-.8-4.4-1.6-6.6l.3-.7a39 39 0 0 1 2 12c1.4-2.5 2.4-5.2 3-7.9.7-3 1-6.3.9-9.5a28 28 0 0 1-.5 9.6ZM154 43l5.3 5.3c2 2.2 4 4.5 6.6 6 1.6 1 3.5 1.5 5.5 1.8a8.7 8.7 0 0 1-5.3 1.1c-.8 0-1.6-.2-2.3-.4l-.5-.7a9.7 9.7 0 0 0 7 .1 13 13 0 0 1-4.7-1.5c-2.6-1.5-4.6-4-6.6-6.1l-5.3-5.3c-1.7-1.7-3.3-3.6-5-5.5l5.3 5.3Z"/>
  <path fill="#396BA4" d="M158.4 50.6a66 66 0 0 1 3.4 3.6l3 3.2c1.6 1.3 3.6 2.3 5.6 3-1.8.5-3.4.7-5 .5a15 15 0 0 1-8-3.3V57a14.7 14.7 0 0 0 11.7 3.3c-1.7-.6-3.2-1.4-4.5-2.5-1.2-1-2.2-2.2-3.1-3.3a66 66 0 0 0-3.5-3.6c-1.5-1.5-2.8-3-4.7-4.5a30 30 0 0 1 5 4.2Zm-49.2-21.7a40.9 40.9 0 0 1 12.7-1.7c5.8.1 11.5 1.4 16.8 3.8a37 37 0 0 1 8 5.1 42.8 42.8 0 0 0-46.6-3 35 35 0 0 1 9.1-4.2Zm-23 20.8c1.7-3.6 4-7 6.6-10a28 28 0 0 1 3-2.8l-2.8 3a44.7 44.7 0 0 0-10 22 15.5 15.5 0 0 1 5.2-4.8l.3.4c-1.1.6-2.1 1.3-3 2.1-1 1-2 2.4-3 3.6.3-4.6 1.7-9.3 3.7-13.5Z"/>
  <path fill="#396BA4" d="M158.5 23.7h1.7l.4.1.3.4.2.3.2 1.3c.3 1.5.4 3 .4 4.6v.1h-.2l-1 .6-1 .8c.4 0 .8.1 1 .3l1 .7h.1v.2a43.5 43.5 0 0 1-4.2 13.4l-.5-.2a43.3 43.3 0 0 0 4.2-13.2 4.5 4.5 0 0 0-2-1h-.4l.3-.3a5.7 5.7 0 0 1 2.2-1.6 26 26 0 0 0-.7-5.8l-.2-.2h-1.8c-3 .3-5.8 1.3-8.6 2.3a642 642 0 0 1-12.4 4.4l-.1-.4a641 641 0 0 0 12.4-4.4c2.8-1 5.6-2 8.7-2.4Z"/>
  <path fill="#396BA4" d="M156.8 27.8a15 15 0 0 1-3.7 2.8l-4.6 2c-1.3.6-2.6 1.3-3.8 2.1l-.3-.4a24 24 0 0 1 3.9-2l4.6-2.2a13.5 13.5 0 0 0 5-4c-.2.6-.6 1.2-1.1 1.7ZM88.4 60c-.2 3.6.2 7.5-.8 11.2-.8 2.6-2.3 5-4.3 6.8a15 15 0 0 0 9-8.4l.4.2a14.7 14.7 0 0 1-10.6 9c2.3-2.2 4.2-4.9 5-7.8 1-3.5.6-7.3.8-11.1.2-4.3 1.4-8.4 3.4-12.4-1.6 4-2.7 8.2-3 12.4Z"/>
  <path fill="#396BA4" d="m92.8 63-.1 3.6v5c-.3 3.2-1.4 6.3-3.2 9a12 12 0 0 0 2.3-1.2v.6c-.7.5-2 1-2.7 1.2l-.7.1.4-.5c2-2.7 3.1-6 3.4-9.2l.1-5c0-1 .2-2.6.5-3.7Zm-8.4-39a27.6 27.6 0 0 1 14 2.5c1.6.7 3.1 1.6 4.7 2.2 1.1.5 2.6.9 3.8 1l-.4.5c-1.2-.2-2.4-.6-3.6-1l-4.6-2.3a26.3 26.3 0 0 0-14.4-2.3c-.1 0-.2 0-.3.2l-.1.3v.4c0 5 2.3 9.8 3.7 14.8.6 2 1 4 1.2 6l-.5.3c-.2-2-.6-4.2-1.1-6.2-1.4-5-3.8-9.7-3.8-15V25c0-.2.1-.4.3-.5l.5-.4h.6Z"/>
  <path fill="#396BA4" d="M88 29.3a38.8 38.8 0 0 1 5.3 10.2l-.4.2a30.3 30.3 0 0 0-5.3-10.1c-.4-.5-2.6-3-1.4-3.6-1 .6 1.4 2.8 1.7 3.3Z"/>
  <path fill="#744F38" d="M99.7 119c3.4.9 6.8 1.8 10.7 2.4l.1.4a72 72 0 0 1-10.9-2.4l.1-.5Z"/>
  <path fill="#744F38" d="M113.8 108.1c-.5 2.3-.8 4.3-1.4 6.2l-.6 1.6-.5.3.8-2 1.7-6Zm-3.7 10.7c-.7 1.3-1 1.6-1.8 2.5l-.2-.2c.8-.9 1.5-1.9 2.2-3l-.2.7Zm-14.4 3.7a64.9 64.9 0 0 0 21.9 4v-.5l-.2-.3-.3-.7.4-.3c0 .3.2.6.3.7l.2.5v.7c0 .2-.3.4-.6.5a67 67 0 0 1-21.9-4.2l.2-.4Z"/>
  <path fill="#396BA4" d="M94 64.3c0 2.5-.1 5-.6 7.6-.6 2.8-1.4 5.6-1.3 8.4 0 2.4.1 4.8 1.5 6.9 0-2.2 1.4-6.2 2-9.3.8-3.1 1.7-6.3 2.2-9.5.5-4 .6-8.8.6-12.3l.5.6a81 81 0 0 1-.7 11.8c-.4 3.2-1.4 6.3-2 9.5-.8 3.3-2.2 7.6-2.1 10v.6l-.4-.5c-1.8-2.3-2-5.1-2-7.8-.2-2.9.7-5.8 1.2-8.5.5-2.5.7-5 .8-7.6.2-3.2.6-6.4 1-9.8l-.6 9.9Z"/>
  <path fill="#744F38" d="m131 108.2-1.7.4c-2 .6-1.8.6-4.3 1.7a36 36 0 0 0-5.2 2.4c-.8.6-1.2 1-1.2 1.6h-.4c0-.7.6-1.3 1.4-2 .9-.6 4-1.9 5.3-2.4 2.5-1 2.4-.9 4.3-1.5.6-.2 1.8-.2 1.8-.2Zm-9.2-13.1h.3a46 46 0 0 0 .7 11.1l-.4.4c-.6-3.5-.9-7.8-.6-11.5Z"/>
  <path fill="#744F38" d="M126.6 99c-.4 4-2 9.3-3 11.7h-.3a67 67 0 0 0 3.2-12.4c.2-1.5 0-3.4 0-4.7 0 1.5.4 3.6.1 5.4Zm-8.2-10.2h.2a85 85 0 0 0 2.5 21.4h-.2a80 80 0 0 1-2.5-21.4Z"/>
  <path fill="#744F38" d="M124.3 108.1c.4.5 1 1 1.7 1.5l-.4.2-1.4-1.3.1-.4Zm5.9 23.3-.4-.2c.7-1.5 1.1-3.8 1-5.8.3 2 .1 4.4-.6 6Z"/>
  <path fill="#744F38" d="M127.2 110.2c-.8-.2-1.7 0-2.5.2v-.4a5 5 0 0 1 2.6-.1c.9.2 1.8.9 2.5 2.3a4 4 0 0 0-2.6-2Zm-10 16.4a20.4 20.4 0 0 0 16 11.7v.2a18.3 18.3 0 0 1-2.2 6c-1.7.5-2.7.6-3.8.6v-.5c1 0 2 0 3.6-.5a18 18 0 0 0 2-5.5 21 21 0 0 1-16-11.7l.4-.3Z"/>
  <path fill="#744F38" d="M128.6 145.5c.2 0 .2.2 0 .3-1.7 1.8-3.9 3-6.2 3.8l-.2-.4c2.2-.9 4.2-2 6-3.5a31.4 31.4 0 0 1-14-18.9h.1a31.2 31.2 0 0 0 14.3 18.7Z"/>
  <path fill="#744F38" d="M116.2 139.9c2.2 3.8 5 7.7 7.6 11.1 0 .2 0 .4-.2.4-2.3.2-4.3.2-6.2-.1-2.6.6-4.2 1.5-6 2.4l-.2-.4c1.8-.9 3.4-1.8 6.2-2.5 1.7.3 3.7.3 5.7.2-2.4-3.4-5-7.3-7.2-11a37 37 0 0 1-4.3-10 49 49 0 0 0 4.6 9.9Zm10-7.9c.2.2.5.2.7.2l.3-.1.2-.3c.2-2.1-2.2-6.3-3.2-9.4-.7-2-1-4-1.9-6a8 8 0 0 0-1.4-2.1l-.7-.4c-.4-.2-.8 0-1 .3h-.3c0-.1.2-.5.6-.6.2 0 .5-.1.8 0 .3 0 .6.3.8.5.7.7 1.2 1.4 1.7 2.2.9 2 1.2 4 1.8 6 1 3.2 3.3 7.3 3 9.5 0 .2 0 .4-.2.5l-.4.2c-.4 0-.6 0-.8-.2a3.2 3.2 0 0 1-.9-.9l.4.4c.2 0 .4.2.5.3Z"/>
  <path fill="#396BA4" d="M97.8 74.4a26 26 0 0 0 6.3 8.7 22 22 0 0 0 6.8 3.5c3 1 6.1 1.6 9.2 2.5l4 1.3.3.4-4.4-1.3c-3-.8-6.2-1.4-9.3-2.5-2.4-.8-4.8-2-6.9-3.5-1.1-1-2.1-2-3-3.1a29.4 29.4 0 0 0 8.4 9.4 22.7 22.7 0 0 1-13.2-12l.2-.8a22.3 22.3 0 0 0 7.7 9.5l3 2a30 30 0 0 1-4.3-4.5c-2-2.5-4-6.5-4.8-9.6Z"/>
  <path fill="#744F38" d="M88.4 165.3c-.3.2-.7.3-1.2.2a10 10 0 0 1-4-2 3 3 0 0 1-1.2-1.3c0-.2 0-.6.3-.8l.5-.2h.9v.5c-.7-.2-1 0-1.1 0-.2.2-.2.3-.1.4 0 .3.5.7 1 1a10.1 10.1 0 0 0 3.8 2c.4 0 .7.2 1-.1l.4-.8c0 .4 0 .9-.3 1Z"/>
  <path fill="#744F38" d="m88.6 162.8.7 1c.2.4.3.7.1 1l-.3.4-.3-.1.2-.5v-.6l-.7-.8.3-.4Z"/>
  <path fill="#744F38" d="m82 162 .4.1-.4 1.4v.6l.1.4c.7.6 1.6 1.2 2.7 1.6 1 .4 2 .7 2.9.5l.3-.2.4-.6.4-.9.6-.2-.6 1.4-.5.6-.5.4a6 6 0 0 1-3.2-.6c-1.1-.4-2.1-1-2.8-1.7a1 1 0 0 1-.3-.6v-.8l.5-1.4Z"/>
  <path fill="#744F38" d="M87 166.9h.3c0 .7.3 1.3.8 1.8a8 8 0 0 0 1.7 1.4c.7.5 1.3 1 1.7 1.7.4.7.5 1.5 0 2.3l-.3.4c.5-1.1.3-1.9 0-2.5a8 8 0 0 0-1.6-1.6l-1.8-1.5c-.5-.5-.9-1.2-.8-2Z"/>
  <path fill="#744F38" d="M81.6 167.3v.3l-.2.1-.1.5v1.4c.5 1 1.5 2.4 4.4 4.6a6 6 0 0 0 4 1c.7 0 1.3-.3 1.6-.6.2-.1.3-.3.3-.4v-.1l.1-.4.3.3v.3c0 .2-.2.4-.4.6a3 3 0 0 1-1.8.7c-1.3.2-3.2-.1-4.4-1-2.8-2.3-4-3.8-4.4-4.9-.2-.5-.2-1.1 0-1.6l.1-.6.2-.2h.3Z"/>
  <path fill="#744F38" d="M81.5 167.2c0-.7.4-2.6.4-2.6l.4.2-.5 2.4-.2 1.5v-1.5Z"/>
  <path fill="#744F38" d="m81 168.2.3.1s-.3.4-.3.8l.1 1.2c1 2.3 2.5 3.9 4.7 5.2a6 6 0 0 0 2.9.8c1 0 2-.2 2.6-.8.1 0 .3-.4.3-.7v-.6h.4v.7c0 .3-.2.7-.4 1a5 5 0 0 1-3 .8c-1 0-2.2-.4-3-.9-2.2-1.4-3.8-3-4.8-5.4-.2-.4-.3-.8-.2-1.3 0-.5.3-1 .3-1Zm12.1-15.9.4.2c-2.4 6-5.6 12.5-6 12.9l-.4-.2c.6-.8 3.5-7 6-13Zm-6.7-4.6.4.1c-2 5.6-2 11-3.3 15.5l-.4-.1c1.2-4.5 1.2-9.9 3.3-15.5Zm33.2 19.6c-.2.3-.5.6-.9.7a10 10 0 0 1-4.5.2 4 4 0 0 1-1.6-.7.7.7 0 0 1-.2-.8c0-.2.2-.3.4-.5l.1-.1.7-.3.1.5c-.6.2-.8.4-.9.6v.3l1.5.5c.6.2 1.2.2 1.7.2.8 0 1.8 0 2.6-.3.4-.1.7-.1.8-.5v-1c.3.4.4.8.2 1.2Z"/>
  <path fill="#744F38" d="M118.7 165c.5.1.8.3 1 .6.4.2.6.4.6.8v.4l-.4.1v-.5c0-.1-.1-.3-.4-.5l-1-.4.2-.5Z"/>
  <path fill="#744F38" d="M112.4 167.3h.5l.3 1.3c0 .2.1.5.3.6 0 .2.2.2.3.3.8.2 2 .3 3 .2a5 5 0 0 0 2.9-1l.1-.2v-1.7l.5-.5v2.3c0 .2-.1.4-.3.5a6 6 0 0 1-3.1 1c-1.2.2-2.4 0-3.3-.2a1 1 0 0 1-.5-.4l-.4-.7a7 7 0 0 1-.3-1.5Z"/>
  <path fill="#744F38" d="m119.2 169.3.3-.1c.3.7.8 1 1.5 1.2.6.3 1.4.4 2.2.5a6 6 0 0 1 2.3.8c.7.4 1.1 1 1.2 1.9l-.1.6c-.2-1.3-.7-1.9-1.3-2.2-.6-.4-1.3-.6-2.1-.7l-2.4-.5c-.7-.3-1.3-.7-1.6-1.5Z"/>
  <path fill="#744F38" d="m114.6 172.2.1.3v.6c.2.4.4.9.8 1.2.8.7 2.4 1.5 6 2.2a6 6 0 0 0 4.2-1 3 3 0 0 0 1-1.3v-1l.2.1.2.3v.7c-.2.5-.7 1-1.2 1.5-1.1.7-3 1.3-4.4 1-3.7-.7-5.4-1.5-6.2-2.2-.5-.4-.8-1-1-1.4v-.9l.3-.1Z"/>
  <path fill="#744F38" d="m114.5 172.1-1-2.4h.5l.7 2.3.6 1.4s-.5-.6-.8-1.3Z"/>
  <path fill="#744F38" d="M114.4 173.3h.4l.1.8.7 1c2 1.6 4 2.2 6.6 2.4 1 0 2-.1 3-.6.9-.4 1.6-1 2-2 0 0 0-.4-.2-.7 0-.3-.2-.5-.2-.5l.3-.2.3.6c0 .3.2.7 0 1a4 4 0 0 1-2 2.2c-1 .4-2.2.7-3.2.6-2.6-.2-4.8-.9-6.9-2.6-.3-.2-.5-.6-.7-1l-.2-1Zm3.3-22.1h.4l1 16.5h-.5l-1-16.5Zm-6.4 4.8h.5c.3 3.4 1.6 7.7 2.6 11.9h-.5c-1-4-2.3-8.4-2.6-12Z"/>
  <path fill="#D7BC85" d="M114.1 103.3c-5.2 9-14 15.2-21.8 22.3-1.3.9-2.2.5-3-.1a32 32 0 0 1-16.1-21.3l1-.3c3.2 12 9.2 16.3 15.3 20.6 1.2.5 1.8 0 2.4-.3 7.6-6.7 16-12.7 22.2-20.9Z"/>
  <path fill="#744F38" d="M115.1 101.3a12 12 0 0 1-2 4c-5.5 8-13.2 14-20.4 20.3l-1 .7a2 2 0 0 1-1.4 0l-1-.6A35.2 35.2 0 0 1 77 114.5a43 43 0 0 1-4.8-12.8c0-.4 0-.8.3-1.1.2-.3.5-.5.8-.6l.8-.2c3.3-.5 6.6-.3 9.8 0 3.3.1 6.6.2 9.6-.7.3 0 .6-.2.8-.3.2-.2.3-.3.3-.5l.2-.7V96a3 3 0 0 1 1.1-1.8 4 4 0 0 1 1.9-.8c.8-.2 1.6-.1 2.4 0l2.3.5c.9 0 2.7.1 3.8-.2-1 .4-2.8.6-3.8.5l-2.4-.3a7 7 0 0 0-2.2 0 2.8 2.8 0 0 0-2.6 2.2v1.4c0 .3 0 .6-.2.8 0 .3-.2.5-.5.7a2 2 0 0 1-1 .5c-3 1-6.4.8-9.7.6-3.3-.2-6.5-.4-9.7.1l-.7.2c-.2 0-.4.2-.6.4l-.2.8.2 1c1 4 2.3 8 4.5 11.5a34.8 34.8 0 0 0 13 11.6h1c.3 0 .5-.3.8-.5 7.3-6.4 15-12.4 20.4-20.2.8-1.2 1.8-2.5 2.1-3.9.2-1 .3-2 0-3 .3 1 .6 2 .3 3.1Zm8.8 19c-1.6.6-2 .8-3.3 1.6l.3-.8c1-.5 1.4-.8 2.8-1.3l.2.5Z"/>
  <path fill="#F5BB96" d="M121.3 120s-1.6 3.3-4.4 3.8c.3 2.9-2.8 2-2.3-.3-.2 0-.2-.3-.5-.2-1 .2-2-.8-2.5-2-.8-1-1.2-2.4-1.2-3.9-1 2.2 0 3.5.6 5 .7 1.3 1.8 1.8 2.9 2.3 1.4 2.7 4.8 1 4.6-.8a6.1 6.1 0 0 0 2.8-4Z"/>
  <path fill="#F5BB96" d="M115.3 119.3c-2.2.6-3 2-3.8 3.5l-.8-.8c1.1-1.8 2.4-3.1 4.6-2.7Zm1.7 1.7c-2 .8-2.3 2.3-2.9 4l-.7-.5c0-2 1-3.4 3.5-3.5Zm-6.8-3-.3 1.6a8.4 8.4 0 0 1 4.6-2.2 5.4 5.4 0 0 0-4.3.6Z"/>
  <g opacity=".6">
    <path fill="url(#aZ)" d="M59 53.5c0 .3 0 .5-.4.7l1-.7H59Z"/>
    <path fill="#fff" d="M63.8 46.8c1-1.7-.1-2.8-2-3.4-2.5.1-4.3 1-5.1 3.1-.2 1.7 1.4 3.4 2.3 5.2.2.8.2 1.5 0 2h.3c1.7-1.4 3.8-2 5.7-2.8 2-.6 4-1.3 4-3.5-.2-1.2-.9-2-2-2.3-1.4 0-2.5.3-3 1.7h-.2Z"/>
    <path fill="url(#ba)" d="m63.8 46.8.3.1.6-1-.6-.1-.3 1Z"/>
    <path fill="#E85A71" d="M59 53.8v-1.6c-.2-.9-.8-1.6-1.2-2.3a6 6 0 0 1-1.1-2.3c-.2-1 .1-2 .7-2.7a5 5 0 0 1 2.3-1.6c.6-.3 1.4-.4 2-.3a3 3 0 0 1 2 1c.3.3.5.9.5 1.4 0 .5-.1 1-.4 1.4a2 2 0 0 0-.6-2.2c-.5-.4-1-.6-1.7-.6-.6 0-1.2.2-1.7.4-.6.3-1.1.6-1.5 1-.4.5-.7 1-.8 1.7 0 .5.1 1 .3 1.3l.6 1.2.7 1.2c.2.4.4.9.4 1.3 0 .6-.2 1.2-.6 1.7Zm5-6.8a2 2 0 0 1 2.7-1.3c.5.1 1 .5 1.2 1a2 2 0 0 1 0 1.7c0 .3-.3.6-.6.9l-1 .6c-.7.3-1.5.4-2.2.6a10 10 0 0 0-5 3.4c1.7-1.2 3.5-2 5.4-2.7 1-.3 1.9-.5 2.7-1l1.2-.8c.3-.4.6-.8.7-1.2a2.6 2.6 0 0 0-2-3.2c-.6-.2-1.3 0-2 .3-.5.4-1 1-1 1.7Z"/>
  </g>
  <path fill="url(#bb)" d="M77.9 73.7c.4.2.8.3 1.2 1l-1-2-.2 1Z"/>
  <path fill="#fff" d="M66 62.5c-3-2.4-5.5-.7-7.1 2.8-.6 4.8.7 8.5 4.6 10.7 3.2.9 6.9-1.7 10.7-2.7 1.7 0 3 0 4 .6l.2-.6c-2.4-3.6-2.8-7.8-3.9-11.7-.6-4-1.4-8-5.7-8.7-2.4 0-4 1-5.1 3-.5 2.6 0 4.8 2.6 6.1l-.3.5Z"/>
  <path fill="url(#bc)" d="m66.1 62.6.3-.6-1.8-1.4-.4 1.1 2 1Z"/>
  <path fill="#E85A71" d="M78.4 74a7 7 0 0 0-3.2-.5c-1.7.1-3.3.8-4.8 1.5a12 12 0 0 1-4.9 1.3c-1.9 0-3.7-.8-5-2.2a9.8 9.8 0 0 1-2.6-5 8.5 8.5 0 0 1 0-4 5.5 5.5 0 0 1 2.5-3.2 4.8 4.8 0 0 1 5.7.7 4.2 4.2 0 0 0-4.5.4c-.9.7-1.4 1.8-1.6 3-.2 1-.1 2.2.2 3.3.3 1.2.8 2.3 1.6 3.3s1.8 1.7 3 2c.9.1 1.8 0 2.7-.1.9-.2 1.7-.5 2.5-.9l2.5-.9a7 7 0 0 1 2.7-.3c1.2.2 2.4.8 3.2 1.6ZM66.6 62.1a4 4 0 0 1-1.8-5.5 4 4 0 0 1 5.6-1.5c.7.4 1.2 1 1.6 1.6.4.6.7 1.3.8 2 .4 1.5.5 3 .7 4.5a20 20 0 0 0 5.1 10.5A40 40 0 0 1 75 62.6c-.3-1.8-.5-3.7-1.2-5.5a8 8 0 0 0-1.3-2.4 6 6 0 0 0-2.1-1.8 5 5 0 0 0-6.8 2.6 5 5 0 0 0 3 6.6Z"/>
  <g opacity=".2">
    <path fill="url(#bd)" d="M48 39.6c0-.2 0-.4.2-.6l-.8.6h.6Z"/>
    <path fill="#fff" d="M44.8 45.7c-.5 1.5 1 2.6 3.3 3.3 2.6 0 4.3-.7 4.5-2.6-.3-1.6-2.5-3.3-4-5-.4-.8-.7-1.5-.6-2h-.4c-1.3 1.3-3.4 1.6-5.3 2.3-2 .4-3.9 1-3.2 3a4.5 4.5 0 0 0 2.8 2.4c1.5 0 2.6-.2 2.6-1.5h.3Z"/>
    <path fill="url(#be)" d="M44.9 45.6h-.4l-.3.8.7.2v-1Z"/>
    <path fill="#E85A71" d="M48 39.4c0 .4.2 1 .5 1.5.5.8 1.2 1.5 2 2.2a9 9 0 0 1 1.8 2.3c.5.9.4 1.8 0 2.5-.3.6-1 1.1-2 1.3a5 5 0 0 1-4.4-.8 3 3 0 0 1-1-1.4c-.3-.5-.2-1 0-1.4 0 .4 0 .8.3 1.1.2.4.6.8 1 1a4.2 4.2 0 0 0 3.7.5c.5-.2 1-.5 1.3-1 .3-.3.5-.9.3-1.4 0-.5-.3-.9-.6-1.3l-1.1-1.2-1-1.1c-.4-.4-.7-.8-.9-1.3a2 2 0 0 1 .1-1.5Zm-3.5 6.1c0 .4-.3.8-.7 1-.5.2-1.1.2-1.8 0-.6-.2-1.2-.6-1.6-1a2 2 0 0 1-.5-1.6c0-.3.2-.6.5-.8l.8-.5 2.3-.5a6.6 6.6 0 0 0 4.3-2.8c-1.4 1-3.1 1.7-5 2.1-1 .3-1.9.4-2.7.8l-1 .7c-.2.3-.4.7-.4 1.1 0 .6.3 1.3 1 1.9.5.6 1.3 1 2 1.2.8.2 1.6.2 2.1-.2.5-.3.8-.8.7-1.4Z"/>
  </g>
  <path fill="#744F38" d="M120.8 114a10 10 0 0 1-3.3.4c-2.4-.2-3.7-.1-4.4.2a1 1 0 0 0-.6.5l-.2.8-.6-.1c0-.3.1-.7.3-1 .2-.3.4-.6.9-.8.8-.3 2.3-.3 4.7 0 .8 0 1.7 0 2.7-.3l.5.3Z"/>
  <path fill="#744F38" d="M113.8 125c-1.3-.2-2.3-1-3-2.4a4.6 4.6 0 0 1-1.2-2.6c-.1-1.4.4-2.4 1-3.2a5 5 0 0 1 2.4-1.6c1.8-.7 3.6-.4 3.6-.4s-1.8.1-3.4.7a5 5 0 0 0-2.2 1.6 4 4 0 0 0-.8 2.9c0 .7.4 1.5 1 2.2a3.5 3.5 0 0 0 3 2.3c.4 1.4 1.6 1.7 2.6 1.4.8-.3 1.4-1 1.5-1.7 0-.1-.1-.2-.7-.2 1-.4 2.2-1.2 2.4-1.6a15 15 0 0 0 1.5-3.2c-.2 1-.5 2.1-1 3.2a4 4 0 0 1-1.8 1.6c.1 1-.8 2-1.8 2.3-1 .3-2.5 0-3.2-1.4Z"/>
  <path fill="#744F38" d="M110 119.1v-.4c1.3-1.2 2-1.3 3.6-1.3-1.7.4-2.2.4-3.5 1.7Zm1.3 3.5-.3-.3c.5-1.5 1.6-3 3.7-2.9-2.2.3-2.8 2-3.4 3.2Zm2.8 2-.4-.1c0-1.3.7-2.7 2.5-3.3-1.5.9-2 2.1-2 3.4Z"/>
  <defs>
    <linearGradient id="a" x1="46.3" x2="47.2" y1="113.1" y2="105.3" gradientUnits="userSpaceOnUse">
      <stop stop-color="#6CB5DE"/>
      <stop offset="1" stop-color="#6CB5DE" stop-opacity="0"/>
    </linearGradient>
    <linearGradient id="b" x1="71.9" x2="66.6" y1="119.6" y2="110.2" gradientUnits="userSpaceOnUse">
      <stop stop-color="#6CB5DE"/>
      <stop offset="1" stop-color="#6CB5DE" stop-opacity="0"/>
    </linearGradient>
    <linearGradient id="c" x1="91.9" x2="45.3" y1="167.6" y2="130.2" gradientUnits="userSpaceOnUse">
      <stop stop-color="#8D923D"/>
      <stop offset="1" stop-color="#7D9E4C" stop-opacity="0"/>
    </linearGradient>
    <linearGradient id="d" x1="125.5" x2="122.9" y1="121.9" y2="125.6" gradientUnits="userSpaceOnUse">
      <stop stop-color="#D7BC85"/>
      <stop offset="1" stop-color="#D7BC85" stop-opacity="0"/>
    </linearGradient>
    <linearGradient id="e" x1="128.4" x2="129" y1="138.9" y2="124.4" gradientUnits="userSpaceOnUse">
      <stop stop-color="#D7BC85"/>
      <stop offset="1" stop-color="#D7BC85" stop-opacity="0"/>
    </linearGradient>
    <linearGradient id="f" x1="132.1" x2="132" y1="133.3" y2="122" gradientUnits="userSpaceOnUse">
      <stop stop-color="#D7BC85"/>
      <stop offset="1" stop-color="#D7BC85" stop-opacity="0"/>
    </linearGradient>
    <linearGradient id="g" x1="125.3" x2="129.8" y1="108.4" y2="105.2" gradientUnits="userSpaceOnUse">
      <stop stop-color="#D7BC85"/>
      <stop offset="1" stop-color="#D7BC85" stop-opacity="0"/>
    </linearGradient>
    <linearGradient id="h" x1="129" x2="116.6" y1="145.3" y2="130.8" gradientUnits="userSpaceOnUse">
      <stop stop-color="#ED8647"/>
      <stop offset="1" stop-color="#ED8647" stop-opacity="0"/>
    </linearGradient>
    <linearGradient id="i" x1="122" x2="111.3" y1="134.7" y2="133.2" gradientUnits="userSpaceOnUse">
      <stop stop-color="#ED8647"/>
      <stop offset="1" stop-color="#ED8647" stop-opacity="0"/>
    </linearGradient>
    <linearGradient id="j" x1="134.9" x2="117.4" y1="161.8" y2="135.3" gradientUnits="userSpaceOnUse">
      <stop stop-color="#ED8647"/>
      <stop offset="1" stop-color="#ED8647" stop-opacity="0"/>
    </linearGradient>
    <linearGradient id="k" x1="117.9" x2="103.3" y1="160.9" y2="133.7" gradientUnits="userSpaceOnUse">
      <stop stop-color="#ED8647"/>
      <stop offset="1" stop-color="#ED8647" stop-opacity="0"/>
    </linearGradient>
    <linearGradient id="l" x1="103.3" x2="96.5" y1="142.6" y2="139.7" gradientUnits="userSpaceOnUse">
      <stop stop-color="#ED8647"/>
      <stop offset="1" stop-color="#ED8647" stop-opacity="0"/>
    </linearGradient>
    <linearGradient id="m" x1="111.7" x2="118.7" y1="122.4" y2="139.3" gradientUnits="userSpaceOnUse">
      <stop stop-color="#ED8647"/>
      <stop offset="1" stop-color="#ED8647" stop-opacity="0"/>
    </linearGradient>
    <linearGradient id="n" x1="92.8" x2="93.5" y1="147.9" y2="130.7" gradientUnits="userSpaceOnUse">
      <stop stop-color="#ED8647"/>
      <stop offset="1" stop-color="#ED8647" stop-opacity="0"/>
    </linearGradient>
    <linearGradient id="o" x1="100.9" x2="98.6" y1="119.9" y2="133.7" gradientUnits="userSpaceOnUse">
      <stop stop-color="#ED8647"/>
      <stop offset="1" stop-color="#ED8647" stop-opacity="0"/>
    </linearGradient>
    <linearGradient id="p" x1="79.9" x2="80.4" y1="123.3" y2="127.4" gradientUnits="userSpaceOnUse">
      <stop stop-color="#ED8647"/>
      <stop offset="1" stop-color="#ED8647" stop-opacity="0"/>
    </linearGradient>
    <linearGradient id="q" x1="77.4" x2="78" y1="127.5" y2="120" gradientUnits="userSpaceOnUse">
      <stop stop-color="#ED8647"/>
      <stop offset="1" stop-color="#ED8647" stop-opacity="0"/>
    </linearGradient>
    <linearGradient id="r" x1="77.2" x2="91" y1="141.6" y2="122.5" gradientUnits="userSpaceOnUse">
      <stop stop-color="#ED8647"/>
      <stop offset="1" stop-color="#ED8647" stop-opacity="0"/>
    </linearGradient>
    <linearGradient id="s" x1="150.6" x2="146" y1="78.9" y2="92" gradientUnits="userSpaceOnUse">
      <stop stop-color="#6CB5DE"/>
      <stop offset="1" stop-color="#6CB5DE" stop-opacity="0"/>
    </linearGradient>
    <linearGradient id="t" x1="147.5" x2="144.4" y1="75.1" y2="87" gradientUnits="userSpaceOnUse">
      <stop stop-color="#6CB5DE"/>
      <stop offset="1" stop-color="#6CB5DE" stop-opacity="0"/>
    </linearGradient>
    <linearGradient id="A" x1="148.8" x2="153.9" y1="75.8" y2="79.3" gradientUnits="userSpaceOnUse">
      <stop stop-color="#6CB5DE"/>
      <stop offset="1" stop-color="#6CB5DE" stop-opacity="0"/>
    </linearGradient>
    <linearGradient id="B" x1="126" x2="123" y1="85.1" y2="85.9" gradientUnits="userSpaceOnUse">
      <stop stop-color="#FACB93"/>
      <stop offset="1" stop-color="#FFF2DB"/>
    </linearGradient>
    <linearGradient id="C" x1="123.6" x2="122.8" y1="48.4" y2="56.7" gradientUnits="userSpaceOnUse">
      <stop stop-color="#F5BB96"/>
      <stop offset="1" stop-color="#F5BB96" stop-opacity="0"/>
    </linearGradient>
    <linearGradient id="D" x1="108.4" x2="113.3" y1="51.6" y2="59.1" gradientUnits="userSpaceOnUse">
      <stop stop-color="#F5BB96"/>
      <stop offset="1" stop-color="#F5BB96" stop-opacity="0"/>
    </linearGradient>
    <linearGradient id="E" x1="140.6" x2="138.4" y1="53.6" y2="58.2" gradientUnits="userSpaceOnUse">
      <stop stop-color="#F5BB96"/>
      <stop offset="1" stop-color="#F5BB96" stop-opacity="0"/>
    </linearGradient>
    <linearGradient id="L" x1="118.5" x2="113.2" y1="71.5" y2="63.2" gradientUnits="userSpaceOnUse">
      <stop stop-color="#FFEF5E"/>
      <stop offset=".5" stop-color="#F27C0A"/>
      <stop offset="1" stop-color="#9A5103"/>
    </linearGradient>
    <linearGradient id="M" x1="139.7" x2="134.8" y1="70.9" y2="66.7" gradientUnits="userSpaceOnUse">
      <stop stop-color="#FFEF5E"/>
      <stop offset=".5" stop-color="#F27C0A"/>
      <stop offset="1" stop-color="#9A5103"/>
    </linearGradient>
    <linearGradient id="V" x1="138" x2="117" y1="101.1" y2="83.4" gradientUnits="userSpaceOnUse">
      <stop stop-color="#6CB5DE"/>
      <stop offset="1" stop-color="#6CB5DE" stop-opacity="0"/>
    </linearGradient>
    <linearGradient id="W" x1="110" x2="104.8" y1="96.9" y2="75.5" gradientUnits="userSpaceOnUse">
      <stop stop-color="#6CB5DE"/>
      <stop offset="1" stop-color="#6CB5DE" stop-opacity="0"/>
    </linearGradient>
    <linearGradient id="X" x1="107.9" x2="95.9" y1="101.6" y2="69.3" gradientUnits="userSpaceOnUse">
      <stop stop-color="#6CB5DE"/>
      <stop offset="1" stop-color="#6CB5DE" stop-opacity="0"/>
    </linearGradient>
    <linearGradient id="al" x1="132.7" x2="138.5" y1="72.3" y2="45.1" gradientUnits="userSpaceOnUse">
      <stop stop-color="#6CB5DE"/>
      <stop offset="1" stop-color="#6CB5DE" stop-opacity="0"/>
    </linearGradient>
    <linearGradient id="av" x1="143.2" x2="157.6" y1="34.4" y2="34.2" gradientUnits="userSpaceOnUse">
      <stop stop-color="#6CB5DE"/>
      <stop offset="1" stop-color="#6CB5DE" stop-opacity="0"/>
    </linearGradient>
    <linearGradient id="aw" x1="95.8" x2="97.6" y1="34.9" y2="29.6" gradientUnits="userSpaceOnUse">
      <stop stop-color="#6CB5DE"/>
      <stop offset="1" stop-color="#6CB5DE" stop-opacity="0"/>
    </linearGradient>
    <linearGradient id="ax" x1="134.6" x2="130.4" y1="84.8" y2="46.9" gradientUnits="userSpaceOnUse">
      <stop stop-color="#6CB5DE"/>
      <stop offset="1" stop-color="#6CB5DE" stop-opacity="0"/>
    </linearGradient>
    <linearGradient id="ay" x1="180.5" x2="155.1" y1="86.1" y2="70.6" gradientUnits="userSpaceOnUse">
      <stop stop-color="#6CB5DE"/>
      <stop offset="1" stop-color="#6CB5DE" stop-opacity="0"/>
    </linearGradient>
    <linearGradient id="az" x1="112.8" x2="118.8" y1="78.6" y2="44.7" gradientUnits="userSpaceOnUse">
      <stop stop-color="#6CB5DE"/>
      <stop offset="1" stop-color="#6CB5DE" stop-opacity="0"/>
    </linearGradient>
    <linearGradient id="aA" x1="111.5" x2="107.4" y1="87.3" y2="54.4" gradientUnits="userSpaceOnUse">
      <stop stop-color="#6CB5DE"/>
      <stop offset="1" stop-color="#6CB5DE" stop-opacity="0"/>
    </linearGradient>
    <linearGradient id="aB" x1="107.8" x2="102" y1="81.3" y2="54.5" gradientUnits="userSpaceOnUse">
      <stop stop-color="#6CB5DE"/>
      <stop offset="1" stop-color="#6CB5DE" stop-opacity="0"/>
    </linearGradient>
    <linearGradient id="aC" x1="100" x2="99.8" y1="54.9" y2="71.5" gradientUnits="userSpaceOnUse">
      <stop stop-color="#6CB5DE"/>
      <stop offset="1" stop-color="#6CB5DE" stop-opacity="0"/>
    </linearGradient>
    <linearGradient id="aD" x1="80.9" x2="90.2" y1="80.3" y2="62.2" gradientUnits="userSpaceOnUse">
      <stop stop-color="#6CB5DE"/>
      <stop offset="1" stop-color="#6CB5DE" stop-opacity="0"/>
    </linearGradient>
    <linearGradient id="aE" x1="89.9" x2="96.1" y1="104" y2="65.4" gradientUnits="userSpaceOnUse">
      <stop stop-color="#6CB5DE"/>
      <stop offset="1" stop-color="#6CB5DE" stop-opacity="0"/>
    </linearGradient>
    <linearGradient id="aF" x1="152.4" x2="146.2" y1="35.6" y2="37.1" gradientUnits="userSpaceOnUse">
      <stop stop-color="#fff"/>
      <stop offset="1" stop-color="#E1E1E1"/>
    </linearGradient>
    <linearGradient id="aL" x1="95.1" x2="91.1" y1="33" y2="37.4" gradientUnits="userSpaceOnUse">
      <stop stop-color="#fff"/>
      <stop offset="1" stop-color="#E1E1E1"/>
    </linearGradient>
    <linearGradient id="aZ" x1="59.1" x2="58.7" y1="53.8" y2="54.2" gradientUnits="userSpaceOnUse">
      <stop stop-color="#fff"/>
      <stop offset="1" stop-color="#fff" stop-opacity="0"/>
    </linearGradient>
    <linearGradient id="ba" x1="64" x2="64.3" y1="46.7" y2="46.1" gradientUnits="userSpaceOnUse">
      <stop stop-color="#fff"/>
      <stop offset="1" stop-color="#fff" stop-opacity="0"/>
    </linearGradient>
    <linearGradient id="bb" x1="78.3" x2="79" y1="73.7" y2="74.6" gradientUnits="userSpaceOnUse">
      <stop stop-color="#fff"/>
      <stop offset="1" stop-color="#fff" stop-opacity="0"/>
    </linearGradient>
    <linearGradient id="bc" x1="66" x2="64.9" y1="62.2" y2="61.4" gradientUnits="userSpaceOnUse">
      <stop stop-color="#fff"/>
      <stop offset="1" stop-color="#fff" stop-opacity="0"/>
    </linearGradient>
    <linearGradient id="bd" x1="47.9" x2="48.2" y1="39.4" y2="39" gradientUnits="userSpaceOnUse">
      <stop stop-color="#fff"/>
      <stop offset="1" stop-color="#fff" stop-opacity="0"/>
    </linearGradient>
    <linearGradient id="be" x1="44.7" x2="44.5" y1="45.7" y2="46.3" gradientUnits="userSpaceOnUse">
      <stop stop-color="#fff"/>
      <stop offset="1" stop-color="#fff" stop-opacity="0"/>
    </linearGradient>
    <radialGradient id="F" cx="0" cy="0" r="1" gradientTransform="matrix(-10.85326 4.07428 -2.293 -6.10818 117.7 75.8)" gradientUnits="userSpaceOnUse">
      <stop stop-color="#FF0F0F"/>
      <stop offset=".2" stop-color="#FF0F0F"/>
      <stop offset=".9" stop-color="#FF0F0F" stop-opacity=".1"/>
      <stop offset="1" stop-color="#FF0F0F" stop-opacity="0"/>
    </radialGradient>
    <radialGradient id="H" cx="0" cy="0" r="1" gradientTransform="rotate(-177.5 72.2 36.1) scale(10.6672 5.74231)" gradientUnits="userSpaceOnUse">
      <stop stop-color="#FF0F0F"/>
      <stop offset=".2" stop-color="#FF0F0F"/>
      <stop offset=".9" stop-color="#FF0F0F" stop-opacity=".1"/>
      <stop offset="1" stop-color="#FF0F0F" stop-opacity="0"/>
    </radialGradient>
    <radialGradient id="I" cx="0" cy="0" r="1" gradientTransform="matrix(.3732 .95955 -1.87652 .72984 121.3 74.5)" gradientUnits="userSpaceOnUse">
      <stop stop-color="#fff"/>
      <stop offset=".3" stop-color="#fff" stop-opacity=".9"/>
      <stop offset=".7" stop-color="#fff" stop-opacity=".3"/>
      <stop offset="1" stop-color="#fff" stop-opacity="0"/>
    </radialGradient>
    <radialGradient id="J" cx="0" cy="0" r="1" gradientTransform="rotate(84.6 31.5 115.4) scale(1.0684 1.66986)" gradientUnits="userSpaceOnUse">
      <stop stop-color="#fff"/>
      <stop offset=".3" stop-color="#fff" stop-opacity=".9"/>
      <stop offset=".7" stop-color="#fff" stop-opacity=".3"/>
      <stop offset="1" stop-color="#fff" stop-opacity="0"/>
    </radialGradient>
    <radialGradient id="N" cx="0" cy="0" r="1" gradientTransform="rotate(172.9 56.7 35.7) scale(5.33837 7.34357)" gradientUnits="userSpaceOnUse">
      <stop stop-color="#9D0000"/>
      <stop offset=".8" stop-color="#CE2828" stop-opacity=".5"/>
      <stop offset="1" stop-color="#FF5151" stop-opacity="0"/>
    </radialGradient>
    <radialGradient id="O" cx="0" cy="0" r="1" gradientTransform="rotate(172.9 67 36.5) scale(2.77299 6.84817)" gradientUnits="userSpaceOnUse">
      <stop stop-color="#9D0000"/>
      <stop offset=".8" stop-color="#CE2828" stop-opacity=".5"/>
      <stop offset="1" stop-color="#FF5151" stop-opacity="0"/>
    </radialGradient>
    <radialGradient id="P" cx="0" cy="0" r="1" gradientTransform="matrix(-12.35338 4.59418 -3.61518 -9.72093 120.7 67.3)" gradientUnits="userSpaceOnUse">
      <stop stop-color="#382622" stop-opacity="0"/>
      <stop offset=".6" stop-color="#382622" stop-opacity="0"/>
      <stop offset="1" stop-color="#382622" stop-opacity=".6"/>
    </radialGradient>
    <radialGradient id="Q" cx="0" cy="0" r="1" gradientTransform="rotate(176.5 68 35.9) scale(7.05275 9.87665)" gradientUnits="userSpaceOnUse">
      <stop stop-color="#382622" stop-opacity="0"/>
      <stop offset=".6" stop-color="#382622" stop-opacity="0"/>
      <stop offset="1" stop-color="#382622" stop-opacity=".6"/>
    </radialGradient>
    <radialGradient id="R" cx="0" cy="0" r="1" gradientTransform="matrix(-1.6532 .97381 -1.39187 -2.36292 121.2 61)" gradientUnits="userSpaceOnUse">
      <stop stop-color="#fff"/>
      <stop offset=".6" stop-color="#fff"/>
      <stop offset=".7" stop-color="#fff" stop-opacity=".9"/>
      <stop offset=".8" stop-color="#fff" stop-opacity=".7"/>
      <stop offset="1" stop-color="#fff" stop-opacity="0"/>
    </radialGradient>
    <radialGradient id="S" cx="0" cy="0" r="1" gradientTransform="rotate(120.4 37 68.5) scale(.93454 1.44779)" gradientUnits="userSpaceOnUse">
      <stop stop-color="#fff"/>
      <stop offset=".6" stop-color="#fff"/>
      <stop offset=".7" stop-color="#fff" stop-opacity=".9"/>
      <stop offset=".8" stop-color="#fff" stop-opacity=".7"/>
      <stop offset="1" stop-color="#fff" stop-opacity="0"/>
    </radialGradient>
    <radialGradient id="T" cx="0" cy="0" r="1" gradientTransform="matrix(-1.21365 .4366 -.64239 -1.78568 140 62.3)" gradientUnits="userSpaceOnUse">
      <stop stop-color="#fff"/>
      <stop offset=".6" stop-color="#fff"/>
      <stop offset=".7" stop-color="#fff" stop-opacity=".9"/>
      <stop offset=".8" stop-color="#fff" stop-opacity=".7"/>
      <stop offset="1" stop-color="#fff" stop-opacity="0"/>
    </radialGradient>
    <radialGradient id="U" cx="0" cy="0" r="1" gradientTransform="matrix(-.75146 .4068 -.60422 -1.11614 137.1 70.3)" gradientUnits="userSpaceOnUse">
      <stop stop-color="#fff"/>
      <stop offset=".6" stop-color="#fff"/>
      <stop offset=".7" stop-color="#fff" stop-opacity=".9"/>
      <stop offset=".8" stop-color="#fff" stop-opacity=".7"/>
      <stop offset="1" stop-color="#fff" stop-opacity="0"/>
    </radialGradient>
  </defs>
</svg>
