<svg xmlns="http://www.w3.org/2000/svg" width="140" height="140" fill="none">
  <g filter="url(#a)">
    <g clip-path="url(#b)">
      <rect width="41.2" height="55.6" x="4.1" y="6.6" fill="#F5F7E2" rx="7" transform="rotate(-5 4 6.6)"/>
      <path fill="#fff" fill-opacity=".5" d="m-21.6 31.4 89.3-7.8 1 12-89.2 7.9z"/>
      <path fill="#341D1A" d="m19.2 31.4-.5-5.8c0-.6.4-1 .9-1.1h.2c.4 0 .8.2.8.7 0 .6.8.9 1.3.5 1.7-1.2 4.4-2.8 6.7-3.4 3.5-.8 7.4 1.8 8.8 1.7.5 0 .8-.2 1-.4.4-.3.7-.9 1.2-.9 1 0 2 .4 2.2 1.5.4 1.8-3.3 7-4.8 11.5-1 3.1-.4 7.6.2 10.2a1 1 0 0 1-1 1.3l-9.3.6a1 1 0 0 1-1-1 76 76 0 0 1 1-7.2 17 17 0 0 1 3.8-6.9c.5-.5-.5-2.5-1.2-2.6-2.4-.3-2-.3-4.7-1.4-2-.8-3.1 1.3-3.6 2.9a1 1 0 0 1-1 .7 1 1 0 0 1-1-.9Z"/>
      <g filter="url(#c)">
        <path fill="#F7405E" d="m15.7 28.6-.5-5.7v-.2c0-.5.3-1 .9-1h.2c.4 0 .8.2.8.7 0 .6.8.9 1.3.5 1.7-1.2 4.4-2.8 6.7-3.4 3.5-.8 7.3 1.8 8.8 1.7.5 0 .8-.2 1-.4.4-.3.7-.9 1.2-.9.9 0 1.9.4 2.1 1.5.4 1.8-3.2 7-4.7 11.6-1 3-.5 7.5.2 10.1a1 1 0 0 1-1 1.3l-9.3.6a1 1 0 0 1-1-1 76 76 0 0 1 1-7.2 17 17 0 0 1 3.8-6.8c.5-.6-.5-2.5-1.2-2.6-2.5-.4-2-.4-4.7-1.5-2-.8-3.1 1.3-3.6 2.9a1 1 0 0 1-1 .7 1 1 0 0 1-1-.9Z"/>
      </g>
      <path stroke="#341D1A" d="m14.7 22.9.5 5.8c0 .8.8 1.4 1.6 1.3.7 0 1.2-.5 1.3-1 .3-.8.7-1.7 1.2-2.2.3-.3.5-.5.8-.6l1 .1 1.5.7 1 .4c.6.2 1 .3 2.3.4l.3.3a2.7 2.7 0 0 1 .6 1.3v.2c-1.6 2-3.3 4.6-3.9 7.1-.6 3.1-1 5.7-1 7.2-.2 1 .6 1.7 1.5 1.6l9.4-.6c1 0 1.6-1 1.4-1.9a29 29 0 0 1-.8-4.8c0-1.8 0-3.6.5-5 .7-2 1.7-4 2.6-5.8a239.8 239.8 0 0 0 1.8-3.9l.4-1.2v-1a2 2 0 0 0-1-1.5l-1.6-.4c-.4 0-.8.3-1 .5a5 5 0 0 0-.3.3l-.3.3s-.3.2-.7.2h-.5a42.6 42.6 0 0 1-1.6-.5l-.1-.2c-.4 0-.8-.2-1.2-.4a10 10 0 0 0-5.5-.5c-2.3.5-5 2.2-6.8 3.4-.2.2-.5 0-.5-.2 0-.7-.7-1.2-1.4-1.1H16c-.8 0-1.4.8-1.3 1.6v.1Z"/>
    </g>
    <rect width="41.2" height="55.6" x="4.1" y="6.6" stroke="#341D1A" rx="7" transform="rotate(-5 4 6.6)"/>
  </g>
  <g filter="url(#d)">
    <g clip-path="url(#e)">
      <rect width="41.2" height="55.6" x="51.8" y="1.7" fill="#F5F7E2" rx="7" transform="rotate(16.6 51.8 1.7)"/>
      <path fill="#fff" fill-opacity=".5" d="M18.9 15.3 104.7 41l-3.4 11.5L15.4 27z"/>
      <path fill="#341D1A" d="m56.8 30.4 1.7-5.6v-.1a1 1 0 0 1 1.2-.6h.2c.4.1.6.6.5 1-.2.5.4 1 1 1 2-.5 5.1-1 7.4-.7 3.6.5 6.2 4.4 7.6 4.8h1.1c.5-.2 1-.6 1.5-.4.8.4 1.6 1 1.4 2.1-.3 2-5.6 5.4-8.7 9a20.8 20.8 0 0 0-3.6 9.6c0 .6-.7 1-1.3.8l-9-2.9a1 1 0 0 1-.5-1.3 76 76 0 0 1 3.6-6.3 17 17 0 0 1 6-5c.7-.3.5-2.5-.1-2.8-2.1-1.2-1.7-1.1-3.8-3.2-1.5-1.4-3.4.1-4.5 1.4a1 1 0 0 1-1 .4 1 1 0 0 1-.7-1.2Z"/>
      <g filter="url(#f)">
        <path fill="#F7405E" d="m54.5 26.5 1.7-5.6v-.1a1 1 0 0 1 1.2-.6h.2c.4.1.7.6.5 1-.1.5.4 1 1 1 2-.5 5.2-1 7.5-.7 3.6.5 6.2 4.4 7.6 4.8h1c.5-.2 1-.6 1.5-.4.8.4 1.6 1 1.5 2.1-.4 2-5.7 5.4-8.8 9a20.8 20.8 0 0 0-3.5 9.6c-.1.6-.8 1-1.4.8l-8.9-2.8a1 1 0 0 1-.6-1.4 76 76 0 0 1 3.7-6.2 17 17 0 0 1 6-5c.7-.4.5-2.6-.1-3-2.2-1.1-1.7-1-3.9-3-1.5-1.5-3.3 0-4.4 1.3a1 1 0 0 1-1.1.4 1 1 0 0 1-.7-1.2Z"/>
      </g>
      <path stroke="#341D1A" d="m55.7 20.8-1.6 5.6c-.3.7.2 1.5 1 1.8.6.2 1.2 0 1.6-.6.5-.6 1.2-1.2 1.9-1.5.3-.2.6-.2 1-.2.2 0 .5.1.8.4l1.2 1.2.7.7 2 1.3.2.3a2.7 2.7 0 0 1 0 1.5v.2c-2.3 1.2-4.8 3-6.2 5.2-1.7 2.6-3 4.9-3.7 6.3-.4.8 0 1.8.8 2l9 3c.9.2 1.8-.4 2-1.3a25 25 0 0 1 1.1-4.8c.6-1.7 1.3-3.4 2.3-4.5 1.3-1.5 3-3 4.6-4.4l.8-.7a31.9 31.9 0 0 0 3-3.2l.5-1c0-.7-.1-1.3-.5-1.7l-1.3-1h-1a5 5 0 0 0-.5.3l-.3.1c-.2 0-.4.1-.8 0l-.4-.2a43 43 0 0 1-2.3-2 10 10 0 0 0-5-2.6c-2.3-.4-5.5.2-7.6.7a.4.4 0 0 1-.4-.4c.2-.7-.2-1.4-.8-1.6h-.2c-.8-.3-1.6.2-1.8 1Z"/>
    </g>
    <rect width="41.2" height="55.6" x="51.8" y="1.7" stroke="#341D1A" rx="7" transform="rotate(16.6 51.8 1.7)"/>
  </g>
  <g filter="url(#g)">
    <g clip-path="url(#h)">
      <rect width="41.2" height="55.6" x="97.4" y="16.1" fill="#F5F7E2" rx="7" transform="rotate(34 97.4 16)"/>
      <path fill="#fff" fill-opacity=".5" d="m62 19.1 74.2 50.2-6.8 10L55 29.1z"/>
      <path fill="#341D1A" d="m93.5 45 3.3-5a1 1 0 0 1 1.4-.3l.1.1c.4.3.5.8.3 1.1-.4.5 0 1.2.6 1.2 2 .2 5.2.6 7.3 1.6 3.3 1.6 4.6 6 5.8 6.9.4.3.8.3 1 .3.6 0 1.2-.2 1.5.1.7.6 1.3 1.5.8 2.5-.9 1.7-7 3.4-11 6a21 21 0 0 0-6.3 8 1 1 0 0 1-1.5.4L89 62.5a1 1 0 0 1 0-1.5c1-1.1 3-2.9 5.4-4.9a17 17 0 0 1 7.2-3c.7 0 1.2-2.2.7-2.7-1.7-1.8-1.3-1.6-2.7-4.2-1-1.8-3.3-.9-4.6 0a1 1 0 0 1-1.2 0 1 1 0 0 1-.3-1.3Z"/>
      <g filter="url(#i)">
        <path fill="#F7405E" d="m92.5 40.5 3.3-4.8a1 1 0 0 1 1.4-.4l.2.2c.3.2.4.7.2 1-.4.5 0 1.2.6 1.2 2.1.2 5.2.6 7.3 1.6 3.3 1.6 4.6 6 5.8 6.9.4.3.8.4 1 .3.6 0 1.2-.2 1.6.1.6.6 1.2 1.5.7 2.5-.9 1.7-7 3.4-11 6a22 22 0 0 0-6.3 8 1 1 0 0 1-1.5.4l-7.7-5.4a1 1 0 0 1 0-1.5c1-1 2.9-2.9 5.3-4.8a17 17 0 0 1 7.2-3c.8-.2 1.2-2.3.7-2.8-1.7-1.8-1.3-1.5-2.7-4.1-1-1.8-3.2-1-4.6 0a1 1 0 0 1-1.2 0 1 1 0 0 1-.3-1.4Z"/>
      </g>
      <path stroke="#341D1A" d="M95.4 35.4 92 40.2c-.4.7-.2 1.6.4 2 .6.5 1.2.4 1.7 0 .7-.4 1.6-.8 2.3-.9l1 .1c.2.1.5.3.7.7l.8 1.5.4.9c.4.5.7 1 1.6 1.8v.4a2.7 2.7 0 0 1-.3 1.4l-.2.2c-2.5.5-5.4 1.4-7.4 3-2.4 2-4.3 3.8-5.4 5-.7.6-.6 1.7.2 2.2l7.6 5.4c.8.6 1.9.3 2.3-.6a29 29 0 0 1 2.5-4.2c1-1.5 2.3-2.8 3.6-3.6 1.6-1 3.7-2 5.6-2.8a274.7 274.7 0 0 0 3.8-1.9l1-.7c.4-.2.6-.5.8-.8a2 2 0 0 0 0-1.8 3 3 0 0 0-.9-1.3c-.3-.3-.7-.3-1-.3a5 5 0 0 0-.5 0l-.4.1c-.1 0-.4 0-.7-.2l-.3-.4a48 48 0 0 1-1.6-2.6 10 10 0 0 0-4-4c-2.1-1-5.4-1.4-7.5-1.5-.2 0-.3-.3-.2-.5.4-.6.2-1.4-.4-1.8h-.1c-.7-.5-1.6-.3-2 .3l-.1.1Z"/>
    </g>
    <rect width="41.2" height="55.6" x="97.4" y="16.1" stroke="#341D1A" rx="7" transform="rotate(34 97.4 16)"/>
  </g>
  <defs>
    <filter id="a" width="45.9" height="59" x="4.1" y="3" color-interpolation-filters="sRGB" filterUnits="userSpaceOnUse">
      <feFlood flood-opacity="0" result="BackgroundImageFix"/>
      <feBlend in="SourceGraphic" in2="BackgroundImageFix" result="shape"/>
      <feColorMatrix in="SourceAlpha" result="hardAlpha" values="0 0 0 0 0 0 0 0 0 0 0 0 0 0 0 0 0 0 127 0"/>
      <feOffset dx="-2" dy="4"/>
      <feComposite in2="hardAlpha" k2="-1" k3="1" operator="arithmetic"/>
      <feColorMatrix values="0 0 0 0 1 0 0 0 0 0.862745 0 0 0 0 0.658824 0 0 0 1 0"/>
      <feBlend in2="shape" result="effect1_innerShadow_618_567"/>
    </filter>
    <filter id="c" width="25.1" height="27.7" x="14.2" y="18.4" color-interpolation-filters="sRGB" filterUnits="userSpaceOnUse">
      <feFlood flood-opacity="0" result="BackgroundImageFix"/>
      <feBlend in="SourceGraphic" in2="BackgroundImageFix" result="shape"/>
      <feColorMatrix in="SourceAlpha" result="hardAlpha" values="0 0 0 0 0 0 0 0 0 0 0 0 0 0 0 0 0 0 127 0"/>
      <feOffset dx="-1" dy="-2"/>
      <feComposite in2="hardAlpha" k2="-1" k3="1" operator="arithmetic"/>
      <feColorMatrix values="0 0 0 0 0.996078 0 0 0 0 0.854902 0 0 0 0 0.996078 0 0 0 1 0"/>
      <feBlend in2="shape" result="effect1_innerShadow_618_567"/>
    </filter>
    <filter id="d" width="55.4" height="65" x="35.9" y="1.7" color-interpolation-filters="sRGB" filterUnits="userSpaceOnUse">
      <feFlood flood-opacity="0" result="BackgroundImageFix"/>
      <feBlend in="SourceGraphic" in2="BackgroundImageFix" result="shape"/>
      <feColorMatrix in="SourceAlpha" result="hardAlpha" values="0 0 0 0 0 0 0 0 0 0 0 0 0 0 0 0 0 0 127 0"/>
      <feOffset dx="-2" dy="4"/>
      <feComposite in2="hardAlpha" k2="-1" k3="1" operator="arithmetic"/>
      <feColorMatrix values="0 0 0 0 1 0 0 0 0 0.862745 0 0 0 0 0.658824 0 0 0 1 0"/>
      <feBlend in2="shape" result="effect1_innerShadow_618_567"/>
    </filter>
    <filter id="f" width="25.7" height="29.4" x="53.5" y="19.1" color-interpolation-filters="sRGB" filterUnits="userSpaceOnUse">
      <feFlood flood-opacity="0" result="BackgroundImageFix"/>
      <feBlend in="SourceGraphic" in2="BackgroundImageFix" result="shape"/>
      <feColorMatrix in="SourceAlpha" result="hardAlpha" values="0 0 0 0 0 0 0 0 0 0 0 0 0 0 0 0 0 0 127 0"/>
      <feOffset dx="-1" dy="-2"/>
      <feComposite in2="hardAlpha" k2="-1" k3="1" operator="arithmetic"/>
      <feColorMatrix values="0 0 0 0 0.996078 0 0 0 0 0.854902 0 0 0 0 0.996078 0 0 0 1 0"/>
      <feBlend in2="shape" result="effect1_innerShadow_618_567"/>
    </filter>
    <filter id="g" width="65.3" height="69.1" x="66.3" y="16.1" color-interpolation-filters="sRGB" filterUnits="userSpaceOnUse">
      <feFlood flood-opacity="0" result="BackgroundImageFix"/>
      <feBlend in="SourceGraphic" in2="BackgroundImageFix" result="shape"/>
      <feColorMatrix in="SourceAlpha" result="hardAlpha" values="0 0 0 0 0 0 0 0 0 0 0 0 0 0 0 0 0 0 127 0"/>
      <feOffset dx="-2" dy="4"/>
      <feComposite in2="hardAlpha" k2="-1" k3="1" operator="arithmetic"/>
      <feColorMatrix values="0 0 0 0 1 0 0 0 0 0.862745 0 0 0 0 0.658824 0 0 0 1 0"/>
      <feBlend in2="shape" result="effect1_innerShadow_618_567"/>
    </filter>
    <filter id="i" width="29.1" height="30.5" x="86.7" y="34.2" color-interpolation-filters="sRGB" filterUnits="userSpaceOnUse">
      <feFlood flood-opacity="0" result="BackgroundImageFix"/>
      <feBlend in="SourceGraphic" in2="BackgroundImageFix" result="shape"/>
      <feColorMatrix in="SourceAlpha" result="hardAlpha" values="0 0 0 0 0 0 0 0 0 0 0 0 0 0 0 0 0 0 127 0"/>
      <feOffset dx="-1" dy="-2"/>
      <feComposite in2="hardAlpha" k2="-1" k3="1" operator="arithmetic"/>
      <feColorMatrix values="0 0 0 0 0.996078 0 0 0 0 0.854902 0 0 0 0 0.996078 0 0 0 1 0"/>
      <feBlend in2="shape" result="effect1_innerShadow_618_567"/>
    </filter>
    <clipPath id="b">
      <rect width="41.2" height="55.6" x="4.1" y="6.6" fill="#fff" rx="7" transform="rotate(-5 4 6.6)"/>
    </clipPath>
    <clipPath id="e">
      <rect width="41.2" height="55.6" x="51.8" y="1.7" fill="#fff" rx="7" transform="rotate(16.6 51.8 1.7)"/>
    </clipPath>
    <clipPath id="h">
      <rect width="41.2" height="55.6" x="97.4" y="16.1" fill="#fff" rx="7" transform="rotate(34 97.4 16)"/>
    </clipPath>
  </defs>
</svg>
